<ttFont>
    <TTGlyph name=".notdef" xMin="82" yMin="-540" xMax="1447" yMax="2020">
      <contour>
        <pt x="82" y="2020" on="1"/>
        <pt x="1447" y="2020" on="1"/>
        <pt x="1447" y="-540" on="1"/>
        <pt x="82" y="-540" on="1"/>
      </contour>
      <contour>
        <pt x="368" y="79" on="1"/>
        <pt x="762" y="480" on="1"/>
        <pt x="1157" y="79" on="1"/>
        <pt x="1287" y="209" on="1"/>
        <pt x="1189" y="305" on="0"/>
        <pt x="984" y="507" on="0"/>
        <pt x="885" y="604" on="1"/>
        <pt x="1287" y="1000" on="1"/>
        <pt x="1157" y="1130" on="1"/>
        <pt x="762" y="727" on="1"/>
        <pt x="368" y="1130" on="1"/>
        <pt x="237" y="1000" on="1"/>
        <pt x="638" y="604" on="1"/>
        <pt x="237" y="209" on="1"/>
      </contour>
    </TTGlyph>
    <TTGlyph name="A" xMin="-10" yMin="0" xMax="1131" yMax="1358">
      <contour>
        <pt x="384" y="1358" on="1"/>
        <pt x="725" y="1358" on="1"/>
        <pt x="1131" y="0" on="1"/>
        <pt x="904" y="0" on="1"/>
        <pt x="780" y="415" on="1"/>
        <pt x="341" y="415" on="1"/>
        <pt x="223" y="0" on="1"/>
        <pt x="-10" y="0" on="1"/>
      </contour>
      <contour>
        <pt x="733" y="589" on="1"/>
        <pt x="550" y="1255" on="1"/>
        <pt x="385" y="589" on="1"/>
      </contour>
    </TTGlyph>
    <TTGlyph name="AE" xMin="-27" yMin="0" xMax="1352" yMax="1358">
      <contour>
        <pt x="373" y="1358" on="1"/>
        <pt x="1341" y="1358" on="1"/>
        <pt x="1341" y="1351" on="0"/>
        <pt x="1342" y="1343" on="1"/>
        <pt x="1343" y="1336" on="0"/>
        <pt x="1344" y="1318" on="0"/>
        <pt x="1344" y="1308" on="1"/>
        <pt x="1344" y="1291" on="0"/>
        <pt x="1331" y="1221" on="0"/>
        <pt x="1308" y="1176" on="1"/>
        <pt x="1237" y="1178" on="0"/>
        <pt x="1161" y="1180" on="1"/>
        <pt x="1095" y="1182" on="0"/>
        <pt x="937" y="1185" on="0"/>
        <pt x="859" y="1185" on="1"/>
        <pt x="859" y="726" on="1"/>
        <pt x="884" y="726" on="0"/>
        <pt x="948" y="727" on="0"/>
        <pt x="1018" y="728" on="0"/>
        <pt x="1091" y="730" on="0"/>
        <pt x="1125" y="731" on="1"/>
        <pt x="1205" y="733" on="0"/>
        <pt x="1289" y="736" on="1"/>
        <pt x="1289" y="724" on="0"/>
        <pt x="1290" y="713" on="1"/>
        <pt x="1291" y="702" on="0"/>
        <pt x="1292" y="678" on="0"/>
        <pt x="1292" y="666" on="1"/>
        <pt x="1292" y="659" on="0"/>
        <pt x="1283" y="614" on="0"/>
        <pt x="1268" y="558" on="1"/>
        <pt x="1105" y="558" on="1"/>
        <pt x="1072" y="558" on="0"/>
        <pt x="1002" y="558" on="0"/>
        <pt x="937" y="559" on="0"/>
        <pt x="880" y="559" on="0"/>
        <pt x="859" y="559" on="1"/>
        <pt x="859" y="171" on="1"/>
        <pt x="936" y="171" on="0"/>
        <pt x="1108" y="176" on="0"/>
        <pt x="1181" y="179" on="1"/>
        <pt x="1266" y="183" on="0"/>
        <pt x="1349" y="186" on="1"/>
        <pt x="1349" y="178" on="0"/>
        <pt x="1350" y="168" on="1"/>
        <pt x="1351" y="160" on="0"/>
        <pt x="1352" y="137" on="0"/>
        <pt x="1352" y="126" on="1"/>
        <pt x="1352" y="106" on="0"/>
        <pt x="1346" y="37" on="0"/>
        <pt x="1336" y="0" on="1"/>
        <pt x="632" y="0" on="1"/>
        <pt x="632" y="458" on="1"/>
        <pt x="323" y="458" on="1"/>
        <pt x="197" y="0" on="1"/>
        <pt x="-27" y="0" on="1"/>
      </contour>
      <contour>
        <pt x="632" y="632" on="1"/>
        <pt x="632" y="1193" on="1"/>
        <pt x="526" y="1193" on="1"/>
        <pt x="374" y="632" on="1"/>
      </contour>
    </TTGlyph>
    <TTGlyph name="AEacute" xMin="-27" yMin="0" xMax="1352" yMax="1922">
      <component glyphName="AE" x="0" y="0" flags="0x4"/>
      <component glyphName="acute.cap" x="561" y="0" flags="0x4"/>
    </TTGlyph>
    <TTGlyph name="Aacute" xMin="-10" yMin="0" xMax="1131" yMax="1922">
      <component glyphName="A" x="0" y="0" flags="0x204"/>
      <component glyphName="acute.cap" x="323" y="0" flags="0x4"/>
    </TTGlyph>
    <TTGlyph name="Abreve" xMin="-10" yMin="0" xMax="1131" yMax="1860">
      <component glyphName="A" x="0" y="0" flags="0x204"/>
      <component glyphName="breve.cap" x="226" y="0" flags="0x4"/>
    </TTGlyph>
    <TTGlyph name="Acircumflex" xMin="-10" yMin="0" xMax="1131" yMax="1849">
      <component glyphName="A" x="0" y="0" flags="0x204"/>
      <component glyphName="circumflex.cap" x="226" y="0" flags="0x4"/>
    </TTGlyph>
    <TTGlyph name="Adieresis" xMin="-10" yMin="0" xMax="1131" yMax="1742">
      <component glyphName="A" x="0" y="0" flags="0x204"/>
      <component glyphName="dieresis.cap" x="322" y="0" flags="0x4"/>
    </TTGlyph>
    <TTGlyph name="Agrave" xMin="-10" yMin="0" xMax="1131" yMax="1922">
      <component glyphName="A" x="0" y="0" flags="0x204"/>
      <component glyphName="grave.cap" x="323" y="0" flags="0x4"/>
    </TTGlyph>
    <TTGlyph name="Amacron" xMin="-10" yMin="0" xMax="1131" yMax="1713">
      <component glyphName="A" x="0" y="0" flags="0x204"/>
      <component glyphName="macron.cap" x="55" y="0" flags="0x4"/>
    </TTGlyph>
    <TTGlyph name="Aogonek" xMin="-10" yMin="-354" xMax="1135" yMax="1358">
      <contour>
        <pt x="384" y="1358" on="1"/>
        <pt x="725" y="1358" on="1"/>
        <pt x="1131" y="0" on="1"/>
        <pt x="997" y="0" on="1"/>
        <pt x="968" y="-11" on="0"/>
        <pt x="932" y="-57" on="0"/>
        <pt x="932" y="-94" on="1"/>
        <pt x="932" y="-124" on="0"/>
        <pt x="996" y="-160" on="0"/>
        <pt x="1053" y="-160" on="1"/>
        <pt x="1073" y="-160" on="0"/>
        <pt x="1102" y="-156" on="0"/>
        <pt x="1119" y="-151" on="1"/>
        <pt x="1128" y="-183" on="0"/>
        <pt x="1135" y="-232" on="0"/>
        <pt x="1135" y="-253" on="1"/>
        <pt x="1135" y="-274" on="0"/>
        <pt x="1130" y="-308" on="0"/>
        <pt x="1128" y="-319" on="1"/>
        <pt x="1125" y="-333" on="0"/>
        <pt x="1122" y="-343" on="1"/>
        <pt x="1111" y="-346" on="0"/>
        <pt x="1098" y="-349" on="1"/>
        <pt x="1073" y="-354" on="0"/>
        <pt x="1037" y="-354" on="1"/>
        <pt x="969" y="-354" on="0"/>
        <pt x="864" y="-321" on="0"/>
        <pt x="792" y="-262" on="0"/>
        <pt x="755" y="-181" on="0"/>
        <pt x="755" y="-133" on="1"/>
        <pt x="755" y="-82" on="0"/>
        <pt x="815" y="29" on="0"/>
        <pt x="882" y="73" on="1"/>
        <pt x="780" y="415" on="1"/>
        <pt x="341" y="415" on="1"/>
        <pt x="223" y="0" on="1"/>
        <pt x="-10" y="0" on="1"/>
      </contour>
      <contour>
        <pt x="733" y="589" on="1"/>
        <pt x="550" y="1255" on="1"/>
        <pt x="385" y="589" on="1"/>
      </contour>
    </TTGlyph>
    <TTGlyph name="Aring" xMin="-10" yMin="0" xMax="1131" yMax="1960">
      <component glyphName="A" x="0" y="0" flags="0x204"/>
      <component glyphName="ring.cap" x="322" y="0" flags="0x4"/>
    </TTGlyph>
    <TTGlyph name="Atilde" xMin="-10" yMin="0" xMax="1131" yMax="1796">
      <component glyphName="A" x="0" y="0" flags="0x204"/>
      <component glyphName="tilde.cap" x="223" y="0" flags="0x4"/>
    </TTGlyph>
    <TTGlyph name="B" xMin="158" yMin="0" xMax="1082" yMax="1358">
      <contour>
        <pt x="158" y="1358" on="1"/>
        <pt x="658" y="1358" on="1"/>
        <pt x="737" y="1358" on="0"/>
        <pt x="875" y="1315" on="0"/>
        <pt x="975" y="1228" on="0"/>
        <pt x="1033" y="1099" on="0"/>
        <pt x="1033" y="1014" on="1"/>
        <pt x="1033" y="969" on="0"/>
        <pt x="1002" y="881" on="0"/>
        <pt x="947" y="804" on="0"/>
        <pt x="873" y="745" on="0"/>
        <pt x="830" y="730" on="1"/>
        <pt x="875" y="722" on="0"/>
        <pt x="965" y="670" on="0"/>
        <pt x="1037" y="584" on="0"/>
        <pt x="1082" y="469" on="0"/>
        <pt x="1082" y="400" on="1"/>
        <pt x="1082" y="305" on="0"/>
        <pt x="1025" y="157" on="0"/>
        <pt x="911" y="54" on="0"/>
        <pt x="743" y="0" on="0"/>
        <pt x="632" y="0" on="1"/>
        <pt x="158" y="0" on="1"/>
      </contour>
      <contour>
        <pt x="608" y="170" on="1"/>
        <pt x="663" y="170" on="0"/>
        <pt x="752" y="194" on="0"/>
        <pt x="816" y="248" on="0"/>
        <pt x="851" y="334" on="0"/>
        <pt x="851" y="396" on="1"/>
        <pt x="851" y="459" on="0"/>
        <pt x="816" y="544" on="0"/>
        <pt x="755" y="597" on="0"/>
        <pt x="672" y="619" on="0"/>
        <pt x="624" y="619" on="1"/>
        <pt x="385" y="619" on="1"/>
        <pt x="385" y="170" on="1"/>
      </contour>
      <contour>
        <pt x="667" y="770" on="1"/>
        <pt x="737" y="791" on="0"/>
        <pt x="802" y="910" on="0"/>
        <pt x="802" y="1010" on="1"/>
        <pt x="802" y="1095" on="0"/>
        <pt x="702" y="1190" on="0"/>
        <pt x="614" y="1190" on="1"/>
        <pt x="385" y="1190" on="1"/>
        <pt x="385" y="770" on="1"/>
      </contour>
    </TTGlyph>
    <TTGlyph name="C" xMin="51" yMin="-26" xMax="987" yMax="1384">
      <contour>
        <pt x="51" y="667" on="1"/>
        <pt x="51" y="838" on="0"/>
        <pt x="131" y="1105" on="0"/>
        <pt x="287" y="1288" on="0"/>
        <pt x="515" y="1384" on="0"/>
        <pt x="663" y="1384" on="1"/>
        <pt x="722" y="1384" on="0"/>
        <pt x="836" y="1367" on="0"/>
        <pt x="883" y="1356" on="1"/>
        <pt x="937" y="1344" on="0"/>
        <pt x="987" y="1329" on="1"/>
        <pt x="984" y="1303" on="0"/>
        <pt x="978" y="1274" on="1"/>
        <pt x="973" y="1248" on="0"/>
        <pt x="952" y="1183" on="0"/>
        <pt x="935" y="1148" on="1"/>
        <pt x="898" y="1163" on="0"/>
        <pt x="854" y="1174" on="1"/>
        <pt x="816" y="1184" on="0"/>
        <pt x="718" y="1200" on="0"/>
        <pt x="663" y="1200" on="1"/>
        <pt x="574" y="1200" on="0"/>
        <pt x="431" y="1128" on="0"/>
        <pt x="330" y="991" on="0"/>
        <pt x="276" y="793" on="0"/>
        <pt x="276" y="667" on="1"/>
        <pt x="276" y="542" on="0"/>
        <pt x="330" y="352" on="0"/>
        <pt x="431" y="224" on="0"/>
        <pt x="574" y="159" on="0"/>
        <pt x="663" y="159" on="1"/>
        <pt x="719" y="159" on="0"/>
        <pt x="821" y="175" on="0"/>
        <pt x="860" y="185" on="1"/>
        <pt x="906" y="196" on="0"/>
        <pt x="945" y="212" on="1"/>
        <pt x="956" y="189" on="0"/>
        <pt x="964" y="161" on="1"/>
        <pt x="971" y="137" on="0"/>
        <pt x="982" y="70" on="0"/>
        <pt x="980" y="28" on="1"/>
        <pt x="933" y="12" on="0"/>
        <pt x="880" y="1" on="1"/>
        <pt x="835" y="-10" on="0"/>
        <pt x="722" y="-26" on="0"/>
        <pt x="663" y="-26" on="1"/>
        <pt x="359" y="-26" on="0"/>
        <pt x="51" y="323" on="0"/>
      </contour>
    </TTGlyph>
    <TTGlyph name="Cacute" xMin="51" yMin="-26" xMax="987" yMax="1922">
      <component glyphName="C" x="0" y="0" flags="0x204"/>
      <component glyphName="acute.cap" x="425" y="0" flags="0x4"/>
    </TTGlyph>
    <TTGlyph name="Ccaron" xMin="51" yMin="-26" xMax="1026" yMax="1848">
      <component glyphName="C" x="0" y="0" flags="0x204"/>
      <component glyphName="caron.cap" x="328" y="0" flags="0x4"/>
    </TTGlyph>
    <TTGlyph name="Ccedilla" xMin="51" yMin="-434" xMax="987" yMax="1384">
      <contour>
        <pt x="51" y="667" on="1"/>
        <pt x="51" y="838" on="0"/>
        <pt x="131" y="1105" on="0"/>
        <pt x="287" y="1288" on="0"/>
        <pt x="515" y="1384" on="0"/>
        <pt x="663" y="1384" on="1"/>
        <pt x="722" y="1384" on="0"/>
        <pt x="836" y="1367" on="0"/>
        <pt x="883" y="1356" on="1"/>
        <pt x="937" y="1344" on="0"/>
        <pt x="987" y="1329" on="1"/>
        <pt x="984" y="1303" on="0"/>
        <pt x="978" y="1274" on="1"/>
        <pt x="973" y="1248" on="0"/>
        <pt x="952" y="1183" on="0"/>
        <pt x="935" y="1148" on="1"/>
        <pt x="898" y="1163" on="0"/>
        <pt x="854" y="1174" on="1"/>
        <pt x="816" y="1184" on="0"/>
        <pt x="718" y="1200" on="0"/>
        <pt x="663" y="1200" on="1"/>
        <pt x="574" y="1200" on="0"/>
        <pt x="431" y="1128" on="0"/>
        <pt x="330" y="991" on="0"/>
        <pt x="276" y="793" on="0"/>
        <pt x="276" y="667" on="1"/>
        <pt x="276" y="542" on="0"/>
        <pt x="330" y="352" on="0"/>
        <pt x="431" y="224" on="0"/>
        <pt x="574" y="159" on="0"/>
        <pt x="663" y="159" on="1"/>
        <pt x="719" y="159" on="0"/>
        <pt x="821" y="175" on="0"/>
        <pt x="860" y="185" on="1"/>
        <pt x="906" y="196" on="0"/>
        <pt x="945" y="212" on="1"/>
        <pt x="956" y="189" on="0"/>
        <pt x="964" y="161" on="1"/>
        <pt x="971" y="137" on="0"/>
        <pt x="982" y="70" on="0"/>
        <pt x="980" y="28" on="1"/>
        <pt x="941" y="16" on="0"/>
        <pt x="898" y="5" on="1"/>
        <pt x="860" y="-4" on="0"/>
        <pt x="765" y="-21" on="0"/>
        <pt x="712" y="-24" on="1"/>
        <pt x="720" y="-54" on="0"/>
        <pt x="732" y="-131" on="0"/>
        <pt x="732" y="-166" on="1"/>
        <pt x="732" y="-220" on="0"/>
        <pt x="695" y="-317" on="0"/>
        <pt x="623" y="-391" on="0"/>
        <pt x="518" y="-434" on="0"/>
        <pt x="451" y="-434" on="1"/>
        <pt x="416" y="-434" on="0"/>
        <pt x="391" y="-429" on="1"/>
        <pt x="378" y="-426" on="0"/>
        <pt x="368" y="-423" on="1"/>
        <pt x="364" y="-410" on="0"/>
        <pt x="361" y="-394" on="1"/>
        <pt x="358" y="-380" on="0"/>
        <pt x="354" y="-345" on="0"/>
        <pt x="354" y="-324" on="1"/>
        <pt x="354" y="-302" on="0"/>
        <pt x="361" y="-250" on="0"/>
        <pt x="370" y="-218" on="1"/>
        <pt x="393" y="-223" on="0"/>
        <pt x="428" y="-231" on="0"/>
        <pt x="436" y="-231" on="1"/>
        <pt x="464" y="-231" on="0"/>
        <pt x="505" y="-212" on="0"/>
        <pt x="532" y="-181" on="0"/>
        <pt x="545" y="-139" on="0"/>
        <pt x="545" y="-116" on="1"/>
        <pt x="545" y="-105" on="0"/>
        <pt x="544" y="-77" on="0"/>
        <pt x="542" y="-50" on="0"/>
        <pt x="539" y="-26" on="0"/>
        <pt x="537" y="-17" on="1"/>
        <pt x="296" y="17" on="0"/>
        <pt x="51" y="361" on="0"/>
      </contour>
    </TTGlyph>
    <TTGlyph name="Ccircumflex" xMin="51" yMin="-26" xMax="1032" yMax="1849">
      <component glyphName="C" x="0" y="0" flags="0x204"/>
      <component glyphName="circumflex.cap" x="328" y="0" flags="0x4"/>
    </TTGlyph>
    <TTGlyph name="Cdotaccent" xMin="51" yMin="-26" xMax="987" yMax="1744">
      <component glyphName="C" x="0" y="0" flags="0x204"/>
      <component glyphName="dotaccent.cap" x="425" y="0" flags="0x4"/>
    </TTGlyph>
    <TTGlyph name="D" xMin="158" yMin="0" xMax="1203" yMax="1368">
      <contour>
        <pt x="158" y="1357" on="1"/>
        <pt x="209" y="1359" on="0"/>
        <pt x="271" y="1362" on="1"/>
        <pt x="325" y="1364" on="0"/>
        <pt x="470" y="1368" on="0"/>
        <pt x="557" y="1368" on="1"/>
        <pt x="713" y="1368" on="0"/>
        <pt x="953" y="1285" on="0"/>
        <pt x="1118" y="1117" on="0"/>
        <pt x="1203" y="863" on="0"/>
        <pt x="1203" y="692" on="1"/>
        <pt x="1203" y="521" on="0"/>
        <pt x="1111" y="262" on="0"/>
        <pt x="940" y="88" on="0"/>
        <pt x="696" y="0" on="0"/>
        <pt x="543" y="0" on="1"/>
        <pt x="158" y="0" on="1"/>
      </contour>
      <contour>
        <pt x="577" y="175" on="1"/>
        <pt x="670" y="175" on="0"/>
        <pt x="816" y="254" on="0"/>
        <pt x="918" y="393" on="0"/>
        <pt x="972" y="580" on="0"/>
        <pt x="972" y="688" on="1"/>
        <pt x="972" y="813" on="0"/>
        <pt x="918" y="1002" on="0"/>
        <pt x="816" y="1130" on="0"/>
        <pt x="670" y="1194" on="0"/>
        <pt x="577" y="1194" on="1"/>
        <pt x="526" y="1194" on="0"/>
        <pt x="452" y="1192" on="0"/>
        <pt x="429" y="1191" on="1"/>
        <pt x="402" y="1189" on="0"/>
        <pt x="384" y="1188" on="1"/>
        <pt x="384" y="175" on="1"/>
      </contour>
    </TTGlyph>
    <TTGlyph name="Dcaron" xMin="158" yMin="0" xMax="1203" yMax="1848">
      <component glyphName="D" x="0" y="0" flags="0x204"/>
      <component glyphName="caron.cap" x="324" y="0" flags="0x4"/>
    </TTGlyph>
    <TTGlyph name="Dcroat" xMin="56" yMin="0" xMax="1213" yMax="1368">
      <component glyphName="_459" x="3" y="0" flags="0x4"/>
    </TTGlyph>
    <TTGlyph name="Delta" xMin="150" yMin="5" xMax="1366" yMax="1365">
      <contour>
        <pt x="150" y="122" on="1"/>
        <pt x="657" y="1365" on="1"/>
        <pt x="860" y="1365" on="1"/>
        <pt x="1366" y="122" on="1"/>
        <pt x="1346" y="5" on="1"/>
        <pt x="170" y="5" on="1"/>
      </contour>
      <contour>
        <pt x="389" y="202" on="1"/>
        <pt x="1107" y="202" on="1"/>
        <pt x="764" y="1111" on="1"/>
        <pt x="748" y="1185" on="1"/>
        <pt x="728" y="1112" on="1"/>
      </contour>
    </TTGlyph>
    <TTGlyph name="Deltagreek" xMin="150" yMin="5" xMax="1366" yMax="1365">
      <component glyphName="Delta" x="0" y="0" flags="0x204"/>
    </TTGlyph>
    <TTGlyph name="E" xMin="158" yMin="0" xMax="948" yMax="1358">
      <contour>
        <pt x="158" y="1358" on="1"/>
        <pt x="937" y="1358" on="1"/>
        <pt x="937" y="1351" on="0"/>
        <pt x="938" y="1343" on="1"/>
        <pt x="939" y="1336" on="0"/>
        <pt x="940" y="1319" on="0"/>
        <pt x="940" y="1309" on="1"/>
        <pt x="940" y="1292" on="0"/>
        <pt x="927" y="1223" on="0"/>
        <pt x="905" y="1178" on="1"/>
        <pt x="822" y="1181" on="0"/>
        <pt x="733" y="1184" on="1"/>
        <pt x="657" y="1186" on="0"/>
        <pt x="473" y="1191" on="0"/>
        <pt x="385" y="1191" on="1"/>
        <pt x="385" y="781" on="1"/>
        <pt x="414" y="781" on="0"/>
        <pt x="487" y="782" on="0"/>
        <pt x="566" y="784" on="0"/>
        <pt x="646" y="786" on="0"/>
        <pt x="684" y="787" on="1"/>
        <pt x="772" y="790" on="0"/>
        <pt x="865" y="792" on="1"/>
        <pt x="865" y="784" on="0"/>
        <pt x="866" y="775" on="1"/>
        <pt x="867" y="767" on="0"/>
        <pt x="868" y="746" on="0"/>
        <pt x="868" y="735" on="1"/>
        <pt x="868" y="730" on="0"/>
        <pt x="865" y="701" on="0"/>
        <pt x="858" y="665" on="0"/>
        <pt x="849" y="629" on="0"/>
        <pt x="843" y="617" on="1"/>
        <pt x="750" y="617" on="0"/>
        <pt x="664" y="618" on="1"/>
        <pt x="627" y="618" on="0"/>
        <pt x="549" y="618" on="0"/>
        <pt x="476" y="619" on="0"/>
        <pt x="410" y="619" on="0"/>
        <pt x="385" y="619" on="1"/>
        <pt x="385" y="171" on="1"/>
        <pt x="473" y="171" on="0"/>
        <pt x="668" y="177" on="0"/>
        <pt x="752" y="180" on="1"/>
        <pt x="850" y="184" on="0"/>
        <pt x="945" y="189" on="1"/>
        <pt x="945" y="180" on="0"/>
        <pt x="946" y="170" on="1"/>
        <pt x="947" y="162" on="0"/>
        <pt x="948" y="139" on="0"/>
        <pt x="948" y="128" on="1"/>
        <pt x="948" y="107" on="0"/>
        <pt x="942" y="39" on="0"/>
        <pt x="932" y="0" on="1"/>
        <pt x="158" y="0" on="1"/>
      </contour>
    </TTGlyph>
    <TTGlyph name="Eacute" xMin="158" yMin="0" xMax="948" yMax="1922">
      <component glyphName="E" x="0" y="0" flags="0x204"/>
      <component glyphName="acute.cap" x="316" y="0" flags="0x4"/>
    </TTGlyph>
    <TTGlyph name="Ebreve" xMin="158" yMin="0" xMax="948" yMax="1860">
      <component glyphName="E" x="0" y="0" flags="0x204"/>
      <component glyphName="breve.cap" x="219" y="0" flags="0x4"/>
    </TTGlyph>
    <TTGlyph name="Ecaron" xMin="158" yMin="0" xMax="948" yMax="1848">
      <component glyphName="E" x="0" y="0" flags="0x204"/>
      <component glyphName="caron.cap" x="219" y="0" flags="0x4"/>
    </TTGlyph>
    <TTGlyph name="Ecircumflex" xMin="158" yMin="0" xMax="948" yMax="1849">
      <component glyphName="E" x="0" y="0" flags="0x204"/>
      <component glyphName="circumflex.cap" x="219" y="0" flags="0x4"/>
    </TTGlyph>
    <TTGlyph name="Edieresis" xMin="158" yMin="0" xMax="948" yMax="1742">
      <component glyphName="E" x="0" y="0" flags="0x204"/>
      <component glyphName="dieresis.cap" x="315" y="0" flags="0x4"/>
    </TTGlyph>
    <TTGlyph name="Edotaccent" xMin="158" yMin="0" xMax="948" yMax="1744">
      <component glyphName="E" x="0" y="0" flags="0x204"/>
      <component glyphName="dotaccent.cap" x="316" y="0" flags="0x4"/>
    </TTGlyph>
    <TTGlyph name="Egrave" xMin="158" yMin="0" xMax="948" yMax="1922">
      <component glyphName="E" x="0" y="0" flags="0x204"/>
      <component glyphName="grave.cap" x="316" y="0" flags="0x4"/>
    </TTGlyph>
    <TTGlyph name="Emacron" xMin="158" yMin="0" xMax="948" yMax="1713">
      <component glyphName="E" x="0" y="0" flags="0x204"/>
      <component glyphName="macron.cap" x="48" y="0" flags="0x4"/>
    </TTGlyph>
    <TTGlyph name="Eng" xMin="158" yMin="-505" xMax="1193" yMax="1358">
      <contour>
        <pt x="1193" y="0" on="1"/>
        <pt x="1193" y="-130" on="1"/>
        <pt x="1193" y="-211" on="0"/>
        <pt x="1164" y="-334" on="0"/>
        <pt x="1094" y="-424" on="0"/>
        <pt x="976" y="-485" on="0"/>
        <pt x="887" y="-505" on="1"/>
        <pt x="867" y="-476" on="0"/>
        <pt x="846" y="-414" on="0"/>
        <pt x="840" y="-388" on="1"/>
        <pt x="833" y="-358" on="0"/>
        <pt x="831" y="-330" on="1"/>
        <pt x="875" y="-321" on="0"/>
        <pt x="928" y="-292" on="0"/>
        <pt x="957" y="-238" on="0"/>
        <pt x="967" y="-150" on="0"/>
        <pt x="967" y="-80" on="1"/>
        <pt x="967" y="13" on="1"/>
      </contour>
      <contour>
        <pt x="158" y="1358" on="1"/>
        <pt x="517" y="1358" on="1"/>
        <pt x="860" y="510" on="1"/>
        <pt x="997" y="124" on="1"/>
        <pt x="984" y="510" on="1"/>
        <pt x="977" y="1358" on="1"/>
        <pt x="1193" y="1358" on="1"/>
        <pt x="1193" y="0" on="1"/>
        <pt x="843" y="0" on="1"/>
        <pt x="492" y="850" on="1"/>
        <pt x="355" y="1242" on="1"/>
        <pt x="368" y="850" on="1"/>
        <pt x="375" y="0" on="1"/>
        <pt x="158" y="0" on="1"/>
      </contour>
    </TTGlyph>
    <TTGlyph name="Eogonek" xMin="158" yMin="-354" xMax="956" yMax="1358">
      <contour>
        <pt x="158" y="1358" on="1"/>
        <pt x="937" y="1358" on="1"/>
        <pt x="937" y="1351" on="0"/>
        <pt x="938" y="1343" on="1"/>
        <pt x="939" y="1336" on="0"/>
        <pt x="940" y="1319" on="0"/>
        <pt x="940" y="1309" on="1"/>
        <pt x="940" y="1292" on="0"/>
        <pt x="927" y="1223" on="0"/>
        <pt x="905" y="1178" on="1"/>
        <pt x="822" y="1181" on="0"/>
        <pt x="733" y="1184" on="1"/>
        <pt x="657" y="1186" on="0"/>
        <pt x="473" y="1191" on="0"/>
        <pt x="385" y="1191" on="1"/>
        <pt x="385" y="781" on="1"/>
        <pt x="414" y="781" on="0"/>
        <pt x="487" y="782" on="0"/>
        <pt x="566" y="784" on="0"/>
        <pt x="646" y="786" on="0"/>
        <pt x="684" y="787" on="1"/>
        <pt x="772" y="790" on="0"/>
        <pt x="865" y="792" on="1"/>
        <pt x="865" y="784" on="0"/>
        <pt x="866" y="775" on="1"/>
        <pt x="867" y="767" on="0"/>
        <pt x="868" y="746" on="0"/>
        <pt x="868" y="735" on="1"/>
        <pt x="868" y="730" on="0"/>
        <pt x="865" y="701" on="0"/>
        <pt x="858" y="665" on="0"/>
        <pt x="849" y="629" on="0"/>
        <pt x="843" y="617" on="1"/>
        <pt x="750" y="617" on="0"/>
        <pt x="664" y="618" on="1"/>
        <pt x="627" y="618" on="0"/>
        <pt x="549" y="618" on="0"/>
        <pt x="476" y="619" on="0"/>
        <pt x="410" y="619" on="0"/>
        <pt x="385" y="619" on="1"/>
        <pt x="385" y="171" on="1"/>
        <pt x="473" y="171" on="0"/>
        <pt x="668" y="177" on="0"/>
        <pt x="752" y="180" on="1"/>
        <pt x="850" y="184" on="0"/>
        <pt x="945" y="189" on="1"/>
        <pt x="945" y="180" on="0"/>
        <pt x="946" y="170" on="1"/>
        <pt x="947" y="162" on="0"/>
        <pt x="948" y="139" on="0"/>
        <pt x="948" y="128" on="1"/>
        <pt x="948" y="107" on="0"/>
        <pt x="942" y="39" on="0"/>
        <pt x="932" y="0" on="1"/>
        <pt x="818" y="0" on="1"/>
        <pt x="789" y="-11" on="0"/>
        <pt x="753" y="-57" on="0"/>
        <pt x="753" y="-94" on="1"/>
        <pt x="753" y="-124" on="0"/>
        <pt x="817" y="-160" on="0"/>
        <pt x="874" y="-160" on="1"/>
        <pt x="894" y="-160" on="0"/>
        <pt x="923" y="-156" on="0"/>
        <pt x="940" y="-151" on="1"/>
        <pt x="949" y="-183" on="0"/>
        <pt x="956" y="-232" on="0"/>
        <pt x="956" y="-253" on="1"/>
        <pt x="956" y="-274" on="0"/>
        <pt x="951" y="-308" on="0"/>
        <pt x="949" y="-319" on="1"/>
        <pt x="946" y="-333" on="0"/>
        <pt x="943" y="-343" on="1"/>
        <pt x="932" y="-346" on="0"/>
        <pt x="919" y="-349" on="1"/>
        <pt x="894" y="-354" on="0"/>
        <pt x="858" y="-354" on="1"/>
        <pt x="790" y="-354" on="0"/>
        <pt x="685" y="-321" on="0"/>
        <pt x="613" y="-262" on="0"/>
        <pt x="576" y="-181" on="0"/>
        <pt x="576" y="-133" on="1"/>
        <pt x="576" y="-101" on="0"/>
        <pt x="599" y="-33" on="0"/>
        <pt x="623" y="0" on="1"/>
        <pt x="158" y="0" on="1"/>
      </contour>
    </TTGlyph>
    <TTGlyph name="Eth" xMin="56" yMin="0" xMax="1213" yMax="1368">
      <contour>
        <pt x="56" y="773" on="1"/>
        <pt x="83" y="773" on="0"/>
        <pt x="139" y="774" on="0"/>
        <pt x="168" y="775" on="1"/>
        <pt x="168" y="1357" on="1"/>
        <pt x="219" y="1359" on="0"/>
        <pt x="281" y="1362" on="1"/>
        <pt x="335" y="1364" on="0"/>
        <pt x="480" y="1368" on="0"/>
        <pt x="567" y="1368" on="1"/>
        <pt x="723" y="1368" on="0"/>
        <pt x="963" y="1285" on="0"/>
        <pt x="1128" y="1117" on="0"/>
        <pt x="1213" y="863" on="0"/>
        <pt x="1213" y="692" on="1"/>
        <pt x="1213" y="521" on="0"/>
        <pt x="1121" y="262" on="0"/>
        <pt x="950" y="88" on="0"/>
        <pt x="706" y="0" on="0"/>
        <pt x="553" y="0" on="1"/>
        <pt x="168" y="0" on="1"/>
        <pt x="168" y="617" on="1"/>
        <pt x="56" y="617" on="1"/>
      </contour>
      <contour>
        <pt x="587" y="175" on="1"/>
        <pt x="680" y="175" on="0"/>
        <pt x="826" y="254" on="0"/>
        <pt x="928" y="393" on="0"/>
        <pt x="982" y="580" on="0"/>
        <pt x="982" y="688" on="1"/>
        <pt x="982" y="813" on="0"/>
        <pt x="928" y="1002" on="0"/>
        <pt x="826" y="1130" on="0"/>
        <pt x="680" y="1194" on="0"/>
        <pt x="587" y="1194" on="1"/>
        <pt x="536" y="1194" on="0"/>
        <pt x="462" y="1192" on="0"/>
        <pt x="439" y="1191" on="1"/>
        <pt x="412" y="1189" on="0"/>
        <pt x="394" y="1188" on="1"/>
        <pt x="394" y="779" on="1"/>
        <pt x="460" y="780" on="0"/>
        <pt x="576" y="782" on="0"/>
        <pt x="620" y="783" on="1"/>
        <pt x="671" y="784" on="0"/>
        <pt x="714" y="784" on="1"/>
        <pt x="714" y="776" on="0"/>
        <pt x="715" y="767" on="1"/>
        <pt x="716" y="759" on="0"/>
        <pt x="717" y="738" on="0"/>
        <pt x="717" y="727" on="1"/>
        <pt x="717" y="707" on="0"/>
        <pt x="711" y="648" on="0"/>
        <pt x="700" y="613" on="1"/>
        <pt x="658" y="613" on="0"/>
        <pt x="610" y="614" on="1"/>
        <pt x="568" y="615" on="0"/>
        <pt x="457" y="615" on="0"/>
        <pt x="394" y="616" on="1"/>
        <pt x="394" y="175" on="1"/>
      </contour>
    </TTGlyph>
    <TTGlyph name="Euro" xMin="-1" yMin="-26" xMax="1117" yMax="1376">
      <contour>
        <pt x="13" y="418" on="1"/>
        <pt x="5" y="445" on="0"/>
        <pt x="-1" y="485" on="0"/>
        <pt x="-1" y="500" on="1"/>
        <pt x="-1" y="516" on="0"/>
        <pt x="3" y="545" on="0"/>
        <pt x="6" y="557" on="1"/>
        <pt x="9" y="570" on="0"/>
        <pt x="13" y="583" on="1"/>
        <pt x="179" y="583" on="1"/>
        <pt x="177" y="603" on="0"/>
        <pt x="177" y="642" on="0"/>
        <pt x="177" y="663" on="1"/>
        <pt x="177" y="691" on="0"/>
        <pt x="179" y="744" on="0"/>
        <pt x="181" y="770" on="1"/>
        <pt x="52" y="770" on="1"/>
        <pt x="44" y="797" on="0"/>
        <pt x="39" y="837" on="0"/>
        <pt x="39" y="852" on="1"/>
        <pt x="39" y="868" on="0"/>
        <pt x="43" y="897" on="0"/>
        <pt x="45" y="909" on="1"/>
        <pt x="48" y="922" on="0"/>
        <pt x="52" y="935" on="1"/>
        <pt x="208" y="935" on="1"/>
        <pt x="263" y="1149" on="0"/>
        <pt x="556" y="1376" on="0"/>
        <pt x="786" y="1376" on="1"/>
        <pt x="844" y="1376" on="0"/>
        <pt x="962" y="1359" on="0"/>
        <pt x="1010" y="1348" on="1"/>
        <pt x="1065" y="1336" on="0"/>
        <pt x="1117" y="1320" on="1"/>
        <pt x="1114" y="1296" on="0"/>
        <pt x="1108" y="1268" on="1"/>
        <pt x="1103" y="1244" on="0"/>
        <pt x="1082" y="1182" on="0"/>
        <pt x="1065" y="1147" on="1"/>
        <pt x="1025" y="1162" on="0"/>
        <pt x="980" y="1173" on="1"/>
        <pt x="941" y="1183" on="0"/>
        <pt x="841" y="1199" on="0"/>
        <pt x="786" y="1199" on="1"/>
        <pt x="726" y="1199" on="0"/>
        <pt x="618" y="1162" on="0"/>
        <pt x="526" y="1093" on="0"/>
        <pt x="456" y="996" on="0"/>
        <pt x="434" y="935" on="1"/>
        <pt x="895" y="935" on="1"/>
        <pt x="902" y="909" on="0"/>
        <pt x="907" y="868" on="0"/>
        <pt x="907" y="853" on="1"/>
        <pt x="907" y="837" on="0"/>
        <pt x="903" y="808" on="0"/>
        <pt x="901" y="796" on="1"/>
        <pt x="898" y="782" on="0"/>
        <pt x="895" y="770" on="1"/>
        <pt x="397" y="770" on="1"/>
        <pt x="391" y="717" on="0"/>
        <pt x="391" y="663" on="1"/>
        <pt x="391" y="620" on="0"/>
        <pt x="394" y="583" on="1"/>
        <pt x="854" y="583" on="1"/>
        <pt x="862" y="557" on="0"/>
        <pt x="866" y="516" on="0"/>
        <pt x="866" y="501" on="1"/>
        <pt x="866" y="485" on="0"/>
        <pt x="862" y="456" on="0"/>
        <pt x="860" y="444" on="1"/>
        <pt x="857" y="430" on="0"/>
        <pt x="854" y="418" on="1"/>
        <pt x="420" y="418" on="1"/>
        <pt x="438" y="356" on="0"/>
        <pt x="501" y="260" on="0"/>
        <pt x="587" y="194" on="0"/>
        <pt x="694" y="160" on="0"/>
        <pt x="756" y="160" on="1"/>
        <pt x="812" y="160" on="0"/>
        <pt x="918" y="175" on="0"/>
        <pt x="961" y="185" on="1"/>
        <pt x="1010" y="196" on="0"/>
        <pt x="1056" y="211" on="1"/>
        <pt x="1067" y="189" on="0"/>
        <pt x="1075" y="161" on="1"/>
        <pt x="1082" y="137" on="0"/>
        <pt x="1093" y="70" on="0"/>
        <pt x="1091" y="28" on="1"/>
        <pt x="1038" y="12" on="0"/>
        <pt x="982" y="1" on="1"/>
        <pt x="934" y="-10" on="0"/>
        <pt x="815" y="-26" on="0"/>
        <pt x="756" y="-26" on="1"/>
        <pt x="515" y="-26" on="0"/>
        <pt x="242" y="198" on="0"/>
        <pt x="198" y="418" on="1"/>
        <pt x="13" y="418" on="1"/>
      </contour>
    </TTGlyph>
    <TTGlyph name="F" xMin="158" yMin="0" xMax="940" yMax="1358">
      <contour>
        <pt x="158" y="1358" on="1"/>
        <pt x="937" y="1358" on="1"/>
        <pt x="937" y="1351" on="0"/>
        <pt x="938" y="1343" on="1"/>
        <pt x="939" y="1336" on="0"/>
        <pt x="940" y="1319" on="0"/>
        <pt x="940" y="1309" on="1"/>
        <pt x="940" y="1292" on="0"/>
        <pt x="927" y="1223" on="0"/>
        <pt x="905" y="1178" on="1"/>
        <pt x="823" y="1181" on="0"/>
        <pt x="735" y="1184" on="1"/>
        <pt x="660" y="1186" on="0"/>
        <pt x="475" y="1191" on="0"/>
        <pt x="385" y="1191" on="1"/>
        <pt x="385" y="748" on="1"/>
        <pt x="412" y="748" on="0"/>
        <pt x="484" y="749" on="0"/>
        <pt x="564" y="751" on="0"/>
        <pt x="649" y="754" on="0"/>
        <pt x="689" y="755" on="1"/>
        <pt x="783" y="758" on="0"/>
        <pt x="885" y="761" on="1"/>
        <pt x="885" y="753" on="0"/>
        <pt x="886" y="744" on="1"/>
        <pt x="887" y="736" on="0"/>
        <pt x="888" y="715" on="0"/>
        <pt x="888" y="704" on="1"/>
        <pt x="888" y="695" on="0"/>
        <pt x="879" y="637" on="0"/>
        <pt x="863" y="583" on="1"/>
        <pt x="757" y="583" on="0"/>
        <pt x="663" y="584" on="1"/>
        <pt x="623" y="584" on="0"/>
        <pt x="540" y="584" on="0"/>
        <pt x="466" y="585" on="0"/>
        <pt x="404" y="585" on="0"/>
        <pt x="385" y="585" on="1"/>
        <pt x="385" y="0" on="1"/>
        <pt x="158" y="0" on="1"/>
      </contour>
    </TTGlyph>
    <TTGlyph name="G" xMin="53" yMin="-26" xMax="1050" yMax="1384">
      <contour>
        <pt x="53" y="667" on="1"/>
        <pt x="53" y="838" on="0"/>
        <pt x="136" y="1105" on="0"/>
        <pt x="297" y="1288" on="0"/>
        <pt x="532" y="1384" on="0"/>
        <pt x="685" y="1384" on="1"/>
        <pt x="743" y="1384" on="0"/>
        <pt x="864" y="1367" on="0"/>
        <pt x="914" y="1356" on="1"/>
        <pt x="972" y="1344" on="0"/>
        <pt x="1026" y="1329" on="1"/>
        <pt x="1024" y="1304" on="0"/>
        <pt x="1018" y="1276" on="1"/>
        <pt x="1013" y="1252" on="0"/>
        <pt x="993" y="1189" on="0"/>
        <pt x="976" y="1154" on="1"/>
        <pt x="934" y="1169" on="0"/>
        <pt x="886" y="1180" on="1"/>
        <pt x="845" y="1190" on="0"/>
        <pt x="740" y="1206" on="0"/>
        <pt x="685" y="1206" on="1"/>
        <pt x="592" y="1206" on="0"/>
        <pt x="443" y="1130" on="0"/>
        <pt x="340" y="989" on="0"/>
        <pt x="285" y="790" on="0"/>
        <pt x="285" y="667" on="1"/>
        <pt x="285" y="545" on="0"/>
        <pt x="337" y="353" on="0"/>
        <pt x="439" y="221" on="0"/>
        <pt x="588" y="151" on="0"/>
        <pt x="685" y="151" on="1"/>
        <pt x="701" y="151" on="0"/>
        <pt x="741" y="151" on="0"/>
        <pt x="781" y="153" on="0"/>
        <pt x="819" y="154" on="0"/>
        <pt x="834" y="156" on="1"/>
        <pt x="834" y="188" on="0"/>
        <pt x="832" y="262" on="0"/>
        <pt x="831" y="339" on="0"/>
        <pt x="829" y="415" on="0"/>
        <pt x="828" y="450" on="1"/>
        <pt x="826" y="532" on="0"/>
        <pt x="824" y="615" on="1"/>
        <pt x="860" y="625" on="0"/>
        <pt x="914" y="631" on="0"/>
        <pt x="935" y="631" on="1"/>
        <pt x="956" y="631" on="0"/>
        <pt x="997" y="625" on="0"/>
        <pt x="1014" y="622" on="1"/>
        <pt x="1033" y="618" on="0"/>
        <pt x="1050" y="614" on="1"/>
        <pt x="1050" y="496" on="0"/>
        <pt x="1047" y="279" on="0"/>
        <pt x="1045" y="195" on="1"/>
        <pt x="1042" y="96" on="0"/>
        <pt x="1040" y="11" on="1"/>
        <pt x="1021" y="-2" on="1"/>
        <pt x="968" y="-9" on="0"/>
        <pt x="912" y="-14" on="1"/>
        <pt x="864" y="-19" on="0"/>
        <pt x="744" y="-26" on="0"/>
        <pt x="685" y="-26" on="1"/>
        <pt x="532" y="-26" on="0"/>
        <pt x="297" y="62" on="0"/>
        <pt x="136" y="237" on="0"/>
        <pt x="53" y="496" on="0"/>
      </contour>
    </TTGlyph>
    <TTGlyph name="Gbreve" xMin="53" yMin="-26" xMax="1050" yMax="1847">
      <component glyphName="G" x="0" y="0" flags="0x204"/>
      <component glyphName="breve.cap" x="254" y="-13" flags="0x4"/>
    </TTGlyph>
    <TTGlyph name="Gcircumflex" xMin="53" yMin="-26" xMax="1050" yMax="1836">
      <component glyphName="G" x="0" y="0" flags="0x204"/>
      <component glyphName="circumflex.cap" x="254" y="-13" flags="0x4"/>
    </TTGlyph>
    <TTGlyph name="Gcommaaccent" xMin="53" yMin="-507" xMax="1050" yMax="1384">
      <component glyphName="G" x="0" y="0" flags="0x204"/>
      <component glyphName="commaaccent" x="291" y="0" flags="0x4"/>
    </TTGlyph>
    <TTGlyph name="Gdotaccent" xMin="53" yMin="-26" xMax="1050" yMax="1731">
      <component glyphName="G" x="0" y="0" flags="0x204"/>
      <component glyphName="dotaccent.cap" x="351" y="-13" flags="0x4"/>
    </TTGlyph>
    <TTGlyph name="H" xMin="158" yMin="0" xMax="1141" yMax="1358">
      <contour>
        <pt x="158" y="1358" on="1"/>
        <pt x="385" y="1358" on="1"/>
        <pt x="385" y="781" on="1"/>
        <pt x="915" y="781" on="1"/>
        <pt x="915" y="1358" on="1"/>
        <pt x="1141" y="1358" on="1"/>
        <pt x="1141" y="0" on="1"/>
        <pt x="915" y="0" on="1"/>
        <pt x="915" y="607" on="1"/>
        <pt x="385" y="607" on="1"/>
        <pt x="385" y="0" on="1"/>
        <pt x="158" y="0" on="1"/>
      </contour>
    </TTGlyph>
    <TTGlyph name="Hbar" xMin="35" yMin="13" xMax="1264" yMax="1371">
      <contour>
        <pt x="48" y="963" on="1"/>
        <pt x="35" y="1012" on="0"/>
        <pt x="35" y="1043" on="1"/>
        <pt x="35" y="1060" on="0"/>
        <pt x="41" y="1091" on="0"/>
        <pt x="49" y="1112" on="1"/>
        <pt x="163" y="1112" on="1"/>
        <pt x="163" y="1371" on="1"/>
        <pt x="390" y="1371" on="1"/>
        <pt x="390" y="1112" on="1"/>
        <pt x="920" y="1112" on="1"/>
        <pt x="920" y="1371" on="1"/>
        <pt x="1146" y="1371" on="1"/>
        <pt x="1146" y="1112" on="1"/>
        <pt x="1255" y="1112" on="1"/>
        <pt x="1260" y="1092" on="0"/>
        <pt x="1264" y="1066" on="0"/>
        <pt x="1264" y="1052" on="1"/>
        <pt x="1264" y="1032" on="0"/>
        <pt x="1257" y="997" on="0"/>
        <pt x="1249" y="973" on="1"/>
        <pt x="1146" y="973" on="1"/>
        <pt x="1146" y="13" on="1"/>
        <pt x="920" y="13" on="1"/>
        <pt x="920" y="560" on="1"/>
        <pt x="390" y="560" on="1"/>
        <pt x="390" y="13" on="1"/>
        <pt x="163" y="13" on="1"/>
        <pt x="163" y="973" on="1"/>
        <pt x="48" y="973" on="1"/>
      </contour>
      <contour>
        <pt x="920" y="734" on="1"/>
        <pt x="920" y="973" on="1"/>
        <pt x="390" y="973" on="1"/>
        <pt x="390" y="734" on="1"/>
      </contour>
    </TTGlyph>
    <TTGlyph name="Hcircumflex" xMin="158" yMin="0" xMax="1141" yMax="1849">
      <component glyphName="H" x="0" y="0" flags="0x204"/>
      <component glyphName="circumflex.cap" x="316" y="0" flags="0x4"/>
    </TTGlyph>
    <TTGlyph name="I" xMin="158" yMin="0" xMax="384" yMax="1358">
      <contour>
        <pt x="158" y="1358" on="1"/>
        <pt x="384" y="1358" on="1"/>
        <pt x="384" y="0" on="1"/>
        <pt x="158" y="0" on="1"/>
      </contour>
    </TTGlyph>
    <TTGlyph name="IJ" xMin="158" yMin="-268" xMax="986" yMax="1358">
      <component glyphName="I" x="0" y="0" flags="0x4"/>
      <component glyphName="J" x="536" y="0" flags="0x4"/>
    </TTGlyph>
    <TTGlyph name="Iacute" xMin="116" yMin="0" xMax="587" yMax="1922">
      <component glyphName="I" x="0" y="0" flags="0x204"/>
      <component glyphName="acute.cap" x="30" y="0" flags="0x4"/>
    </TTGlyph>
    <TTGlyph name="Ibreve" xMin="-73" yMin="0" xMax="614" yMax="1860">
      <component glyphName="I" x="0" y="0" flags="0x204"/>
      <component glyphName="breve.cap" x="-67" y="0" flags="0x4"/>
    </TTGlyph>
    <TTGlyph name="Icircumflex" xMin="-94" yMin="0" xMax="637" yMax="1849">
      <component glyphName="I" x="0" y="0" flags="0x204"/>
      <component glyphName="circumflex.cap" x="-67" y="0" flags="0x4"/>
    </TTGlyph>
    <TTGlyph name="Idieresis" xMin="-80" yMin="0" xMax="620" yMax="1742">
      <component glyphName="I" x="0" y="0" flags="0x204"/>
      <component glyphName="dieresis.cap" x="29" y="0" flags="0x4"/>
    </TTGlyph>
    <TTGlyph name="Idotaccent" xMin="133" yMin="0" xMax="407" yMax="1744">
      <component glyphName="I" x="0" y="0" flags="0x204"/>
      <component glyphName="dotaccent.cap" x="30" y="0" flags="0x4"/>
    </TTGlyph>
    <TTGlyph name="Igrave" xMin="-46" yMin="0" xMax="425" yMax="1922">
      <component glyphName="I" x="0" y="0" flags="0x204"/>
      <component glyphName="grave.cap" x="30" y="0" flags="0x4"/>
    </TTGlyph>
    <TTGlyph name="Imacron" xMin="-67" yMin="0" xMax="601" yMax="1713">
      <component glyphName="I" x="0" y="0" flags="0x204"/>
      <component glyphName="macron.cap" x="-238" y="0" flags="0x4"/>
    </TTGlyph>
    <TTGlyph name="Iogonek" xMin="34" yMin="-354" xMax="414" yMax="1358">
      <contour>
        <pt x="276" y="0" on="1"/>
        <pt x="247" y="-11" on="0"/>
        <pt x="211" y="-57" on="0"/>
        <pt x="211" y="-94" on="1"/>
        <pt x="211" y="-124" on="0"/>
        <pt x="275" y="-160" on="0"/>
        <pt x="332" y="-160" on="1"/>
        <pt x="352" y="-160" on="0"/>
        <pt x="381" y="-156" on="0"/>
        <pt x="398" y="-151" on="1"/>
        <pt x="407" y="-183" on="0"/>
        <pt x="414" y="-232" on="0"/>
        <pt x="414" y="-253" on="1"/>
        <pt x="414" y="-274" on="0"/>
        <pt x="409" y="-308" on="0"/>
        <pt x="407" y="-319" on="1"/>
        <pt x="404" y="-333" on="0"/>
        <pt x="401" y="-343" on="1"/>
        <pt x="390" y="-346" on="0"/>
        <pt x="377" y="-349" on="1"/>
        <pt x="352" y="-354" on="0"/>
        <pt x="316" y="-354" on="1"/>
        <pt x="248" y="-354" on="0"/>
        <pt x="143" y="-321" on="0"/>
        <pt x="71" y="-262" on="0"/>
        <pt x="34" y="-181" on="0"/>
        <pt x="34" y="-133" on="1"/>
        <pt x="34" y="-108" on="0"/>
        <pt x="48" y="-54" on="0"/>
        <pt x="78" y="-1" on="0"/>
        <pt x="125" y="50" on="0"/>
        <pt x="158" y="71" on="1"/>
        <pt x="158" y="1358" on="1"/>
        <pt x="384" y="1358" on="1"/>
        <pt x="384" y="0" on="1"/>
      </contour>
    </TTGlyph>
    <TTGlyph name="Itilde" xMin="-79" yMin="0" xMax="618" yMax="1796">
      <component glyphName="I" x="0" y="0" flags="0x204"/>
      <component glyphName="tilde.cap" x="-70" y="0" flags="0x4"/>
    </TTGlyph>
    <TTGlyph name="J" xMin="40" yMin="-268" xMax="450" yMax="1358">
      <contour>
        <pt x="223" y="1358" on="1"/>
        <pt x="450" y="1358" on="1"/>
        <pt x="450" y="123" on="1"/>
        <pt x="450" y="42" on="0"/>
        <pt x="413" y="-86" on="0"/>
        <pt x="332" y="-182" on="0"/>
        <pt x="205" y="-248" on="0"/>
        <pt x="116" y="-268" on="1"/>
        <pt x="97" y="-239" on="0"/>
        <pt x="69" y="-180" on="0"/>
        <pt x="59" y="-156" on="1"/>
        <pt x="48" y="-128" on="0"/>
        <pt x="40" y="-102" on="1"/>
        <pt x="84" y="-93" on="0"/>
        <pt x="152" y="-57" on="0"/>
        <pt x="199" y="6" on="0"/>
        <pt x="223" y="102" on="0"/>
        <pt x="223" y="172" on="1"/>
      </contour>
    </TTGlyph>
    <TTGlyph name="Jcircumflex" xMin="-30" yMin="-268" xMax="701" yMax="1849">
      <component glyphName="J" x="0" y="0" flags="0x204"/>
      <component glyphName="circumflex.cap" x="-3" y="0" flags="0x4"/>
    </TTGlyph>
    <TTGlyph name="K" xMin="158" yMin="0" xMax="1132" yMax="1358">
      <contour>
        <pt x="158" y="1358" on="1"/>
        <pt x="385" y="1358" on="1"/>
        <pt x="385" y="763" on="1"/>
        <pt x="405" y="763" on="1"/>
        <pt x="832" y="1358" on="1"/>
        <pt x="1104" y="1358" on="1"/>
        <pt x="590" y="695" on="1"/>
        <pt x="1132" y="0" on="1"/>
        <pt x="854" y="0" on="1"/>
        <pt x="397" y="627" on="1"/>
        <pt x="385" y="627" on="1"/>
        <pt x="385" y="0" on="1"/>
        <pt x="158" y="0" on="1"/>
      </contour>
    </TTGlyph>
    <TTGlyph name="Kcommaaccent" xMin="158" yMin="-507" xMax="1132" yMax="1358">
      <component glyphName="K" x="0" y="0" flags="0x204"/>
      <component glyphName="commaaccent" x="405" y="0" flags="0x4"/>
    </TTGlyph>
    <TTGlyph name="L" xMin="158" yMin="0" xMax="915" yMax="1358">
      <contour>
        <pt x="158" y="1358" on="1"/>
        <pt x="385" y="1358" on="1"/>
        <pt x="385" y="188" on="1"/>
        <pt x="427" y="188" on="0"/>
        <pt x="518" y="190" on="0"/>
        <pt x="609" y="192" on="0"/>
        <pt x="696" y="195" on="0"/>
        <pt x="735" y="197" on="1"/>
        <pt x="827" y="201" on="0"/>
        <pt x="915" y="205" on="1"/>
        <pt x="915" y="188" on="0"/>
        <pt x="906" y="120" on="0"/>
        <pt x="894" y="51" on="0"/>
        <pt x="883" y="0" on="0"/>
        <pt x="880" y="0" on="1"/>
        <pt x="158" y="0" on="1"/>
      </contour>
    </TTGlyph>
    <TTGlyph name="Lacute" xMin="158" yMin="0" xMax="915" yMax="1922">
      <component glyphName="L" x="0" y="0" flags="0x204"/>
      <component glyphName="acute.cap" x="163" y="0" flags="0x4"/>
    </TTGlyph>
    <TTGlyph name="Lcaron" xMin="158" yMin="13" xMax="915" yMax="1441">
      <contour>
        <pt x="556" y="1020" on="1"/>
        <pt x="564" y="1048" on="0"/>
        <pt x="570" y="1081" on="1"/>
        <pt x="575" y="1110" on="0"/>
        <pt x="584" y="1186" on="0"/>
        <pt x="584" y="1231" on="1"/>
        <pt x="584" y="1273" on="0"/>
        <pt x="572" y="1366" on="0"/>
        <pt x="557" y="1414" on="1"/>
        <pt x="558" y="1414" on="0"/>
        <pt x="582" y="1423" on="0"/>
        <pt x="618" y="1433" on="0"/>
        <pt x="662" y="1441" on="0"/>
        <pt x="684" y="1441" on="1"/>
        <pt x="709" y="1441" on="0"/>
        <pt x="762" y="1429" on="0"/>
        <pt x="789" y="1411" on="1"/>
        <pt x="794" y="1385" on="0"/>
        <pt x="799" y="1332" on="0"/>
        <pt x="799" y="1306" on="1"/>
        <pt x="799" y="1242" on="0"/>
        <pt x="772" y="1130" on="0"/>
        <pt x="756" y="1088" on="1"/>
        <pt x="738" y="1039" on="0"/>
        <pt x="714" y="998" on="1"/>
        <pt x="702" y="995" on="0"/>
        <pt x="691" y="992" on="1"/>
        <pt x="681" y="990" on="0"/>
        <pt x="657" y="986" on="0"/>
        <pt x="645" y="986" on="1"/>
        <pt x="626" y="986" on="0"/>
        <pt x="584" y="994" on="0"/>
        <pt x="566" y="1006" on="1"/>
      </contour>
      <contour>
        <pt x="158" y="1371" on="1"/>
        <pt x="385" y="1371" on="1"/>
        <pt x="385" y="201" on="1"/>
        <pt x="427" y="201" on="0"/>
        <pt x="518" y="203" on="0"/>
        <pt x="609" y="205" on="0"/>
        <pt x="696" y="208" on="0"/>
        <pt x="735" y="210" on="1"/>
        <pt x="827" y="214" on="0"/>
        <pt x="915" y="218" on="1"/>
        <pt x="915" y="201" on="0"/>
        <pt x="906" y="133" on="0"/>
        <pt x="894" y="64" on="0"/>
        <pt x="883" y="13" on="0"/>
        <pt x="880" y="13" on="1"/>
        <pt x="158" y="13" on="1"/>
      </contour>
    </TTGlyph>
    <TTGlyph name="Lcommaaccent" xMin="158" yMin="-507" xMax="915" yMax="1358">
      <component glyphName="L" x="0" y="0" flags="0x204"/>
      <component glyphName="commaaccent" x="313" y="0" flags="0x4"/>
    </TTGlyph>
    <TTGlyph name="Ldot" xMin="158" yMin="0" xMax="957" yMax="1358">
      <component glyphName="L" x="0" y="0" flags="0x4"/>
      <component glyphName="periodcentered" x="583" y="169" flags="0x4"/>
    </TTGlyph>
    <TTGlyph name="Lslash" xMin="-5" yMin="0" xMax="915" yMax="1358">
      <contour>
        <pt x="-5" y="621" on="1"/>
        <pt x="158" y="677" on="1"/>
        <pt x="158" y="1358" on="1"/>
        <pt x="385" y="1358" on="1"/>
        <pt x="385" y="757" on="1"/>
        <pt x="731" y="877" on="1"/>
        <pt x="731" y="708" on="1"/>
        <pt x="385" y="588" on="1"/>
        <pt x="385" y="188" on="1"/>
        <pt x="427" y="188" on="0"/>
        <pt x="518" y="190" on="0"/>
        <pt x="609" y="192" on="0"/>
        <pt x="696" y="195" on="0"/>
        <pt x="735" y="197" on="1"/>
        <pt x="827" y="201" on="0"/>
        <pt x="915" y="205" on="1"/>
        <pt x="915" y="188" on="0"/>
        <pt x="906" y="120" on="0"/>
        <pt x="894" y="51" on="0"/>
        <pt x="883" y="0" on="0"/>
        <pt x="880" y="0" on="1"/>
        <pt x="158" y="0" on="1"/>
        <pt x="158" y="508" on="1"/>
        <pt x="-5" y="452" on="1"/>
      </contour>
    </TTGlyph>
    <TTGlyph name="M" xMin="108" yMin="0" xMax="1468" yMax="1358">
      <contour>
        <pt x="179" y="1358" on="1"/>
        <pt x="520" y="1358" on="1"/>
        <pt x="716" y="680" on="1"/>
        <pt x="789" y="388" on="1"/>
        <pt x="862" y="680" on="1"/>
        <pt x="1053" y="1358" on="1"/>
        <pt x="1394" y="1358" on="1"/>
        <pt x="1468" y="0" on="1"/>
        <pt x="1251" y="0" on="1"/>
        <pt x="1210" y="982" on="1"/>
        <pt x="1215" y="1245" on="1"/>
        <pt x="1192" y="1176" on="0"/>
        <pt x="1143" y="1010" on="0"/>
        <pt x="1092" y="831" on="0"/>
        <pt x="1041" y="646" on="0"/>
        <pt x="990" y="467" on="0"/>
        <pt x="941" y="302" on="0"/>
        <pt x="918" y="234" on="1"/>
        <pt x="661" y="234" on="1"/>
        <pt x="355" y="1248" on="1"/>
        <pt x="359" y="978" on="1"/>
        <pt x="325" y="0" on="1"/>
        <pt x="108" y="0" on="1"/>
      </contour>
    </TTGlyph>
    <TTGlyph name="N" xMin="158" yMin="0" xMax="1193" yMax="1358">
      <contour>
        <pt x="158" y="1358" on="1"/>
        <pt x="517" y="1358" on="1"/>
        <pt x="860" y="510" on="1"/>
        <pt x="997" y="124" on="1"/>
        <pt x="984" y="510" on="1"/>
        <pt x="977" y="1358" on="1"/>
        <pt x="1193" y="1358" on="1"/>
        <pt x="1193" y="0" on="1"/>
        <pt x="843" y="0" on="1"/>
        <pt x="492" y="850" on="1"/>
        <pt x="355" y="1242" on="1"/>
        <pt x="368" y="850" on="1"/>
        <pt x="375" y="0" on="1"/>
        <pt x="158" y="0" on="1"/>
      </contour>
    </TTGlyph>
    <TTGlyph name="Nacute" xMin="158" yMin="0" xMax="1193" yMax="1922">
      <component glyphName="N" x="0" y="0" flags="0x204"/>
      <component glyphName="acute.cap" x="439" y="0" flags="0x4"/>
    </TTGlyph>
    <TTGlyph name="Ncaron" xMin="158" yMin="0" xMax="1193" yMax="1848">
      <component glyphName="N" x="0" y="0" flags="0x204"/>
      <component glyphName="caron.cap" x="342" y="0" flags="0x4"/>
    </TTGlyph>
    <TTGlyph name="Ncommaaccent" xMin="158" yMin="-507" xMax="1193" yMax="1358">
      <component glyphName="N" x="0" y="0" flags="0x204"/>
      <component glyphName="commaaccent" x="426" y="0" flags="0x4"/>
    </TTGlyph>
    <TTGlyph name="Ntilde" xMin="158" yMin="0" xMax="1193" yMax="1796">
      <component glyphName="N" x="0" y="0" flags="0x204"/>
      <component glyphName="tilde.cap" x="339" y="0" flags="0x4"/>
    </TTGlyph>
    <TTGlyph name="O" xMin="83" yMin="-26" xMax="1207" yMax="1384">
      <contour>
        <pt x="649" y="-26" on="1"/>
        <pt x="499" y="-26" on="0"/>
        <pt x="284" y="71" on="0"/>
        <pt x="147" y="254" on="0"/>
        <pt x="83" y="515" on="0"/>
        <pt x="83" y="679" on="1"/>
        <pt x="83" y="843" on="0"/>
        <pt x="150" y="1105" on="0"/>
        <pt x="289" y="1287" on="0"/>
        <pt x="503" y="1384" on="0"/>
        <pt x="649" y="1384" on="1"/>
        <pt x="802" y="1384" on="0"/>
        <pt x="1014" y="1293" on="0"/>
        <pt x="1147" y="1117" on="0"/>
        <pt x="1207" y="862" on="0"/>
        <pt x="1207" y="698" on="1"/>
        <pt x="1207" y="533" on="0"/>
        <pt x="1143" y="266" on="0"/>
        <pt x="1007" y="77" on="0"/>
        <pt x="796" y="-26" on="0"/>
      </contour>
      <contour>
        <pt x="649" y="149" on="1"/>
        <pt x="744" y="149" on="0"/>
        <pt x="871" y="229" on="0"/>
        <pt x="948" y="374" on="0"/>
        <pt x="981" y="576" on="0"/>
        <pt x="981" y="698" on="1"/>
        <pt x="981" y="829" on="0"/>
        <pt x="948" y="1022" on="0"/>
        <pt x="871" y="1149" on="0"/>
        <pt x="744" y="1211" on="0"/>
        <pt x="649" y="1211" on="1"/>
        <pt x="554" y="1211" on="0"/>
        <pt x="423" y="1140" on="0"/>
        <pt x="343" y="1003" on="0"/>
        <pt x="308" y="805" on="0"/>
        <pt x="308" y="679" on="1"/>
        <pt x="308" y="553" on="0"/>
        <pt x="343" y="355" on="0"/>
        <pt x="423" y="220" on="0"/>
        <pt x="554" y="149" on="0"/>
      </contour>
    </TTGlyph>
    <TTGlyph name="OE" xMin="83" yMin="-26" xMax="1782" yMax="1384">
      <contour>
        <pt x="659" y="-26" on="1"/>
        <pt x="509" y="-26" on="0"/>
        <pt x="291" y="71" on="0"/>
        <pt x="150" y="254" on="0"/>
        <pt x="83" y="515" on="0"/>
        <pt x="83" y="679" on="1"/>
        <pt x="83" y="843" on="0"/>
        <pt x="154" y="1105" on="0"/>
        <pt x="297" y="1287" on="0"/>
        <pt x="513" y="1384" on="0"/>
        <pt x="659" y="1384" on="1"/>
        <pt x="774" y="1384" on="0"/>
        <pt x="937" y="1328" on="0"/>
        <pt x="992" y="1276" on="1"/>
        <pt x="992" y="1358" on="1"/>
        <pt x="1771" y="1358" on="1"/>
        <pt x="1771" y="1351" on="0"/>
        <pt x="1772" y="1343" on="1"/>
        <pt x="1773" y="1336" on="0"/>
        <pt x="1774" y="1319" on="0"/>
        <pt x="1774" y="1309" on="1"/>
        <pt x="1774" y="1292" on="0"/>
        <pt x="1761" y="1222" on="0"/>
        <pt x="1739" y="1177" on="1"/>
        <pt x="1655" y="1179" on="0"/>
        <pt x="1565" y="1181" on="1"/>
        <pt x="1488" y="1183" on="0"/>
        <pt x="1303" y="1186" on="0"/>
        <pt x="1215" y="1186" on="1"/>
        <pt x="1215" y="785" on="1"/>
        <pt x="1244" y="785" on="0"/>
        <pt x="1319" y="786" on="0"/>
        <pt x="1401" y="787" on="0"/>
        <pt x="1486" y="789" on="0"/>
        <pt x="1526" y="790" on="1"/>
        <pt x="1619" y="792" on="0"/>
        <pt x="1719" y="794" on="1"/>
        <pt x="1719" y="783" on="0"/>
        <pt x="1720" y="772" on="1"/>
        <pt x="1721" y="762" on="0"/>
        <pt x="1722" y="738" on="0"/>
        <pt x="1722" y="727" on="1"/>
        <pt x="1722" y="718" on="0"/>
        <pt x="1713" y="671" on="0"/>
        <pt x="1697" y="617" on="1"/>
        <pt x="1598" y="617" on="0"/>
        <pt x="1506" y="618" on="1"/>
        <pt x="1467" y="618" on="0"/>
        <pt x="1385" y="618" on="0"/>
        <pt x="1308" y="619" on="0"/>
        <pt x="1240" y="619" on="0"/>
        <pt x="1215" y="619" on="1"/>
        <pt x="1215" y="171" on="1"/>
        <pt x="1303" y="171" on="0"/>
        <pt x="1499" y="176" on="0"/>
        <pt x="1584" y="179" on="1"/>
        <pt x="1683" y="183" on="0"/>
        <pt x="1779" y="186" on="1"/>
        <pt x="1779" y="175" on="0"/>
        <pt x="1780" y="164" on="1"/>
        <pt x="1781" y="154" on="0"/>
        <pt x="1782" y="129" on="0"/>
        <pt x="1782" y="118" on="1"/>
        <pt x="1782" y="97" on="0"/>
        <pt x="1776" y="39" on="0"/>
        <pt x="1766" y="0" on="1"/>
        <pt x="992" y="0" on="1"/>
        <pt x="992" y="100" on="1"/>
        <pt x="936" y="44" on="0"/>
        <pt x="768" y="-26" on="0"/>
      </contour>
      <contour>
        <pt x="659" y="159" on="1"/>
        <pt x="750" y="159" on="0"/>
        <pt x="877" y="241" on="0"/>
        <pt x="957" y="386" on="0"/>
        <pt x="992" y="583" on="0"/>
        <pt x="992" y="698" on="1"/>
        <pt x="992" y="822" on="0"/>
        <pt x="957" y="1010" on="0"/>
        <pt x="877" y="1136" on="0"/>
        <pt x="750" y="1200" on="0"/>
        <pt x="659" y="1200" on="1"/>
        <pt x="568" y="1200" on="0"/>
        <pt x="439" y="1126" on="0"/>
        <pt x="357" y="990" on="0"/>
        <pt x="319" y="798" on="0"/>
        <pt x="319" y="679" on="1"/>
        <pt x="319" y="560" on="0"/>
        <pt x="357" y="368" on="0"/>
        <pt x="439" y="232" on="0"/>
        <pt x="568" y="159" on="0"/>
      </contour>
    </TTGlyph>
    <TTGlyph name="Oacute" xMin="83" yMin="-26" xMax="1207" yMax="1922">
      <component glyphName="O" x="0" y="0" flags="0x204"/>
      <component glyphName="acute.cap" x="408" y="0" flags="0x4"/>
    </TTGlyph>
    <TTGlyph name="Obreve" xMin="83" yMin="-26" xMax="1207" yMax="1860">
      <component glyphName="O" x="0" y="0" flags="0x204"/>
      <component glyphName="breve.cap" x="311" y="0" flags="0x4"/>
    </TTGlyph>
    <TTGlyph name="Ocircumflex" xMin="83" yMin="-26" xMax="1207" yMax="1849">
      <component glyphName="O" x="0" y="0" flags="0x204"/>
      <component glyphName="circumflex.cap" x="311" y="0" flags="0x4"/>
    </TTGlyph>
    <TTGlyph name="Odieresis" xMin="83" yMin="-26" xMax="1207" yMax="1742">
      <component glyphName="O" x="0" y="0" flags="0x204"/>
      <component glyphName="dieresis.cap" x="407" y="0" flags="0x4"/>
    </TTGlyph>
    <TTGlyph name="Ograve" xMin="83" yMin="-26" xMax="1207" yMax="1922">
      <component glyphName="O" x="0" y="0" flags="0x204"/>
      <component glyphName="grave.cap" x="408" y="0" flags="0x4"/>
    </TTGlyph>
    <TTGlyph name="Ohungarumlaut" xMin="83" yMin="-26" xMax="1207" yMax="1923">
      <component glyphName="O" x="0" y="0" flags="0x204"/>
      <component glyphName="hungarumlaut.cap" x="311" y="0" flags="0x4"/>
    </TTGlyph>
    <TTGlyph name="Omacron" xMin="83" yMin="-26" xMax="1207" yMax="1713">
      <component glyphName="O" x="0" y="0" flags="0x204"/>
      <component glyphName="macron.cap" x="140" y="0" flags="0x4"/>
    </TTGlyph>
    <TTGlyph name="Omega" xMin="85" yMin="0" xMax="1433" yMax="1441">
      <contour>
        <pt x="115" y="0" on="1"/>
        <pt x="101" y="21" on="0"/>
        <pt x="88" y="72" on="0"/>
        <pt x="86" y="96" on="1"/>
        <pt x="88" y="93" on="0"/>
        <pt x="92" y="121" on="0"/>
        <pt x="94" y="139" on="1"/>
        <pt x="97" y="160" on="0"/>
        <pt x="100" y="188" on="1"/>
        <pt x="164" y="179" on="0"/>
        <pt x="231" y="172" on="1"/>
        <pt x="288" y="166" on="0"/>
        <pt x="425" y="156" on="0"/>
        <pt x="489" y="156" on="1"/>
        <pt x="489" y="195" on="0"/>
        <pt x="434" y="265" on="0"/>
        <pt x="351" y="343" on="0"/>
        <pt x="255" y="440" on="0"/>
        <pt x="172" y="572" on="0"/>
        <pt x="117" y="750" on="0"/>
        <pt x="117" y="871" on="1"/>
        <pt x="117" y="1011" on="0"/>
        <pt x="226" y="1224" on="0"/>
        <pt x="406" y="1368" on="0"/>
        <pt x="637" y="1441" on="0"/>
        <pt x="759" y="1441" on="1"/>
        <pt x="838" y="1441" on="0"/>
        <pt x="995" y="1410" on="0"/>
        <pt x="1138" y="1348" on="0"/>
        <pt x="1260" y="1253" on="0"/>
        <pt x="1350" y="1127" on="0"/>
        <pt x="1401" y="967" on="0"/>
        <pt x="1401" y="871" on="1"/>
        <pt x="1401" y="742" on="0"/>
        <pt x="1345" y="558" on="0"/>
        <pt x="1262" y="426" on="0"/>
        <pt x="1165" y="334" on="0"/>
        <pt x="1082" y="261" on="0"/>
        <pt x="1026" y="195" on="0"/>
        <pt x="1026" y="156" on="1"/>
        <pt x="1089" y="158" on="0"/>
        <pt x="1230" y="170" on="0"/>
        <pt x="1290" y="178" on="1"/>
        <pt x="1360" y="187" on="0"/>
        <pt x="1429" y="198" on="1"/>
        <pt x="1430" y="185" on="0"/>
        <pt x="1431" y="174" on="1"/>
        <pt x="1432" y="164" on="0"/>
        <pt x="1433" y="142" on="0"/>
        <pt x="1433" y="133" on="1"/>
        <pt x="1433" y="104" on="0"/>
        <pt x="1421" y="31" on="0"/>
        <pt x="1403" y="0" on="1"/>
        <pt x="871" y="0" on="1"/>
        <pt x="851" y="227" on="1"/>
        <pt x="851" y="251" on="0"/>
        <pt x="899" y="299" on="0"/>
        <pt x="971" y="364" on="0"/>
        <pt x="1055" y="452" on="0"/>
        <pt x="1127" y="579" on="0"/>
        <pt x="1175" y="753" on="0"/>
        <pt x="1175" y="871" on="1"/>
        <pt x="1175" y="968" on="0"/>
        <pt x="1105" y="1117" on="0"/>
        <pt x="989" y="1217" on="0"/>
        <pt x="839" y="1269" on="0"/>
        <pt x="759" y="1269" on="1"/>
        <pt x="679" y="1269" on="0"/>
        <pt x="529" y="1220" on="0"/>
        <pt x="412" y="1121" on="0"/>
        <pt x="341" y="972" on="0"/>
        <pt x="341" y="871" on="1"/>
        <pt x="341" y="753" on="0"/>
        <pt x="389" y="579" on="0"/>
        <pt x="462" y="452" on="0"/>
        <pt x="547" y="363" on="0"/>
        <pt x="620" y="298" on="0"/>
        <pt x="668" y="249" on="0"/>
        <pt x="668" y="225" on="1"/>
        <pt x="657" y="0" on="1"/>
      </contour>
      <contour>
        <pt x="86" y="96" on="1"/>
        <pt x="86" y="98" on="0"/>
        <pt x="85" y="110" on="0"/>
        <pt x="85" y="122" on="1"/>
        <pt x="85" y="116" on="0"/>
        <pt x="86" y="103" on="0"/>
      </contour>
    </TTGlyph>
    <TTGlyph name="Omegagreek" xMin="85" yMin="0" xMax="1433" yMax="1441">
      <component glyphName="Omega" x="0" y="0" flags="0x204"/>
    </TTGlyph>
    <TTGlyph name="Oslash" xMin="83" yMin="-180" xMax="1207" yMax="1520">
      <contour>
        <pt x="649" y="-26" on="1"/>
        <pt x="577" y="-26" on="0"/>
        <pt x="454" y="-3" on="0"/>
        <pt x="401" y="18" on="1"/>
        <pt x="307" y="-180" on="1"/>
        <pt x="290" y="-176" on="0"/>
        <pt x="272" y="-168" on="1"/>
        <pt x="256" y="-161" on="0"/>
        <pt x="216" y="-137" on="0"/>
        <pt x="196" y="-117" on="1"/>
        <pt x="292" y="83" on="1"/>
        <pt x="183" y="171" on="0"/>
        <pt x="83" y="473" on="0"/>
        <pt x="83" y="679" on="1"/>
        <pt x="83" y="843" on="0"/>
        <pt x="150" y="1105" on="0"/>
        <pt x="289" y="1287" on="0"/>
        <pt x="503" y="1384" on="0"/>
        <pt x="649" y="1384" on="1"/>
        <pt x="777" y="1384" on="0"/>
        <pt x="877" y="1350" on="1"/>
        <pt x="958" y="1520" on="1"/>
        <pt x="978" y="1517" on="0"/>
        <pt x="997" y="1509" on="1"/>
        <pt x="1014" y="1502" on="0"/>
        <pt x="1051" y="1478" on="0"/>
        <pt x="1066" y="1458" on="1"/>
        <pt x="988" y="1294" on="1"/>
        <pt x="1105" y="1213" on="0"/>
        <pt x="1207" y="910" on="0"/>
        <pt x="1207" y="698" on="1"/>
        <pt x="1207" y="533" on="0"/>
        <pt x="1143" y="266" on="0"/>
        <pt x="1007" y="77" on="0"/>
        <pt x="796" y="-26" on="0"/>
      </contour>
      <contour>
        <pt x="649" y="149" on="1"/>
        <pt x="744" y="149" on="0"/>
        <pt x="871" y="229" on="0"/>
        <pt x="948" y="374" on="0"/>
        <pt x="981" y="576" on="0"/>
        <pt x="981" y="698" on="1"/>
        <pt x="981" y="844" on="0"/>
        <pt x="941" y="1048" on="0"/>
        <pt x="892" y="1111" on="1"/>
        <pt x="477" y="191" on="1"/>
        <pt x="546" y="149" on="0"/>
      </contour>
      <contour>
        <pt x="308" y="679" on="1"/>
        <pt x="308" y="544" on="0"/>
        <pt x="347" y="340" on="0"/>
        <pt x="393" y="271" on="1"/>
        <pt x="807" y="1180" on="1"/>
        <pt x="775" y="1195" on="0"/>
        <pt x="697" y="1211" on="0"/>
        <pt x="649" y="1211" on="1"/>
        <pt x="554" y="1211" on="0"/>
        <pt x="423" y="1140" on="0"/>
        <pt x="343" y="1003" on="0"/>
        <pt x="308" y="805" on="0"/>
      </contour>
    </TTGlyph>
    <TTGlyph name="Otilde" xMin="83" yMin="-26" xMax="1207" yMax="1796">
      <component glyphName="O" x="0" y="0" flags="0x204"/>
      <component glyphName="tilde.cap" x="308" y="0" flags="0x4"/>
    </TTGlyph>
    <TTGlyph name="P" xMin="158" yMin="0" xMax="1048" yMax="1358">
      <contour>
        <pt x="158" y="1358" on="1"/>
        <pt x="623" y="1358" on="1"/>
        <pt x="723" y="1358" on="0"/>
        <pt x="881" y="1303" on="0"/>
        <pt x="991" y="1198" on="0"/>
        <pt x="1048" y="1047" on="0"/>
        <pt x="1048" y="951" on="1"/>
        <pt x="1048" y="864" on="0"/>
        <pt x="987" y="705" on="0"/>
        <pt x="866" y="582" on="0"/>
        <pt x="686" y="509" on="0"/>
        <pt x="567" y="509" on="1"/>
        <pt x="529" y="509" on="0"/>
        <pt x="463" y="511" on="0"/>
        <pt x="438" y="513" on="1"/>
        <pt x="409" y="515" on="0"/>
        <pt x="385" y="518" on="1"/>
        <pt x="385" y="0" on="1"/>
        <pt x="158" y="0" on="1"/>
      </contour>
      <contour>
        <pt x="385" y="687" on="1"/>
        <pt x="400" y="685" on="0"/>
        <pt x="460" y="680" on="0"/>
        <pt x="502" y="680" on="1"/>
        <pt x="570" y="680" on="0"/>
        <pt x="685" y="708" on="0"/>
        <pt x="769" y="769" on="0"/>
        <pt x="816" y="867" on="0"/>
        <pt x="816" y="937" on="1"/>
        <pt x="816" y="993" on="0"/>
        <pt x="793" y="1084" on="0"/>
        <pt x="744" y="1149" on="0"/>
        <pt x="666" y="1184" on="0"/>
        <pt x="611" y="1184" on="1"/>
        <pt x="385" y="1184" on="1"/>
      </contour>
    </TTGlyph>
    <TTGlyph name="Q" xMin="83" yMin="-280" xMax="1246" yMax="1384">
      <contour>
        <pt x="659" y="-26" on="1"/>
        <pt x="505" y="-26" on="0"/>
        <pt x="286" y="71" on="0"/>
        <pt x="147" y="254" on="0"/>
        <pt x="83" y="515" on="0"/>
        <pt x="83" y="679" on="1"/>
        <pt x="83" y="843" on="0"/>
        <pt x="151" y="1105" on="0"/>
        <pt x="291" y="1287" on="0"/>
        <pt x="506" y="1384" on="0"/>
        <pt x="652" y="1384" on="1"/>
        <pt x="805" y="1384" on="0"/>
        <pt x="1016" y="1293" on="0"/>
        <pt x="1148" y="1117" on="0"/>
        <pt x="1207" y="862" on="0"/>
        <pt x="1207" y="698" on="1"/>
        <pt x="1207" y="467" on="0"/>
        <pt x="1088" y="147" on="0"/>
        <pt x="962" y="60" on="1"/>
        <pt x="962" y="43" on="1"/>
        <pt x="1010" y="14" on="0"/>
        <pt x="1110" y="-40" on="0"/>
        <pt x="1152" y="-62" on="1"/>
        <pt x="1200" y="-88" on="0"/>
        <pt x="1246" y="-110" on="1"/>
        <pt x="1233" y="-148" on="0"/>
        <pt x="1187" y="-209" on="0"/>
        <pt x="1164" y="-232" on="1"/>
        <pt x="1137" y="-258" on="0"/>
        <pt x="1107" y="-280" on="1"/>
        <pt x="1048" y="-246" on="0"/>
        <pt x="945" y="-175" on="0"/>
        <pt x="853" y="-107" on="0"/>
        <pt x="772" y="-46" on="0"/>
        <pt x="736" y="-21" on="1"/>
        <pt x="729" y="-22" on="0"/>
        <pt x="708" y="-24" on="0"/>
        <pt x="685" y="-25" on="0"/>
        <pt x="665" y="-26" on="0"/>
      </contour>
      <contour>
        <pt x="652" y="149" on="1"/>
        <pt x="747" y="149" on="0"/>
        <pt x="872" y="229" on="0"/>
        <pt x="946" y="374" on="0"/>
        <pt x="976" y="576" on="0"/>
        <pt x="976" y="698" on="1"/>
        <pt x="976" y="829" on="0"/>
        <pt x="946" y="1023" on="0"/>
        <pt x="872" y="1150" on="0"/>
        <pt x="747" y="1212" on="0"/>
        <pt x="652" y="1212" on="1"/>
        <pt x="557" y="1212" on="0"/>
        <pt x="427" y="1143" on="0"/>
        <pt x="347" y="1008" on="0"/>
        <pt x="313" y="809" on="0"/>
        <pt x="313" y="679" on="1"/>
        <pt x="313" y="553" on="0"/>
        <pt x="347" y="355" on="0"/>
        <pt x="427" y="220" on="0"/>
        <pt x="557" y="149" on="0"/>
      </contour>
    </TTGlyph>
    <TTGlyph name="R" xMin="158" yMin="0" xMax="1112" yMax="1358">
      <contour>
        <pt x="158" y="1358" on="1"/>
        <pt x="634" y="1358" on="1"/>
        <pt x="734" y="1358" on="0"/>
        <pt x="888" y="1303" on="0"/>
        <pt x="991" y="1202" on="0"/>
        <pt x="1044" y="1059" on="0"/>
        <pt x="1044" y="971" on="1"/>
        <pt x="1044" y="907" on="0"/>
        <pt x="1012" y="792" on="0"/>
        <pt x="947" y="695" on="0"/>
        <pt x="846" y="619" on="0"/>
        <pt x="777" y="595" on="1"/>
        <pt x="815" y="522" on="0"/>
        <pt x="901" y="372" on="0"/>
        <pt x="988" y="222" on="0"/>
        <pt x="1074" y="72" on="0"/>
        <pt x="1112" y="0" on="1"/>
        <pt x="868" y="0" on="1"/>
        <pt x="571" y="561" on="1"/>
        <pt x="557" y="561" on="1"/>
        <pt x="528" y="561" on="0"/>
        <pt x="465" y="566" on="0"/>
        <pt x="438" y="569" on="1"/>
        <pt x="406" y="573" on="0"/>
        <pt x="376" y="578" on="1"/>
        <pt x="376" y="0" on="1"/>
        <pt x="158" y="0" on="1"/>
      </contour>
      <contour>
        <pt x="376" y="739" on="1"/>
        <pt x="385" y="738" on="0"/>
        <pt x="426" y="735" on="0"/>
        <pt x="477" y="733" on="0"/>
        <pt x="536" y="732" on="0"/>
        <pt x="563" y="732" on="1"/>
        <pt x="690" y="732" on="0"/>
        <pt x="815" y="847" on="0"/>
        <pt x="815" y="967" on="1"/>
        <pt x="815" y="1072" on="0"/>
        <pt x="702" y="1184" on="0"/>
        <pt x="598" y="1184" on="1"/>
        <pt x="376" y="1184" on="1"/>
      </contour>
    </TTGlyph>
    <TTGlyph name="Racute" xMin="158" yMin="0" xMax="1112" yMax="1922">
      <component glyphName="R" x="0" y="0" flags="0x204"/>
      <component glyphName="acute.cap" x="384" y="0" flags="0x4"/>
    </TTGlyph>
    <TTGlyph name="Rcaron" xMin="158" yMin="0" xMax="1112" yMax="1848">
      <component glyphName="R" x="0" y="0" flags="0x204"/>
      <component glyphName="caron.cap" x="287" y="0" flags="0x4"/>
    </TTGlyph>
    <TTGlyph name="Rcommaaccent" xMin="158" yMin="-507" xMax="1112" yMax="1358">
      <component glyphName="R" x="0" y="0" flags="0x204"/>
      <component glyphName="commaaccent" x="333" y="0" flags="0x4"/>
    </TTGlyph>
    <TTGlyph name="S" xMin="107" yMin="-26" xMax="974" yMax="1384">
      <contour>
        <pt x="107" y="49" on="1"/>
        <pt x="109" y="72" on="0"/>
        <pt x="114" y="101" on="1"/>
        <pt x="119" y="125" on="0"/>
        <pt x="136" y="192" on="0"/>
        <pt x="153" y="231" on="1"/>
        <pt x="207" y="213" on="0"/>
        <pt x="263" y="199" on="1"/>
        <pt x="311" y="187" on="0"/>
        <pt x="425" y="167" on="0"/>
        <pt x="477" y="167" on="1"/>
        <pt x="556" y="167" on="0"/>
        <pt x="663" y="191" on="0"/>
        <pt x="728" y="238" on="0"/>
        <pt x="756" y="309" on="0"/>
        <pt x="756" y="356" on="1"/>
        <pt x="756" y="409" on="0"/>
        <pt x="727" y="483" on="0"/>
        <pt x="668" y="537" on="0"/>
        <pt x="576" y="575" on="0"/>
        <pt x="513" y="593" on="1"/>
        <pt x="403" y="623" on="0"/>
        <pt x="251" y="694" on="0"/>
        <pt x="156" y="786" on="0"/>
        <pt x="114" y="903" on="0"/>
        <pt x="114" y="978" on="1"/>
        <pt x="114" y="1086" on="0"/>
        <pt x="181" y="1240" on="0"/>
        <pt x="304" y="1338" on="0"/>
        <pt x="479" y="1384" on="0"/>
        <pt x="587" y="1384" on="1"/>
        <pt x="670" y="1384" on="0"/>
        <pt x="795" y="1358" on="0"/>
        <pt x="838" y="1343" on="1"/>
        <pt x="888" y="1325" on="0"/>
        <pt x="925" y="1302" on="1"/>
        <pt x="922" y="1279" on="0"/>
        <pt x="913" y="1252" on="1"/>
        <pt x="905" y="1229" on="0"/>
        <pt x="877" y="1167" on="0"/>
        <pt x="852" y="1131" on="1"/>
        <pt x="822" y="1151" on="0"/>
        <pt x="782" y="1167" on="1"/>
        <pt x="747" y="1181" on="0"/>
        <pt x="648" y="1204" on="0"/>
        <pt x="583" y="1204" on="1"/>
        <pt x="512" y="1204" on="0"/>
        <pt x="415" y="1182" on="0"/>
        <pt x="353" y="1135" on="0"/>
        <pt x="326" y="1064" on="0"/>
        <pt x="326" y="1015" on="1"/>
        <pt x="326" y="960" on="0"/>
        <pt x="354" y="887" on="0"/>
        <pt x="416" y="836" on="0"/>
        <pt x="515" y="798" on="0"/>
        <pt x="585" y="778" on="1"/>
        <pt x="690" y="749" on="0"/>
        <pt x="838" y="683" on="0"/>
        <pt x="931" y="595" on="0"/>
        <pt x="974" y="474" on="0"/>
        <pt x="974" y="389" on="1"/>
        <pt x="974" y="284" on="0"/>
        <pt x="920" y="129" on="0"/>
        <pt x="802" y="25" on="0"/>
        <pt x="616" y="-26" on="0"/>
        <pt x="485" y="-26" on="1"/>
        <pt x="407" y="-26" on="0"/>
        <pt x="269" y="-3" on="0"/>
        <pt x="218" y="11" on="1"/>
        <pt x="157" y="28" on="0"/>
      </contour>
    </TTGlyph>
    <TTGlyph name="Sacute" xMin="107" yMin="-26" xMax="974" yMax="1922">
      <component glyphName="S" x="0" y="0" flags="0x204"/>
      <component glyphName="acute.cap" x="303" y="0" flags="0x4"/>
    </TTGlyph>
    <TTGlyph name="Scaron" xMin="107" yMin="-26" xMax="974" yMax="1848">
      <component glyphName="S" x="0" y="0" flags="0x204"/>
      <component glyphName="caron.cap" x="206" y="0" flags="0x4"/>
    </TTGlyph>
    <TTGlyph name="Scedilla" xMin="107" yMin="-434" xMax="974" yMax="1384">
      <contour>
        <pt x="107" y="49" on="1"/>
        <pt x="109" y="72" on="0"/>
        <pt x="114" y="101" on="1"/>
        <pt x="119" y="125" on="0"/>
        <pt x="136" y="192" on="0"/>
        <pt x="153" y="231" on="1"/>
        <pt x="207" y="213" on="0"/>
        <pt x="263" y="199" on="1"/>
        <pt x="311" y="187" on="0"/>
        <pt x="425" y="167" on="0"/>
        <pt x="477" y="167" on="1"/>
        <pt x="556" y="167" on="0"/>
        <pt x="663" y="191" on="0"/>
        <pt x="728" y="238" on="0"/>
        <pt x="756" y="309" on="0"/>
        <pt x="756" y="356" on="1"/>
        <pt x="756" y="409" on="0"/>
        <pt x="727" y="483" on="0"/>
        <pt x="668" y="537" on="0"/>
        <pt x="576" y="575" on="0"/>
        <pt x="513" y="593" on="1"/>
        <pt x="403" y="623" on="0"/>
        <pt x="251" y="694" on="0"/>
        <pt x="156" y="786" on="0"/>
        <pt x="114" y="903" on="0"/>
        <pt x="114" y="978" on="1"/>
        <pt x="114" y="1086" on="0"/>
        <pt x="181" y="1240" on="0"/>
        <pt x="304" y="1338" on="0"/>
        <pt x="479" y="1384" on="0"/>
        <pt x="587" y="1384" on="1"/>
        <pt x="670" y="1384" on="0"/>
        <pt x="795" y="1358" on="0"/>
        <pt x="838" y="1343" on="1"/>
        <pt x="888" y="1325" on="0"/>
        <pt x="925" y="1302" on="1"/>
        <pt x="922" y="1279" on="0"/>
        <pt x="913" y="1252" on="1"/>
        <pt x="905" y="1229" on="0"/>
        <pt x="877" y="1167" on="0"/>
        <pt x="852" y="1131" on="1"/>
        <pt x="822" y="1151" on="0"/>
        <pt x="782" y="1167" on="1"/>
        <pt x="747" y="1181" on="0"/>
        <pt x="648" y="1204" on="0"/>
        <pt x="583" y="1204" on="1"/>
        <pt x="512" y="1204" on="0"/>
        <pt x="415" y="1182" on="0"/>
        <pt x="353" y="1135" on="0"/>
        <pt x="326" y="1064" on="0"/>
        <pt x="326" y="1015" on="1"/>
        <pt x="326" y="960" on="0"/>
        <pt x="354" y="887" on="0"/>
        <pt x="416" y="836" on="0"/>
        <pt x="515" y="798" on="0"/>
        <pt x="585" y="778" on="1"/>
        <pt x="690" y="749" on="0"/>
        <pt x="838" y="683" on="0"/>
        <pt x="931" y="595" on="0"/>
        <pt x="974" y="474" on="0"/>
        <pt x="974" y="389" on="1"/>
        <pt x="974" y="213" on="0"/>
        <pt x="816" y="12" on="0"/>
        <pt x="637" y="-15" on="1"/>
        <pt x="645" y="-45" on="0"/>
        <pt x="659" y="-126" on="0"/>
        <pt x="659" y="-166" on="1"/>
        <pt x="659" y="-220" on="0"/>
        <pt x="622" y="-317" on="0"/>
        <pt x="550" y="-391" on="0"/>
        <pt x="445" y="-434" on="0"/>
        <pt x="378" y="-434" on="1"/>
        <pt x="343" y="-434" on="0"/>
        <pt x="318" y="-429" on="1"/>
        <pt x="305" y="-426" on="0"/>
        <pt x="295" y="-423" on="1"/>
        <pt x="291" y="-410" on="0"/>
        <pt x="288" y="-394" on="1"/>
        <pt x="285" y="-380" on="0"/>
        <pt x="281" y="-345" on="0"/>
        <pt x="281" y="-324" on="1"/>
        <pt x="281" y="-302" on="0"/>
        <pt x="288" y="-250" on="0"/>
        <pt x="297" y="-218" on="1"/>
        <pt x="320" y="-223" on="0"/>
        <pt x="355" y="-231" on="0"/>
        <pt x="363" y="-231" on="1"/>
        <pt x="391" y="-231" on="0"/>
        <pt x="432" y="-212" on="0"/>
        <pt x="459" y="-181" on="0"/>
        <pt x="472" y="-139" on="0"/>
        <pt x="472" y="-116" on="1"/>
        <pt x="472" y="-94" on="0"/>
        <pt x="467" y="-46" on="0"/>
        <pt x="465" y="-26" on="1"/>
        <pt x="390" y="-24" on="0"/>
        <pt x="260" y="-1" on="0"/>
        <pt x="211" y="13" on="1"/>
        <pt x="154" y="29" on="0"/>
      </contour>
    </TTGlyph>
    <TTGlyph name="Schwa" xMin="78" yMin="-26" xMax="1116" yMax="1384">
      <contour>
        <pt x="1116" y="667" on="1"/>
        <pt x="1116" y="496" on="0"/>
        <pt x="1060" y="237" on="0"/>
        <pt x="931" y="62" on="0"/>
        <pt x="718" y="-26" on="0"/>
        <pt x="562" y="-26" on="1"/>
        <pt x="470" y="-26" on="0"/>
        <pt x="329" y="28" on="0"/>
        <pt x="225" y="119" on="0"/>
        <pt x="154" y="239" on="0"/>
        <pt x="109" y="371" on="0"/>
        <pt x="86" y="506" on="0"/>
        <pt x="78" y="628" on="0"/>
        <pt x="81" y="729" on="0"/>
        <pt x="84" y="760" on="1"/>
        <pt x="84" y="761" on="1"/>
        <pt x="896" y="759" on="1"/>
        <pt x="889" y="860" on="0"/>
        <pt x="840" y="1019" on="0"/>
        <pt x="754" y="1128" on="0"/>
        <pt x="628" y="1186" on="0"/>
        <pt x="544" y="1186" on="1"/>
        <pt x="488" y="1186" on="0"/>
        <pt x="387" y="1170" on="0"/>
        <pt x="348" y="1160" on="1"/>
        <pt x="302" y="1149" on="0"/>
        <pt x="263" y="1134" on="1"/>
        <pt x="246" y="1169" on="0"/>
        <pt x="226" y="1238" on="0"/>
        <pt x="221" y="1266" on="1"/>
        <pt x="215" y="1299" on="0"/>
        <pt x="213" y="1329" on="1"/>
        <pt x="261" y="1344" on="0"/>
        <pt x="315" y="1356" on="1"/>
        <pt x="361" y="1367" on="0"/>
        <pt x="475" y="1384" on="0"/>
        <pt x="534" y="1384" on="1"/>
        <pt x="687" y="1384" on="0"/>
        <pt x="907" y="1275" on="0"/>
        <pt x="1049" y="1082" on="0"/>
        <pt x="1116" y="820" on="0"/>
      </contour>
      <contour>
        <pt x="554" y="151" on="1"/>
        <pt x="641" y="151" on="0"/>
        <pt x="767" y="212" on="0"/>
        <pt x="850" y="328" on="0"/>
        <pt x="893" y="497" on="0"/>
        <pt x="898" y="605" on="1"/>
        <pt x="304" y="606" on="1"/>
        <pt x="296" y="494" on="0"/>
        <pt x="336" y="324" on="0"/>
        <pt x="409" y="209" on="0"/>
        <pt x="506" y="151" on="0"/>
      </contour>
    </TTGlyph>
    <TTGlyph name="Scircumflex" xMin="107" yMin="-26" xMax="974" yMax="1849">
      <component glyphName="S" x="0" y="0" flags="0x204"/>
      <component glyphName="circumflex.cap" x="206" y="0" flags="0x4"/>
    </TTGlyph>
    <TTGlyph name="T" xMin="28" yMin="0" xMax="935" yMax="1358">
      <contour>
        <pt x="362" y="1190" on="1"/>
        <pt x="287" y="1189" on="0"/>
        <pt x="166" y="1187" on="0"/>
        <pt x="123" y="1185" on="1"/>
        <pt x="73" y="1183" on="0"/>
        <pt x="34" y="1181" on="1"/>
        <pt x="32" y="1193" on="0"/>
        <pt x="31" y="1205" on="1"/>
        <pt x="28" y="1226" on="0"/>
        <pt x="28" y="1257" on="1"/>
        <pt x="28" y="1275" on="0"/>
        <pt x="33" y="1326" on="0"/>
        <pt x="40" y="1358" on="1"/>
        <pt x="930" y="1358" on="1"/>
        <pt x="931" y="1348" on="0"/>
        <pt x="932" y="1337" on="1"/>
        <pt x="933" y="1328" on="0"/>
        <pt x="935" y="1305" on="0"/>
        <pt x="935" y="1294" on="1"/>
        <pt x="935" y="1274" on="0"/>
        <pt x="928" y="1210" on="0"/>
        <pt x="919" y="1182" on="1"/>
        <pt x="911" y="1183" on="0"/>
        <pt x="844" y="1186" on="0"/>
        <pt x="750" y="1188" on="0"/>
        <pt x="640" y="1190" on="0"/>
        <pt x="588" y="1190" on="1"/>
        <pt x="588" y="0" on="1"/>
        <pt x="362" y="0" on="1"/>
      </contour>
    </TTGlyph>
    <TTGlyph name="Tbar" xMin="28" yMin="0" xMax="935" yMax="1358">
      <contour>
        <pt x="160" y="625" on="1"/>
        <pt x="147" y="673" on="0"/>
        <pt x="147" y="704" on="1"/>
        <pt x="147" y="722" on="0"/>
        <pt x="153" y="762" on="0"/>
        <pt x="161" y="783" on="1"/>
        <pt x="362" y="783" on="1"/>
        <pt x="362" y="1190" on="1"/>
        <pt x="287" y="1189" on="0"/>
        <pt x="166" y="1187" on="0"/>
        <pt x="123" y="1185" on="1"/>
        <pt x="73" y="1183" on="0"/>
        <pt x="34" y="1181" on="1"/>
        <pt x="32" y="1193" on="0"/>
        <pt x="31" y="1205" on="1"/>
        <pt x="28" y="1226" on="0"/>
        <pt x="28" y="1257" on="1"/>
        <pt x="28" y="1275" on="0"/>
        <pt x="33" y="1326" on="0"/>
        <pt x="40" y="1358" on="1"/>
        <pt x="930" y="1358" on="1"/>
        <pt x="931" y="1348" on="0"/>
        <pt x="932" y="1337" on="1"/>
        <pt x="933" y="1328" on="0"/>
        <pt x="935" y="1305" on="0"/>
        <pt x="935" y="1294" on="1"/>
        <pt x="935" y="1274" on="0"/>
        <pt x="928" y="1210" on="0"/>
        <pt x="919" y="1182" on="1"/>
        <pt x="911" y="1183" on="0"/>
        <pt x="844" y="1186" on="0"/>
        <pt x="750" y="1188" on="0"/>
        <pt x="640" y="1190" on="0"/>
        <pt x="588" y="1190" on="1"/>
        <pt x="588" y="783" on="1"/>
        <pt x="806" y="783" on="1"/>
        <pt x="811" y="763" on="0"/>
        <pt x="815" y="727" on="0"/>
        <pt x="815" y="713" on="1"/>
        <pt x="815" y="693" on="0"/>
        <pt x="808" y="648" on="0"/>
        <pt x="800" y="625" on="1"/>
        <pt x="588" y="625" on="1"/>
        <pt x="588" y="0" on="1"/>
        <pt x="362" y="0" on="1"/>
        <pt x="362" y="625" on="1"/>
        <pt x="160" y="625" on="1"/>
      </contour>
    </TTGlyph>
    <TTGlyph name="Tcaron" xMin="28" yMin="0" xMax="935" yMax="1848">
      <component glyphName="T" x="0" y="0" flags="0x204"/>
      <component glyphName="caron.cap" x="147" y="0" flags="0x4"/>
    </TTGlyph>
    <TTGlyph name="Thorn" xMin="153" yMin="0" xMax="1068" yMax="1358">
      <contour>
        <pt x="153" y="1358" on="1"/>
        <pt x="382" y="1358" on="1"/>
        <pt x="382" y="1114" on="1"/>
        <pt x="658" y="1114" on="1"/>
        <pt x="758" y="1114" on="0"/>
        <pt x="912" y="1055" on="0"/>
        <pt x="1015" y="947" on="0"/>
        <pt x="1068" y="793" on="0"/>
        <pt x="1068" y="697" on="1"/>
        <pt x="1068" y="610" on="0"/>
        <pt x="1005" y="454" on="0"/>
        <pt x="882" y="335" on="0"/>
        <pt x="701" y="265" on="0"/>
        <pt x="582" y="265" on="1"/>
        <pt x="539" y="265" on="0"/>
        <pt x="466" y="269" on="0"/>
        <pt x="439" y="272" on="1"/>
        <pt x="407" y="276" on="0"/>
        <pt x="380" y="280" on="1"/>
        <pt x="380" y="0" on="1"/>
        <pt x="153" y="0" on="1"/>
      </contour>
      <contour>
        <pt x="380" y="443" on="1"/>
        <pt x="398" y="441" on="0"/>
        <pt x="468" y="436" on="0"/>
        <pt x="517" y="436" on="1"/>
        <pt x="585" y="436" on="0"/>
        <pt x="700" y="463" on="0"/>
        <pt x="784" y="525" on="0"/>
        <pt x="831" y="622" on="0"/>
        <pt x="831" y="693" on="1"/>
        <pt x="831" y="749" on="0"/>
        <pt x="805" y="842" on="0"/>
        <pt x="751" y="908" on="0"/>
        <pt x="669" y="945" on="0"/>
        <pt x="614" y="945" on="1"/>
        <pt x="380" y="945" on="1"/>
      </contour>
    </TTGlyph>
    <TTGlyph name="U" xMin="117" yMin="-20" xMax="1123" yMax="1358">
      <contour>
        <pt x="117" y="530" on="1"/>
        <pt x="117" y="561" on="0"/>
        <pt x="117" y="666" on="0"/>
        <pt x="118" y="794" on="0"/>
        <pt x="119" y="937" on="0"/>
        <pt x="119" y="1007" on="1"/>
        <pt x="120" y="1171" on="0"/>
        <pt x="121" y="1358" on="1"/>
        <pt x="343" y="1358" on="1"/>
        <pt x="343" y="497" on="1"/>
        <pt x="343" y="420" on="0"/>
        <pt x="373" y="296" on="0"/>
        <pt x="440" y="208" on="0"/>
        <pt x="546" y="160" on="0"/>
        <pt x="623" y="160" on="1"/>
        <pt x="699" y="160" on="0"/>
        <pt x="807" y="208" on="0"/>
        <pt x="875" y="296" on="0"/>
        <pt x="906" y="420" on="0"/>
        <pt x="906" y="497" on="1"/>
        <pt x="906" y="519" on="0"/>
        <pt x="906" y="617" on="0"/>
        <pt x="905" y="746" on="0"/>
        <pt x="904" y="897" on="0"/>
        <pt x="904" y="972" on="1"/>
        <pt x="903" y="1148" on="0"/>
        <pt x="902" y="1358" on="1"/>
        <pt x="1123" y="1358" on="1"/>
        <pt x="1123" y="530" on="1"/>
        <pt x="1123" y="394" on="0"/>
        <pt x="1072" y="188" on="0"/>
        <pt x="956" y="50" on="0"/>
        <pt x="764" y="-20" on="0"/>
        <pt x="623" y="-20" on="1"/>
        <pt x="484" y="-20" on="0"/>
        <pt x="291" y="51" on="0"/>
        <pt x="171" y="190" on="0"/>
        <pt x="117" y="396" on="0"/>
      </contour>
    </TTGlyph>
    <TTGlyph name="Uacute" xMin="117" yMin="-20" xMax="1123" yMax="1922">
      <component glyphName="U" x="0" y="0" flags="0x204"/>
      <component glyphName="acute.cap" x="383" y="0" flags="0x4"/>
    </TTGlyph>
    <TTGlyph name="Ubreve" xMin="117" yMin="-20" xMax="1123" yMax="1860">
      <component glyphName="U" x="0" y="0" flags="0x204"/>
      <component glyphName="breve.cap" x="286" y="0" flags="0x4"/>
    </TTGlyph>
    <TTGlyph name="Ucircumflex" xMin="117" yMin="-20" xMax="1123" yMax="1849">
      <component glyphName="U" x="0" y="0" flags="0x204"/>
      <component glyphName="circumflex.cap" x="286" y="0" flags="0x4"/>
    </TTGlyph>
    <TTGlyph name="Udieresis" xMin="117" yMin="-20" xMax="1123" yMax="1742">
      <component glyphName="U" x="0" y="0" flags="0x204"/>
      <component glyphName="dieresis.cap" x="382" y="0" flags="0x4"/>
    </TTGlyph>
    <TTGlyph name="Ugrave" xMin="117" yMin="-20" xMax="1123" yMax="1922">
      <component glyphName="U" x="0" y="0" flags="0x204"/>
      <component glyphName="grave.cap" x="383" y="0" flags="0x4"/>
    </TTGlyph>
    <TTGlyph name="Uhungarumlaut" xMin="117" yMin="-20" xMax="1125" yMax="1923">
      <component glyphName="U" x="0" y="0" flags="0x204"/>
      <component glyphName="hungarumlaut.cap" x="286" y="0" flags="0x4"/>
    </TTGlyph>
    <TTGlyph name="Umacron" xMin="117" yMin="-20" xMax="1123" yMax="1713">
      <component glyphName="U" x="0" y="0" flags="0x204"/>
      <component glyphName="macron.cap" x="115" y="0" flags="0x4"/>
    </TTGlyph>
    <TTGlyph name="Uogonek" xMin="117" yMin="-354" xMax="1123" yMax="1358">
      <contour>
        <pt x="117" y="530" on="1"/>
        <pt x="117" y="561" on="0"/>
        <pt x="117" y="666" on="0"/>
        <pt x="118" y="794" on="0"/>
        <pt x="119" y="937" on="0"/>
        <pt x="119" y="1007" on="1"/>
        <pt x="120" y="1171" on="0"/>
        <pt x="121" y="1358" on="1"/>
        <pt x="343" y="1358" on="1"/>
        <pt x="343" y="497" on="1"/>
        <pt x="343" y="420" on="0"/>
        <pt x="373" y="296" on="0"/>
        <pt x="440" y="208" on="0"/>
        <pt x="546" y="160" on="0"/>
        <pt x="623" y="160" on="1"/>
        <pt x="699" y="160" on="0"/>
        <pt x="807" y="208" on="0"/>
        <pt x="875" y="296" on="0"/>
        <pt x="906" y="420" on="0"/>
        <pt x="906" y="497" on="1"/>
        <pt x="906" y="519" on="0"/>
        <pt x="906" y="617" on="0"/>
        <pt x="905" y="746" on="0"/>
        <pt x="904" y="897" on="0"/>
        <pt x="904" y="972" on="1"/>
        <pt x="903" y="1148" on="0"/>
        <pt x="902" y="1358" on="1"/>
        <pt x="1123" y="1358" on="1"/>
        <pt x="1123" y="530" on="1"/>
        <pt x="1122" y="365" on="0"/>
        <pt x="1049" y="135" on="0"/>
        <pt x="960" y="68" on="1"/>
        <pt x="940" y="49" on="0"/>
        <pt x="907" y="21" on="0"/>
        <pt x="884" y="-9" on="0"/>
        <pt x="871" y="-46" on="0"/>
        <pt x="871" y="-74" on="1"/>
        <pt x="871" y="-89" on="0"/>
        <pt x="887" y="-120" on="0"/>
        <pt x="919" y="-144" on="0"/>
        <pt x="963" y="-160" on="0"/>
        <pt x="992" y="-160" on="1"/>
        <pt x="1012" y="-160" on="0"/>
        <pt x="1041" y="-156" on="0"/>
        <pt x="1058" y="-151" on="1"/>
        <pt x="1067" y="-183" on="0"/>
        <pt x="1074" y="-232" on="0"/>
        <pt x="1074" y="-253" on="1"/>
        <pt x="1074" y="-274" on="0"/>
        <pt x="1069" y="-308" on="0"/>
        <pt x="1067" y="-319" on="1"/>
        <pt x="1064" y="-333" on="0"/>
        <pt x="1061" y="-343" on="1"/>
        <pt x="1050" y="-346" on="0"/>
        <pt x="1037" y="-349" on="1"/>
        <pt x="1012" y="-354" on="0"/>
        <pt x="976" y="-354" on="1"/>
        <pt x="908" y="-354" on="0"/>
        <pt x="803" y="-321" on="0"/>
        <pt x="731" y="-262" on="0"/>
        <pt x="694" y="-181" on="0"/>
        <pt x="694" y="-133" on="1"/>
        <pt x="694" y="-101" on="0"/>
        <pt x="715" y="-42" on="0"/>
        <pt x="738" y="-13" on="1"/>
        <pt x="712" y="-17" on="0"/>
        <pt x="654" y="-20" on="0"/>
        <pt x="623" y="-20" on="1"/>
        <pt x="484" y="-20" on="0"/>
        <pt x="291" y="51" on="0"/>
        <pt x="171" y="190" on="0"/>
        <pt x="117" y="396" on="0"/>
      </contour>
    </TTGlyph>
    <TTGlyph name="Uring" xMin="117" yMin="-20" xMax="1123" yMax="1960">
      <component glyphName="U" x="0" y="0" flags="0x204"/>
      <component glyphName="ring.cap" x="382" y="0" flags="0x4"/>
    </TTGlyph>
    <TTGlyph name="Utilde" xMin="117" yMin="-20" xMax="1123" yMax="1796">
      <component glyphName="U" x="0" y="0" flags="0x204"/>
      <component glyphName="tilde.cap" x="283" y="0" flags="0x4"/>
    </TTGlyph>
    <TTGlyph name="V" xMin="-30" yMin="0" xMax="1108" yMax="1358">
      <contour>
        <pt x="-30" y="1358" on="1"/>
        <pt x="203" y="1358" on="1"/>
        <pt x="476" y="390" on="1"/>
        <pt x="537" y="135" on="1"/>
        <pt x="599" y="390" on="1"/>
        <pt x="877" y="1358" on="1"/>
        <pt x="1108" y="1358" on="1"/>
        <pt x="703" y="0" on="1"/>
        <pt x="368" y="0" on="1"/>
      </contour>
    </TTGlyph>
    <TTGlyph name="W" xMin="-20" yMin="0" xMax="1755" yMax="1358">
      <contour>
        <pt x="-20" y="1358" on="1"/>
        <pt x="214" y="1358" on="1"/>
        <pt x="468" y="192" on="1"/>
        <pt x="734" y="1358" on="1"/>
        <pt x="1014" y="1358" on="1"/>
        <pt x="1276" y="188" on="1"/>
        <pt x="1531" y="1358" on="1"/>
        <pt x="1755" y="1358" on="1"/>
        <pt x="1435" y="0" on="1"/>
        <pt x="1125" y="0" on="1"/>
        <pt x="904" y="981" on="1"/>
        <pt x="868" y="1232" on="1"/>
        <pt x="831" y="981" on="1"/>
        <pt x="609" y="0" on="1"/>
        <pt x="298" y="0" on="1"/>
      </contour>
    </TTGlyph>
    <TTGlyph name="Wacute" xMin="-20" yMin="0" xMax="1755" yMax="1922">
      <component glyphName="W" x="0" y="0" flags="0x204"/>
      <component glyphName="acute.cap" x="635" y="0" flags="0x4"/>
    </TTGlyph>
    <TTGlyph name="Wcircumflex" xMin="-20" yMin="0" xMax="1755" yMax="1849">
      <component glyphName="W" x="0" y="0" flags="0x204"/>
      <component glyphName="circumflex.cap" x="538" y="0" flags="0x4"/>
    </TTGlyph>
    <TTGlyph name="Wdieresis" xMin="-20" yMin="0" xMax="1755" yMax="1742">
      <component glyphName="W" x="0" y="0" flags="0x204"/>
      <component glyphName="dieresis.cap" x="634" y="0" flags="0x4"/>
    </TTGlyph>
    <TTGlyph name="Wgrave" xMin="-20" yMin="0" xMax="1755" yMax="1922">
      <component glyphName="W" x="0" y="0" flags="0x204"/>
      <component glyphName="grave.cap" x="635" y="0" flags="0x4"/>
    </TTGlyph>
    <TTGlyph name="X" xMin="5" yMin="0" xMax="1125" yMax="1358">
      <contour>
        <pt x="423" y="695" on="1"/>
        <pt x="11" y="1358" on="1"/>
        <pt x="268" y="1358" on="1"/>
        <pt x="465" y="1020" on="1"/>
        <pt x="555" y="832" on="1"/>
        <pt x="562" y="832" on="1"/>
        <pt x="653" y="1020" on="1"/>
        <pt x="845" y="1358" on="1"/>
        <pt x="1109" y="1358" on="1"/>
        <pt x="685" y="673" on="1"/>
        <pt x="1125" y="0" on="1"/>
        <pt x="856" y="0" on="1"/>
        <pt x="624" y="390" on="1"/>
        <pt x="553" y="532" on="1"/>
        <pt x="549" y="532" on="1"/>
        <pt x="481" y="390" on="1"/>
        <pt x="265" y="0" on="1"/>
        <pt x="5" y="0" on="1"/>
      </contour>
    </TTGlyph>
    <TTGlyph name="Y" xMin="-20" yMin="0" xMax="1021" yMax="1358">
      <contour>
        <pt x="388" y="510" on="1"/>
        <pt x="-20" y="1358" on="1"/>
        <pt x="224" y="1358" on="1"/>
        <pt x="441" y="850" on="1"/>
        <pt x="499" y="674" on="1"/>
        <pt x="557" y="849" on="1"/>
        <pt x="777" y="1358" on="1"/>
        <pt x="1021" y="1358" on="1"/>
        <pt x="615" y="510" on="1"/>
        <pt x="615" y="0" on="1"/>
        <pt x="388" y="0" on="1"/>
      </contour>
    </TTGlyph>
    <TTGlyph name="Yacute" xMin="-20" yMin="0" xMax="1021" yMax="1922">
      <component glyphName="Y" x="0" y="0" flags="0x204"/>
      <component glyphName="acute.cap" x="262" y="0" flags="0x4"/>
    </TTGlyph>
    <TTGlyph name="Ycircumflex" xMin="-20" yMin="0" xMax="1021" yMax="1849">
      <component glyphName="Y" x="0" y="0" flags="0x204"/>
      <component glyphName="circumflex.cap" x="165" y="0" flags="0x4"/>
    </TTGlyph>
    <TTGlyph name="Ydieresis" xMin="-20" yMin="0" xMax="1021" yMax="1742">
      <component glyphName="Y" x="0" y="0" flags="0x204"/>
      <component glyphName="dieresis.cap" x="261" y="0" flags="0x4"/>
    </TTGlyph>
    <TTGlyph name="Ygrave" xMin="-20" yMin="0" xMax="1021" yMax="1922">
      <component glyphName="Y" x="0" y="0" flags="0x204"/>
      <component glyphName="grave.cap" x="262" y="0" flags="0x4"/>
    </TTGlyph>
    <TTGlyph name="Z" xMin="42" yMin="0" xMax="978" yMax="1358">
      <contour>
        <pt x="42" y="163" on="1"/>
        <pt x="634" y="1058" on="1"/>
        <pt x="744" y="1184" on="1"/>
        <pt x="623" y="1183" on="0"/>
        <pt x="402" y="1183" on="0"/>
        <pt x="316" y="1183" on="1"/>
        <pt x="129" y="1183" on="1"/>
        <pt x="121" y="1216" on="0"/>
        <pt x="114" y="1261" on="0"/>
        <pt x="114" y="1277" on="1"/>
        <pt x="114" y="1293" on="0"/>
        <pt x="119" y="1323" on="0"/>
        <pt x="122" y="1334" on="1"/>
        <pt x="126" y="1347" on="0"/>
        <pt x="131" y="1358" on="1"/>
        <pt x="957" y="1358" on="1"/>
        <pt x="977" y="1196" on="1"/>
        <pt x="383" y="302" on="1"/>
        <pt x="261" y="177" on="1"/>
        <pt x="321" y="177" on="0"/>
        <pt x="447" y="177" on="0"/>
        <pt x="570" y="178" on="0"/>
        <pt x="687" y="178" on="0"/>
        <pt x="738" y="178" on="1"/>
        <pt x="972" y="178" on="1"/>
        <pt x="973" y="170" on="0"/>
        <pt x="975" y="162" on="1"/>
        <pt x="976" y="155" on="0"/>
        <pt x="978" y="137" on="0"/>
        <pt x="978" y="129" on="1"/>
        <pt x="978" y="108" on="0"/>
        <pt x="966" y="43" on="0"/>
        <pt x="949" y="0" on="1"/>
        <pt x="82" y="0" on="1"/>
      </contour>
    </TTGlyph>
    <TTGlyph name="Zacute" xMin="42" yMin="0" xMax="978" yMax="1922">
      <component glyphName="Z" x="0" y="0" flags="0x204"/>
      <component glyphName="acute.cap" x="297" y="0" flags="0x4"/>
    </TTGlyph>
    <TTGlyph name="Zcaron" xMin="42" yMin="0" xMax="978" yMax="1848">
      <component glyphName="Z" x="0" y="0" flags="0x204"/>
      <component glyphName="caron.cap" x="200" y="0" flags="0x4"/>
    </TTGlyph>
    <TTGlyph name="Zdotaccent" xMin="42" yMin="0" xMax="978" yMax="1744">
      <component glyphName="Z" x="0" y="0" flags="0x204"/>
      <component glyphName="dotaccent.cap" x="297" y="0" flags="0x4"/>
    </TTGlyph>
    <TTGlyph name="_459" xMin="53" yMin="0" xMax="1210" yMax="1368">
      <contour>
        <pt x="53" y="773" on="1"/>
        <pt x="105" y="774" on="0"/>
        <pt x="216" y="776" on="0"/>
        <pt x="328" y="777" on="0"/>
        <pt x="436" y="779" on="0"/>
        <pt x="485" y="780" on="1"/>
        <pt x="599" y="782" on="0"/>
        <pt x="711" y="784" on="1"/>
        <pt x="711" y="776" on="0"/>
        <pt x="712" y="767" on="1"/>
        <pt x="713" y="759" on="0"/>
        <pt x="714" y="738" on="0"/>
        <pt x="714" y="727" on="1"/>
        <pt x="714" y="707" on="0"/>
        <pt x="708" y="648" on="0"/>
        <pt x="697" y="613" on="1"/>
        <pt x="588" y="614" on="0"/>
        <pt x="476" y="615" on="1"/>
        <pt x="428" y="615" on="0"/>
        <pt x="322" y="616" on="0"/>
        <pt x="213" y="617" on="0"/>
        <pt x="104" y="617" on="0"/>
        <pt x="53" y="617" on="1"/>
      </contour>
      <contour>
        <pt x="165" y="1357" on="1"/>
        <pt x="216" y="1359" on="0"/>
        <pt x="278" y="1362" on="1"/>
        <pt x="332" y="1364" on="0"/>
        <pt x="477" y="1368" on="0"/>
        <pt x="564" y="1368" on="1"/>
        <pt x="720" y="1368" on="0"/>
        <pt x="960" y="1285" on="0"/>
        <pt x="1125" y="1117" on="0"/>
        <pt x="1210" y="863" on="0"/>
        <pt x="1210" y="692" on="1"/>
        <pt x="1210" y="521" on="0"/>
        <pt x="1118" y="262" on="0"/>
        <pt x="947" y="88" on="0"/>
        <pt x="703" y="0" on="0"/>
        <pt x="550" y="0" on="1"/>
        <pt x="165" y="0" on="1"/>
      </contour>
      <contour>
        <pt x="584" y="175" on="1"/>
        <pt x="677" y="175" on="0"/>
        <pt x="823" y="254" on="0"/>
        <pt x="925" y="393" on="0"/>
        <pt x="979" y="580" on="0"/>
        <pt x="979" y="688" on="1"/>
        <pt x="979" y="813" on="0"/>
        <pt x="925" y="1002" on="0"/>
        <pt x="823" y="1130" on="0"/>
        <pt x="677" y="1194" on="0"/>
        <pt x="584" y="1194" on="1"/>
        <pt x="533" y="1194" on="0"/>
        <pt x="459" y="1192" on="0"/>
        <pt x="436" y="1191" on="1"/>
        <pt x="409" y="1189" on="0"/>
        <pt x="391" y="1188" on="1"/>
        <pt x="391" y="175" on="1"/>
      </contour>
    </TTGlyph>
    <TTGlyph name="a" xMin="64" yMin="-20" xMax="941" yMax="1051">
      <contour>
        <pt x="64" y="292" on="1"/>
        <pt x="64" y="375" on="0"/>
        <pt x="112" y="491" on="0"/>
        <pt x="205" y="565" on="0"/>
        <pt x="338" y="602" on="0"/>
        <pt x="424" y="607" on="1"/>
        <pt x="647" y="619" on="1"/>
        <pt x="647" y="699" on="1"/>
        <pt x="647" y="753" on="0"/>
        <pt x="628" y="823" on="0"/>
        <pt x="584" y="865" on="0"/>
        <pt x="511" y="882" on="0"/>
        <pt x="457" y="882" on="1"/>
        <pt x="403" y="882" on="0"/>
        <pt x="306" y="858" on="0"/>
        <pt x="270" y="844" on="1"/>
        <pt x="227" y="827" on="0"/>
        <pt x="191" y="806" on="1"/>
        <pt x="169" y="837" on="0"/>
        <pt x="143" y="894" on="0"/>
        <pt x="136" y="917" on="1"/>
        <pt x="127" y="943" on="0"/>
        <pt x="124" y="967" on="1"/>
        <pt x="172" y="991" on="0"/>
        <pt x="227" y="1009" on="1"/>
        <pt x="275" y="1025" on="0"/>
        <pt x="400" y="1051" on="0"/>
        <pt x="469" y="1051" on="1"/>
        <pt x="583" y="1051" on="0"/>
        <pt x="733" y="1011" on="0"/>
        <pt x="822" y="930" on="0"/>
        <pt x="857" y="807" on="0"/>
        <pt x="857" y="723" on="1"/>
        <pt x="857" y="165" on="1"/>
        <pt x="941" y="63" on="1"/>
        <pt x="941" y="0" on="1"/>
        <pt x="756" y="0" on="1"/>
        <pt x="679" y="89" on="1"/>
        <pt x="643" y="89" on="1"/>
        <pt x="638" y="84" on="0"/>
        <pt x="595" y="49" on="0"/>
        <pt x="528" y="10" on="0"/>
        <pt x="443" y="-20" on="0"/>
        <pt x="395" y="-20" on="1"/>
        <pt x="320" y="-20" on="0"/>
        <pt x="198" y="25" on="0"/>
        <pt x="111" y="108" on="0"/>
        <pt x="64" y="223" on="0"/>
      </contour>
      <contour>
        <pt x="282" y="310" on="1"/>
        <pt x="282" y="264" on="0"/>
        <pt x="308" y="203" on="0"/>
        <pt x="355" y="167" on="0"/>
        <pt x="422" y="153" on="0"/>
        <pt x="463" y="153" on="1"/>
        <pt x="501" y="153" on="0"/>
        <pt x="568" y="172" on="0"/>
        <pt x="593" y="184" on="1"/>
        <pt x="622" y="197" on="0"/>
        <pt x="647" y="215" on="1"/>
        <pt x="647" y="484" on="1"/>
        <pt x="446" y="471" on="1"/>
        <pt x="399" y="468" on="0"/>
        <pt x="336" y="442" on="0"/>
        <pt x="298" y="400" on="0"/>
        <pt x="282" y="343" on="0"/>
      </contour>
    </TTGlyph>
    <TTGlyph name="aacute" xMin="64" yMin="-20" xMax="941" yMax="1605">
      <component glyphName="a" x="0" y="0" flags="0x204"/>
      <component glyphName="acute" x="102" y="0" flags="0x4"/>
    </TTGlyph>
    <TTGlyph name="abreve" xMin="64" yMin="-20" xMax="941" yMax="1609">
      <component glyphName="a" x="0" y="0" flags="0x204"/>
      <component glyphName="breve" x="181" y="0" flags="0x4"/>
    </TTGlyph>
    <TTGlyph name="acircumflex" xMin="64" yMin="-20" xMax="941" yMax="1615">
      <component glyphName="a" x="0" y="0" flags="0x204"/>
      <component glyphName="circumflex" x="11" y="0" flags="0x4"/>
    </TTGlyph>
    <TTGlyph name="acute" xMin="249" yMin="1169" xMax="671" yMax="1605">
      <contour>
        <pt x="354" y="1169" on="1"/>
        <pt x="339" y="1175" on="0"/>
        <pt x="306" y="1196" on="0"/>
        <pt x="276" y="1220" on="0"/>
        <pt x="254" y="1247" on="0"/>
        <pt x="249" y="1259" on="1"/>
        <pt x="494" y="1605" on="1"/>
        <pt x="512" y="1600" on="0"/>
        <pt x="567" y="1567" on="0"/>
        <pt x="621" y="1526" on="0"/>
        <pt x="664" y="1483" on="0"/>
        <pt x="671" y="1468" on="1"/>
        <pt x="354" y="1169" on="1"/>
      </contour>
    </TTGlyph>
    <TTGlyph name="acute.cap" xMin="86" yMin="1487" xMax="557" yMax="1922">
      <contour>
        <pt x="190" y="1487" on="1"/>
        <pt x="175" y="1493" on="0"/>
        <pt x="142" y="1514" on="0"/>
        <pt x="113" y="1538" on="0"/>
        <pt x="91" y="1565" on="0"/>
        <pt x="86" y="1577" on="1"/>
        <pt x="382" y="1922" on="1"/>
        <pt x="400" y="1916" on="0"/>
        <pt x="454" y="1883" on="0"/>
        <pt x="507" y="1842" on="0"/>
        <pt x="550" y="1800" on="0"/>
        <pt x="557" y="1785" on="1"/>
        <pt x="190" y="1487" on="1"/>
      </contour>
    </TTGlyph>
    <TTGlyph name="adieresis" xMin="64" yMin="-20" xMax="941" yMax="1476">
      <component glyphName="a" x="0" y="0" flags="0x204"/>
      <component glyphName="dieresis" x="11" y="0" flags="0x4"/>
    </TTGlyph>
    <TTGlyph name="ae" xMin="67" yMin="-20" xMax="1499" yMax="1050">
      <contour>
        <pt x="67" y="317" on="1"/>
        <pt x="67" y="390" on="0"/>
        <pt x="125" y="496" on="0"/>
        <pt x="220" y="565" on="0"/>
        <pt x="342" y="602" on="0"/>
        <pt x="407" y="607" on="1"/>
        <pt x="474" y="609" on="0"/>
        <pt x="592" y="614" on="0"/>
        <pt x="660" y="616" on="1"/>
        <pt x="660" y="701" on="1"/>
        <pt x="660" y="752" on="0"/>
        <pt x="642" y="824" on="0"/>
        <pt x="598" y="869" on="0"/>
        <pt x="523" y="889" on="0"/>
        <pt x="466" y="889" on="1"/>
        <pt x="414" y="889" on="0"/>
        <pt x="322" y="869" on="0"/>
        <pt x="287" y="858" on="1"/>
        <pt x="247" y="844" on="0"/>
        <pt x="212" y="827" on="1"/>
        <pt x="189" y="856" on="0"/>
        <pt x="165" y="909" on="0"/>
        <pt x="159" y="930" on="1"/>
        <pt x="152" y="955" on="0"/>
        <pt x="150" y="976" on="1"/>
        <pt x="196" y="996" on="0"/>
        <pt x="248" y="1013" on="1"/>
        <pt x="293" y="1027" on="0"/>
        <pt x="406" y="1050" on="0"/>
        <pt x="466" y="1050" on="1"/>
        <pt x="547" y="1050" on="0"/>
        <pt x="662" y="1032" on="0"/>
        <pt x="741" y="998" on="0"/>
        <pt x="792" y="951" on="0"/>
        <pt x="810" y="922" on="1"/>
        <pt x="836" y="950" on="0"/>
        <pt x="904" y="997" on="0"/>
        <pt x="981" y="1031" on="0"/>
        <pt x="1064" y="1050" on="0"/>
        <pt x="1105" y="1050" on="1"/>
        <pt x="1198" y="1050" on="0"/>
        <pt x="1344" y="996" on="0"/>
        <pt x="1445" y="895" on="0"/>
        <pt x="1499" y="752" on="0"/>
        <pt x="1499" y="663" on="1"/>
        <pt x="1499" y="631" on="0"/>
        <pt x="1496" y="575" on="0"/>
        <pt x="1494" y="554" on="1"/>
        <pt x="1492" y="529" on="0"/>
        <pt x="1490" y="509" on="1"/>
        <pt x="859" y="489" on="1"/>
        <pt x="861" y="320" on="0"/>
        <pt x="1003" y="148" on="0"/>
        <pt x="1135" y="148" on="1"/>
        <pt x="1189" y="148" on="0"/>
        <pt x="1286" y="167" on="0"/>
        <pt x="1324" y="178" on="1"/>
        <pt x="1368" y="191" on="0"/>
        <pt x="1406" y="209" on="1"/>
        <pt x="1422" y="172" on="0"/>
        <pt x="1441" y="113" on="0"/>
        <pt x="1446" y="91" on="1"/>
        <pt x="1452" y="65" on="0"/>
        <pt x="1454" y="46" on="1"/>
        <pt x="1411" y="27" on="0"/>
        <pt x="1361" y="13" on="1"/>
        <pt x="1317" y="0" on="0"/>
        <pt x="1202" y="-20" on="0"/>
        <pt x="1135" y="-20" on="1"/>
        <pt x="1011" y="-20" on="0"/>
        <pt x="839" y="55" on="0"/>
        <pt x="778" y="127" on="1"/>
        <pt x="757" y="127" on="1"/>
        <pt x="751" y="119" on="0"/>
        <pt x="707" y="72" on="0"/>
        <pt x="623" y="20" on="0"/>
        <pt x="498" y="-20" on="0"/>
        <pt x="412" y="-20" on="1"/>
        <pt x="337" y="-20" on="0"/>
        <pt x="210" y="26" on="0"/>
        <pt x="119" y="113" on="0"/>
        <pt x="67" y="238" on="0"/>
      </contour>
      <contour>
        <pt x="285" y="326" on="1"/>
        <pt x="285" y="279" on="0"/>
        <pt x="316" y="211" on="0"/>
        <pt x="370" y="166" on="0"/>
        <pt x="442" y="144" on="0"/>
        <pt x="483" y="144" on="1"/>
        <pt x="524" y="144" on="0"/>
        <pt x="595" y="166" on="0"/>
        <pt x="653" y="196" on="0"/>
        <pt x="695" y="228" on="0"/>
        <pt x="707" y="239" on="1"/>
        <pt x="688" y="286" on="0"/>
        <pt x="662" y="406" on="0"/>
        <pt x="660" y="472" on="1"/>
        <pt x="428" y="462" on="1"/>
        <pt x="349" y="458" on="0"/>
        <pt x="285" y="390" on="0"/>
      </contour>
      <contour>
        <pt x="868" y="628" on="1"/>
        <pt x="925" y="630" on="0"/>
        <pt x="1034" y="635" on="0"/>
        <pt x="1142" y="640" on="0"/>
        <pt x="1252" y="645" on="0"/>
        <pt x="1310" y="647" on="1"/>
        <pt x="1310" y="708" on="0"/>
        <pt x="1283" y="799" on="0"/>
        <pt x="1235" y="859" on="0"/>
        <pt x="1168" y="889" on="0"/>
        <pt x="1128" y="889" on="1"/>
        <pt x="1020" y="889" on="0"/>
        <pt x="887" y="755" on="0"/>
      </contour>
    </TTGlyph>
    <TTGlyph name="aeacute" xMin="67" yMin="-20" xMax="1499" yMax="1605">
      <component glyphName="ae" x="0" y="0" flags="0x204"/>
      <component glyphName="acute" x="401" y="0" flags="0x4"/>
    </TTGlyph>
    <TTGlyph name="afii61248" xMin="139" yMin="-21" xMax="1570" yMax="1385">
      <contour>
        <pt x="1167" y="1385" on="1"/>
        <pt x="1198" y="1377" on="0"/>
        <pt x="1227" y="1366" on="1"/>
        <pt x="1252" y="1355" on="0"/>
        <pt x="1302" y="1323" on="0"/>
        <pt x="1317" y="1298" on="1"/>
        <pt x="539" y="-21" on="1"/>
        <pt x="510" y="-14" on="0"/>
        <pt x="483" y="-3" on="1"/>
        <pt x="460" y="7" on="0"/>
        <pt x="407" y="40" on="0"/>
        <pt x="386" y="66" on="1"/>
      </contour>
      <contour>
        <pt x="926" y="321" on="1"/>
        <pt x="926" y="396" on="0"/>
        <pt x="975" y="521" on="0"/>
        <pt x="1062" y="611" on="0"/>
        <pt x="1180" y="661" on="0"/>
        <pt x="1250" y="661" on="1"/>
        <pt x="1322" y="661" on="0"/>
        <pt x="1440" y="613" on="0"/>
        <pt x="1524" y="526" on="0"/>
        <pt x="1570" y="403" on="0"/>
        <pt x="1570" y="328" on="1"/>
        <pt x="1570" y="253" on="0"/>
        <pt x="1522" y="126" on="0"/>
        <pt x="1437" y="33" on="0"/>
        <pt x="1320" y="-20" on="0"/>
        <pt x="1250" y="-20" on="1"/>
        <pt x="1178" y="-20" on="0"/>
        <pt x="1059" y="30" on="0"/>
        <pt x="974" y="121" on="0"/>
        <pt x="926" y="246" on="0"/>
      </contour>
      <contour>
        <pt x="1104" y="321" on="1"/>
        <pt x="1104" y="284" on="0"/>
        <pt x="1120" y="213" on="0"/>
        <pt x="1155" y="156" on="0"/>
        <pt x="1211" y="121" on="0"/>
        <pt x="1250" y="121" on="1"/>
        <pt x="1290" y="121" on="0"/>
        <pt x="1344" y="159" on="0"/>
        <pt x="1376" y="218" on="0"/>
        <pt x="1389" y="290" on="0"/>
        <pt x="1389" y="325" on="1"/>
        <pt x="1389" y="364" on="0"/>
        <pt x="1376" y="435" on="0"/>
        <pt x="1344" y="488" on="0"/>
        <pt x="1290" y="520" on="0"/>
        <pt x="1250" y="520" on="1"/>
        <pt x="1211" y="520" on="0"/>
        <pt x="1155" y="485" on="0"/>
        <pt x="1120" y="429" on="0"/>
        <pt x="1104" y="357" on="0"/>
      </contour>
      <contour>
        <pt x="139" y="1046" on="1"/>
        <pt x="139" y="1127" on="0"/>
        <pt x="193" y="1254" on="0"/>
        <pt x="294" y="1340" on="0"/>
        <pt x="439" y="1385" on="0"/>
        <pt x="529" y="1385" on="1"/>
        <pt x="562" y="1385" on="0"/>
        <pt x="615" y="1375" on="0"/>
        <pt x="633" y="1369" on="1"/>
        <pt x="654" y="1362" on="0"/>
        <pt x="670" y="1354" on="1"/>
        <pt x="668" y="1327" on="0"/>
        <pt x="663" y="1301" on="1"/>
        <pt x="658" y="1279" on="0"/>
        <pt x="643" y="1231" on="0"/>
        <pt x="632" y="1213" on="1"/>
        <pt x="625" y="1220" on="0"/>
        <pt x="612" y="1226" on="1"/>
        <pt x="601" y="1231" on="0"/>
        <pt x="560" y="1239" on="0"/>
        <pt x="529" y="1239" on="1"/>
        <pt x="431" y="1239" on="0"/>
        <pt x="326" y="1148" on="0"/>
        <pt x="326" y="1046" on="1"/>
        <pt x="326" y="991" on="0"/>
        <pt x="352" y="916" on="0"/>
        <pt x="405" y="871" on="0"/>
        <pt x="484" y="851" on="0"/>
        <pt x="537" y="851" on="1"/>
        <pt x="569" y="851" on="0"/>
        <pt x="612" y="859" on="0"/>
        <pt x="626" y="864" on="1"/>
        <pt x="642" y="869" on="0"/>
        <pt x="653" y="877" on="1"/>
        <pt x="662" y="855" on="0"/>
        <pt x="668" y="832" on="1"/>
        <pt x="673" y="812" on="0"/>
        <pt x="682" y="766" on="0"/>
        <pt x="681" y="746" on="1"/>
        <pt x="664" y="737" on="0"/>
        <pt x="642" y="731" on="1"/>
        <pt x="623" y="726" on="0"/>
        <pt x="570" y="717" on="0"/>
        <pt x="537" y="717" on="1"/>
        <pt x="444" y="717" on="0"/>
        <pt x="296" y="758" on="0"/>
        <pt x="194" y="841" on="0"/>
        <pt x="139" y="964" on="0"/>
      </contour>
    </TTGlyph>
    <TTGlyph name="afii61352" xMin="155" yMin="0" xMax="2379" yMax="1385">
      <contour>
        <pt x="1510" y="165" on="1"/>
        <pt x="2298" y="165" on="1"/>
        <pt x="2298" y="0" on="1"/>
        <pt x="1510" y="0" on="1"/>
      </contour>
      <contour>
        <pt x="155" y="1358" on="1"/>
        <pt x="514" y="1358" on="1"/>
        <pt x="857" y="510" on="1"/>
        <pt x="994" y="124" on="1"/>
        <pt x="981" y="510" on="1"/>
        <pt x="974" y="1358" on="1"/>
        <pt x="1190" y="1358" on="1"/>
        <pt x="1190" y="0" on="1"/>
        <pt x="840" y="0" on="1"/>
        <pt x="489" y="850" on="1"/>
        <pt x="352" y="1242" on="1"/>
        <pt x="365" y="850" on="1"/>
        <pt x="372" y="0" on="1"/>
        <pt x="155" y="0" on="1"/>
      </contour>
      <contour>
        <pt x="1433" y="885" on="1"/>
        <pt x="1433" y="1007" on="0"/>
        <pt x="1501" y="1194" on="0"/>
        <pt x="1626" y="1320" on="0"/>
        <pt x="1802" y="1385" on="0"/>
        <pt x="1910" y="1385" on="1"/>
        <pt x="2021" y="1385" on="0"/>
        <pt x="2196" y="1324" on="0"/>
        <pt x="2316" y="1203" on="0"/>
        <pt x="2379" y="1020" on="0"/>
        <pt x="2379" y="899" on="1"/>
        <pt x="2379" y="776" on="0"/>
        <pt x="2315" y="583" on="0"/>
        <pt x="2194" y="451" on="0"/>
        <pt x="2020" y="382" on="0"/>
        <pt x="1910" y="382" on="1"/>
        <pt x="1796" y="382" on="0"/>
        <pt x="1618" y="447" on="0"/>
        <pt x="1497" y="575" on="0"/>
        <pt x="1433" y="762" on="0"/>
      </contour>
      <contour>
        <pt x="1910" y="547" on="1"/>
        <pt x="1976" y="547" on="0"/>
        <pt x="2070" y="602" on="0"/>
        <pt x="2128" y="697" on="0"/>
        <pt x="2155" y="825" on="0"/>
        <pt x="2155" y="899" on="1"/>
        <pt x="2155" y="979" on="0"/>
        <pt x="2128" y="1101" on="0"/>
        <pt x="2070" y="1184" on="0"/>
        <pt x="1976" y="1226" on="0"/>
        <pt x="1910" y="1226" on="1"/>
        <pt x="1843" y="1226" on="0"/>
        <pt x="1747" y="1175" on="0"/>
        <pt x="1686" y="1083" on="0"/>
        <pt x="1657" y="958" on="0"/>
        <pt x="1657" y="885" on="1"/>
        <pt x="1657" y="804" on="0"/>
        <pt x="1686" y="678" on="0"/>
        <pt x="1747" y="592" on="0"/>
        <pt x="1843" y="547" on="0"/>
      </contour>
    </TTGlyph>
    <TTGlyph name="agrave" xMin="64" yMin="-20" xMax="941" yMax="1605">
      <component glyphName="a" x="0" y="0" flags="0x204"/>
      <component glyphName="grave" x="392" y="0" flags="0x4"/>
    </TTGlyph>
    <TTGlyph name="amacron" xMin="64" yMin="-20" xMax="941" yMax="1459">
      <component glyphName="a" x="0" y="0" flags="0x204"/>
      <component glyphName="macron" x="9" y="0" flags="0x4"/>
    </TTGlyph>
    <TTGlyph name="ampersand" xMin="19" yMin="-39" xMax="1259" yMax="1317">
      <contour>
        <pt x="752" y="602" on="1"/>
        <pt x="745" y="627" on="0"/>
        <pt x="743" y="687" on="0"/>
        <pt x="743" y="702" on="1"/>
        <pt x="743" y="719" on="0"/>
        <pt x="753" y="775" on="0"/>
        <pt x="760" y="798" on="1"/>
        <pt x="1259" y="798" on="1"/>
        <pt x="1259" y="772" on="0"/>
        <pt x="1253" y="712" on="0"/>
        <pt x="1243" y="656" on="0"/>
        <pt x="1231" y="611" on="0"/>
        <pt x="1225" y="602" on="1"/>
        <pt x="1138" y="602" on="1"/>
        <pt x="1134" y="555" on="0"/>
        <pt x="1118" y="454" on="0"/>
        <pt x="1093" y="356" on="0"/>
        <pt x="1060" y="267" on="0"/>
        <pt x="1039" y="233" on="1"/>
        <pt x="1081" y="205" on="0"/>
        <pt x="1172" y="149" on="0"/>
        <pt x="1223" y="120" on="1"/>
        <pt x="1215" y="90" on="0"/>
        <pt x="1204" y="62" on="1"/>
        <pt x="1193" y="38" on="0"/>
        <pt x="1161" y="-15" on="0"/>
        <pt x="1135" y="-33" on="1"/>
        <pt x="1110" y="-33" on="1"/>
        <pt x="1055" y="-3" on="0"/>
        <pt x="956" y="57" on="0"/>
        <pt x="909" y="86" on="1"/>
        <pt x="832" y="26" on="0"/>
        <pt x="629" y="-39" on="0"/>
        <pt x="498" y="-39" on="1"/>
        <pt x="447" y="-39" on="0"/>
        <pt x="337" y="-19" on="0"/>
        <pt x="230" y="23" on="0"/>
        <pt x="134" y="86" on="0"/>
        <pt x="62" y="171" on="0"/>
        <pt x="19" y="279" on="0"/>
        <pt x="19" y="344" on="1"/>
        <pt x="19" y="404" on="0"/>
        <pt x="54" y="511" on="0"/>
        <pt x="121" y="600" on="0"/>
        <pt x="219" y="665" on="0"/>
        <pt x="282" y="682" on="1"/>
        <pt x="238" y="764" on="0"/>
        <pt x="208" y="897" on="0"/>
        <pt x="208" y="945" on="1"/>
        <pt x="208" y="1044" on="0"/>
        <pt x="277" y="1185" on="0"/>
        <pt x="391" y="1275" on="0"/>
        <pt x="536" y="1317" on="0"/>
        <pt x="612" y="1317" on="1"/>
        <pt x="688" y="1317" on="0"/>
        <pt x="814" y="1285" on="0"/>
        <pt x="905" y="1221" on="0"/>
        <pt x="956" y="1121" on="0"/>
        <pt x="956" y="1054" on="1"/>
        <pt x="928" y="1049" on="0"/>
        <pt x="895" y="1045" on="1"/>
        <pt x="867" y="1041" on="0"/>
        <pt x="794" y="1035" on="0"/>
        <pt x="754" y="1034" on="1"/>
        <pt x="752" y="1059" on="0"/>
        <pt x="728" y="1098" on="0"/>
        <pt x="686" y="1125" on="0"/>
        <pt x="630" y="1138" on="0"/>
        <pt x="597" y="1138" on="1"/>
        <pt x="516" y="1138" on="0"/>
        <pt x="435" y="1044" on="0"/>
        <pt x="435" y="953" on="1"/>
        <pt x="435" y="920" on="0"/>
        <pt x="446" y="843" on="0"/>
        <pt x="480" y="754" on="0"/>
        <pt x="542" y="652" on="0"/>
        <pt x="644" y="536" on="0"/>
        <pt x="793" y="404" on="0"/>
        <pt x="896" y="330" on="1"/>
        <pt x="911" y="353" on="0"/>
        <pt x="934" y="417" on="0"/>
        <pt x="952" y="490" on="0"/>
        <pt x="964" y="567" on="0"/>
        <pt x="966" y="602" on="1"/>
      </contour>
      <contour>
        <pt x="525" y="140" on="1"/>
        <pt x="584" y="140" on="0"/>
        <pt x="698" y="166" on="0"/>
        <pt x="750" y="194" on="1"/>
        <pt x="601" y="302" on="0"/>
        <pt x="404" y="498" on="0"/>
        <pt x="342" y="586" on="1"/>
        <pt x="297" y="551" on="0"/>
        <pt x="246" y="440" on="0"/>
        <pt x="246" y="372" on="1"/>
        <pt x="246" y="319" on="0"/>
        <pt x="292" y="233" on="0"/>
        <pt x="370" y="173" on="0"/>
        <pt x="471" y="140" on="0"/>
      </contour>
    </TTGlyph>
    <TTGlyph name="aogonek" xMin="64" yMin="-354" xMax="991" yMax="1051">
      <contour>
        <pt x="64" y="292" on="1"/>
        <pt x="64" y="375" on="0"/>
        <pt x="112" y="491" on="0"/>
        <pt x="205" y="565" on="0"/>
        <pt x="338" y="602" on="0"/>
        <pt x="424" y="607" on="1"/>
        <pt x="647" y="619" on="1"/>
        <pt x="647" y="699" on="1"/>
        <pt x="647" y="753" on="0"/>
        <pt x="628" y="823" on="0"/>
        <pt x="584" y="865" on="0"/>
        <pt x="511" y="882" on="0"/>
        <pt x="457" y="882" on="1"/>
        <pt x="403" y="882" on="0"/>
        <pt x="306" y="858" on="0"/>
        <pt x="270" y="844" on="1"/>
        <pt x="227" y="827" on="0"/>
        <pt x="191" y="806" on="1"/>
        <pt x="169" y="837" on="0"/>
        <pt x="143" y="894" on="0"/>
        <pt x="136" y="917" on="1"/>
        <pt x="127" y="943" on="0"/>
        <pt x="124" y="967" on="1"/>
        <pt x="172" y="991" on="0"/>
        <pt x="227" y="1009" on="1"/>
        <pt x="275" y="1025" on="0"/>
        <pt x="400" y="1051" on="0"/>
        <pt x="469" y="1051" on="1"/>
        <pt x="583" y="1051" on="0"/>
        <pt x="733" y="1011" on="0"/>
        <pt x="822" y="930" on="0"/>
        <pt x="857" y="807" on="0"/>
        <pt x="857" y="723" on="1"/>
        <pt x="857" y="165" on="1"/>
        <pt x="941" y="63" on="1"/>
        <pt x="941" y="0" on="1"/>
        <pt x="858" y="0" on="1"/>
        <pt x="829" y="-11" on="0"/>
        <pt x="793" y="-57" on="0"/>
        <pt x="793" y="-94" on="1"/>
        <pt x="793" y="-124" on="0"/>
        <pt x="852" y="-160" on="0"/>
        <pt x="909" y="-160" on="1"/>
        <pt x="929" y="-160" on="0"/>
        <pt x="958" y="-156" on="0"/>
        <pt x="975" y="-151" on="1"/>
        <pt x="984" y="-183" on="0"/>
        <pt x="991" y="-232" on="0"/>
        <pt x="991" y="-253" on="1"/>
        <pt x="991" y="-274" on="0"/>
        <pt x="986" y="-308" on="0"/>
        <pt x="984" y="-319" on="1"/>
        <pt x="981" y="-333" on="0"/>
        <pt x="978" y="-343" on="1"/>
        <pt x="967" y="-346" on="0"/>
        <pt x="954" y="-349" on="1"/>
        <pt x="929" y="-354" on="0"/>
        <pt x="893" y="-354" on="1"/>
        <pt x="825" y="-354" on="0"/>
        <pt x="722" y="-321" on="0"/>
        <pt x="652" y="-262" on="0"/>
        <pt x="616" y="-181" on="0"/>
        <pt x="616" y="-133" on="1"/>
        <pt x="616" y="-108" on="0"/>
        <pt x="632" y="-56" on="0"/>
        <pt x="659" y="-8" on="0"/>
        <pt x="693" y="34" on="0"/>
        <pt x="711" y="51" on="1"/>
        <pt x="679" y="89" on="1"/>
        <pt x="643" y="89" on="1"/>
        <pt x="638" y="84" on="0"/>
        <pt x="595" y="49" on="0"/>
        <pt x="528" y="10" on="0"/>
        <pt x="443" y="-20" on="0"/>
        <pt x="395" y="-20" on="1"/>
        <pt x="320" y="-20" on="0"/>
        <pt x="198" y="25" on="0"/>
        <pt x="111" y="108" on="0"/>
        <pt x="64" y="223" on="0"/>
      </contour>
      <contour>
        <pt x="282" y="310" on="1"/>
        <pt x="282" y="264" on="0"/>
        <pt x="308" y="203" on="0"/>
        <pt x="355" y="167" on="0"/>
        <pt x="422" y="153" on="0"/>
        <pt x="463" y="153" on="1"/>
        <pt x="501" y="153" on="0"/>
        <pt x="568" y="172" on="0"/>
        <pt x="593" y="184" on="1"/>
        <pt x="622" y="197" on="0"/>
        <pt x="647" y="215" on="1"/>
        <pt x="647" y="484" on="1"/>
        <pt x="446" y="471" on="1"/>
        <pt x="399" y="468" on="0"/>
        <pt x="336" y="442" on="0"/>
        <pt x="298" y="400" on="0"/>
        <pt x="282" y="343" on="0"/>
      </contour>
    </TTGlyph>
    <TTGlyph name="approxequal" xMin="186" yMin="88" xMax="1176" yMax="936">
      <component glyphName="asciitilde" x="91" y="140" flags="0x4"/>
      <component glyphName="asciitilde" x="91" y="-330" flags="0x4"/>
    </TTGlyph>
    <TTGlyph name="aring" xMin="64" yMin="-20" xMax="941" yMax="1680">
      <component glyphName="a" x="0" y="0" flags="0x204"/>
      <component glyphName="ring" x="225" y="0" flags="0x4"/>
    </TTGlyph>
    <TTGlyph name="arrowdown" xMin="173" yMin="147" xMax="1356" yMax="1456">
      <component glyphName="arrowup" x="0" y="1596" scalex="1.0" scaley="-0.999877929688" flags="0x4"/>
    </TTGlyph>
    <TTGlyph name="arrowleft" xMin="110" yMin="175" xMax="1420" yMax="1358">
      <contour>
        <pt x="110" y="766" on="1"/>
        <pt x="703" y="1358" on="1"/>
        <pt x="835" y="1203" on="1"/>
        <pt x="455" y="844" on="1"/>
        <pt x="913" y="876" on="1"/>
        <pt x="1420" y="877" on="1"/>
        <pt x="1418" y="656" on="1"/>
        <pt x="913" y="657" on="1"/>
        <pt x="455" y="688" on="1"/>
        <pt x="835" y="330" on="1"/>
        <pt x="703" y="175" on="1"/>
      </contour>
    </TTGlyph>
    <TTGlyph name="arrowright" xMin="116" yMin="175" xMax="1426" yMax="1358">
      <component glyphName="arrowleft" x="1536" y="0" scalex="-0.999877929688" scaley="1.0" flags="0x4"/>
    </TTGlyph>
    <TTGlyph name="arrowup" xMin="173" yMin="140" xMax="1356" yMax="1449">
      <contour>
        <pt x="764" y="1449" on="1"/>
        <pt x="1356" y="857" on="1"/>
        <pt x="1201" y="725" on="1"/>
        <pt x="842" y="1105" on="1"/>
        <pt x="873" y="647" on="1"/>
        <pt x="875" y="140" on="1"/>
        <pt x="654" y="142" on="1"/>
        <pt x="655" y="647" on="1"/>
        <pt x="685" y="1105" on="1"/>
        <pt x="327" y="725" on="1"/>
        <pt x="173" y="857" on="1"/>
      </contour>
    </TTGlyph>
    <TTGlyph name="asciicircum" xMin="124" yMin="142" xMax="1056" yMax="1358">
      <contour>
        <pt x="512" y="1358" on="1"/>
        <pt x="671" y="1358" on="1"/>
        <pt x="1056" y="220" on="1"/>
        <pt x="885" y="142" on="1"/>
        <pt x="601" y="1065" on="1"/>
        <pt x="591" y="1117" on="1"/>
        <pt x="580" y="1065" on="1"/>
        <pt x="295" y="142" on="1"/>
        <pt x="124" y="220" on="1"/>
      </contour>
    </TTGlyph>
    <TTGlyph name="asciitilde" xMin="95" yMin="418" xMax="1085" yMax="796">
      <contour>
        <pt x="230" y="452" on="1"/>
        <pt x="195" y="466" on="0"/>
        <pt x="145" y="501" on="0"/>
        <pt x="128" y="515" on="1"/>
        <pt x="109" y="532" on="0"/>
        <pt x="95" y="549" on="1"/>
        <pt x="123" y="617" on="0"/>
        <pt x="167" y="672" on="1"/>
        <pt x="186" y="695" on="0"/>
        <pt x="234" y="740" on="0"/>
        <pt x="295" y="775" on="0"/>
        <pt x="367" y="796" on="0"/>
        <pt x="410" y="796" on="1"/>
        <pt x="452" y="796" on="0"/>
        <pt x="522" y="773" on="0"/>
        <pt x="582" y="738" on="0"/>
        <pt x="632" y="698" on="0"/>
        <pt x="653" y="681" on="1"/>
        <pt x="691" y="651" on="0"/>
        <pt x="756" y="602" on="0"/>
        <pt x="789" y="602" on="1"/>
        <pt x="828" y="602" on="0"/>
        <pt x="887" y="648" on="0"/>
        <pt x="907" y="677" on="1"/>
        <pt x="930" y="710" on="0"/>
        <pt x="947" y="752" on="1"/>
        <pt x="985" y="736" on="0"/>
        <pt x="1037" y="702" on="0"/>
        <pt x="1054" y="688" on="1"/>
        <pt x="1073" y="671" on="0"/>
        <pt x="1085" y="654" on="1"/>
        <pt x="1060" y="588" on="0"/>
        <pt x="1018" y="536" on="1"/>
        <pt x="1000" y="514" on="0"/>
        <pt x="953" y="471" on="0"/>
        <pt x="895" y="438" on="0"/>
        <pt x="823" y="418" on="0"/>
        <pt x="781" y="418" on="1"/>
        <pt x="740" y="418" on="0"/>
        <pt x="670" y="440" on="0"/>
        <pt x="611" y="474" on="0"/>
        <pt x="562" y="512" on="0"/>
        <pt x="542" y="529" on="1"/>
        <pt x="504" y="561" on="0"/>
        <pt x="435" y="602" on="0"/>
        <pt x="397" y="602" on="1"/>
        <pt x="358" y="602" on="0"/>
        <pt x="296" y="555" on="0"/>
        <pt x="274" y="527" on="1"/>
        <pt x="248" y="494" on="0"/>
      </contour>
    </TTGlyph>
    <TTGlyph name="asterisk" xMin="37" yMin="496" xMax="904" yMax="1352">
      <contour>
        <pt x="166" y="579" on="1"/>
        <pt x="148" y="588" on="0"/>
        <pt x="133" y="601" on="1"/>
        <pt x="120" y="612" on="0"/>
        <pt x="94" y="646" on="0"/>
        <pt x="89" y="669" on="1"/>
        <pt x="123" y="699" on="0"/>
        <pt x="157" y="733" on="1"/>
        <pt x="186" y="762" on="0"/>
        <pt x="256" y="840" on="0"/>
        <pt x="288" y="882" on="1"/>
        <pt x="228" y="914" on="0"/>
        <pt x="136" y="985" on="0"/>
        <pt x="104" y="1015" on="1"/>
        <pt x="66" y="1050" on="0"/>
        <pt x="37" y="1084" on="1"/>
        <pt x="40" y="1097" on="0"/>
        <pt x="49" y="1112" on="1"/>
        <pt x="57" y="1125" on="0"/>
        <pt x="85" y="1156" on="0"/>
        <pt x="110" y="1173" on="1"/>
        <pt x="145" y="1153" on="0"/>
        <pt x="186" y="1132" on="1"/>
        <pt x="221" y="1114" on="0"/>
        <pt x="312" y="1072" on="0"/>
        <pt x="362" y="1054" on="1"/>
        <pt x="375" y="1117" on="0"/>
        <pt x="414" y="1224" on="0"/>
        <pt x="433" y="1264" on="1"/>
        <pt x="455" y="1311" on="0"/>
        <pt x="478" y="1349" on="1"/>
        <pt x="498" y="1352" on="0"/>
        <pt x="519" y="1349" on="1"/>
        <pt x="537" y="1347" on="0"/>
        <pt x="581" y="1333" on="0"/>
        <pt x="602" y="1317" on="1"/>
        <pt x="593" y="1275" on="0"/>
        <pt x="586" y="1227" on="1"/>
        <pt x="580" y="1186" on="0"/>
        <pt x="568" y="1084" on="0"/>
        <pt x="566" y="1031" on="1"/>
        <pt x="592" y="1034" on="0"/>
        <pt x="648" y="1037" on="0"/>
        <pt x="673" y="1037" on="1"/>
        <pt x="719" y="1037" on="0"/>
        <pt x="797" y="1029" on="0"/>
        <pt x="826" y="1024" on="1"/>
        <pt x="859" y="1019" on="0"/>
        <pt x="887" y="1012" on="1"/>
        <pt x="891" y="1003" on="0"/>
        <pt x="895" y="993" on="1"/>
        <pt x="898" y="985" on="0"/>
        <pt x="904" y="962" on="0"/>
        <pt x="904" y="951" on="1"/>
        <pt x="904" y="956" on="0"/>
        <pt x="885" y="903" on="1"/>
        <pt x="842" y="898" on="0"/>
        <pt x="794" y="891" on="1"/>
        <pt x="753" y="884" on="0"/>
        <pt x="653" y="864" on="0"/>
        <pt x="602" y="849" on="1"/>
        <pt x="632" y="787" on="0"/>
        <pt x="666" y="677" on="0"/>
        <pt x="675" y="634" on="1"/>
        <pt x="686" y="584" on="0"/>
        <pt x="689" y="541" on="1"/>
        <pt x="675" y="528" on="0"/>
        <pt x="658" y="518" on="1"/>
        <pt x="644" y="510" on="0"/>
        <pt x="604" y="496" on="0"/>
        <pt x="580" y="498" on="1"/>
        <pt x="560" y="506" on="1"/>
        <pt x="544" y="543" on="0"/>
        <pt x="525" y="583" on="1"/>
        <pt x="508" y="618" on="0"/>
        <pt x="461" y="702" on="0"/>
        <pt x="432" y="747" on="1"/>
        <pt x="385" y="705" on="0"/>
        <pt x="290" y="642" on="0"/>
        <pt x="252" y="621" on="1"/>
        <pt x="207" y="596" on="0"/>
      </contour>
    </TTGlyph>
    <TTGlyph name="at" xMin="60" yMin="-230" xMax="1786" yMax="1385">
      <contour>
        <pt x="60" y="437" on="1"/>
        <pt x="60" y="604" on="0"/>
        <pt x="143" y="875" on="0"/>
        <pt x="286" y="1085" on="0"/>
        <pt x="476" y="1238" on="0"/>
        <pt x="689" y="1337" on="0"/>
        <pt x="913" y="1385" on="0"/>
        <pt x="1019" y="1385" on="1"/>
        <pt x="1178" y="1385" on="0"/>
        <pt x="1458" y="1312" on="0"/>
        <pt x="1666" y="1162" on="0"/>
        <pt x="1786" y="931" on="0"/>
        <pt x="1786" y="773" on="1"/>
        <pt x="1786" y="682" on="0"/>
        <pt x="1746" y="516" on="0"/>
        <pt x="1674" y="373" on="0"/>
        <pt x="1571" y="256" on="0"/>
        <pt x="1447" y="174" on="0"/>
        <pt x="1303" y="129" on="0"/>
        <pt x="1225" y="129" on="1"/>
        <pt x="1164" y="129" on="0"/>
        <pt x="1085" y="154" on="0"/>
        <pt x="1039" y="198" on="0"/>
        <pt x="1020" y="260" on="0"/>
        <pt x="1020" y="298" on="1"/>
        <pt x="1005" y="276" on="0"/>
        <pt x="958" y="222" on="0"/>
        <pt x="894" y="176" on="0"/>
        <pt x="815" y="144" on="0"/>
        <pt x="769" y="144" on="1"/>
        <pt x="713" y="144" on="0"/>
        <pt x="613" y="186" on="0"/>
        <pt x="538" y="270" on="0"/>
        <pt x="495" y="397" on="0"/>
        <pt x="495" y="483" on="1"/>
        <pt x="495" y="563" on="0"/>
        <pt x="531" y="707" on="0"/>
        <pt x="595" y="829" on="0"/>
        <pt x="680" y="928" on="0"/>
        <pt x="779" y="997" on="0"/>
        <pt x="885" y="1034" on="0"/>
        <pt x="937" y="1034" on="1"/>
        <pt x="959" y="1034" on="0"/>
        <pt x="1005" y="1027" on="0"/>
        <pt x="1024" y="1022" on="1"/>
        <pt x="1046" y="1017" on="0"/>
        <pt x="1067" y="1010" on="1"/>
        <pt x="1070" y="1034" on="1"/>
        <pt x="1273" y="1034" on="1"/>
        <pt x="1201" y="433" on="1"/>
        <pt x="1194" y="374" on="0"/>
        <pt x="1191" y="300" on="0"/>
        <pt x="1206" y="259" on="0"/>
        <pt x="1242" y="245" on="0"/>
        <pt x="1272" y="245" on="1"/>
        <pt x="1328" y="245" on="0"/>
        <pt x="1448" y="302" on="0"/>
        <pt x="1548" y="424" on="0"/>
        <pt x="1613" y="616" on="0"/>
        <pt x="1613" y="750" on="1"/>
        <pt x="1613" y="879" on="0"/>
        <pt x="1520" y="1069" on="0"/>
        <pt x="1357" y="1195" on="0"/>
        <pt x="1135" y="1257" on="0"/>
        <pt x="1007" y="1257" on="1"/>
        <pt x="837" y="1257" on="0"/>
        <pt x="553" y="1149" on="0"/>
        <pt x="349" y="953" on="0"/>
        <pt x="236" y="675" on="0"/>
        <pt x="236" y="506" on="1"/>
        <pt x="236" y="363" on="0"/>
        <pt x="329" y="140" on="0"/>
        <pt x="500" y="-13" on="0"/>
        <pt x="741" y="-93" on="0"/>
        <pt x="889" y="-93" on="1"/>
        <pt x="948" y="-93" on="0"/>
        <pt x="1045" y="-79" on="0"/>
        <pt x="1081" y="-71" on="1"/>
        <pt x="1122" y="-61" on="0"/>
        <pt x="1157" y="-48" on="1"/>
        <pt x="1167" y="-64" on="0"/>
        <pt x="1177" y="-82" on="1"/>
        <pt x="1185" y="-97" on="0"/>
        <pt x="1201" y="-136" on="0"/>
        <pt x="1205" y="-156" on="1"/>
        <pt x="1159" y="-177" on="0"/>
        <pt x="1105" y="-193" on="1"/>
        <pt x="1058" y="-207" on="0"/>
        <pt x="936" y="-230" on="0"/>
        <pt x="867" y="-230" on="1"/>
        <pt x="673" y="-230" on="0"/>
        <pt x="373" y="-135" on="0"/>
        <pt x="167" y="39" on="0"/>
        <pt x="60" y="285" on="0"/>
      </contour>
      <contour>
        <pt x="708" y="505" on="1"/>
        <pt x="708" y="288" on="0"/>
        <pt x="843" y="288" on="1"/>
        <pt x="885" y="288" on="0"/>
        <pt x="945" y="325" on="0"/>
        <pt x="965" y="348" on="1"/>
        <pt x="988" y="374" on="0"/>
        <pt x="1003" y="408" on="1"/>
        <pt x="1054" y="900" on="1"/>
        <pt x="1041" y="904" on="0"/>
        <pt x="1004" y="920" on="0"/>
        <pt x="968" y="920" on="1"/>
        <pt x="908" y="920" on="0"/>
        <pt x="812" y="850" on="0"/>
        <pt x="745" y="735" on="0"/>
        <pt x="708" y="585" on="0"/>
      </contour>
    </TTGlyph>
    <TTGlyph name="atilde" xMin="64" yMin="-20" xMax="941" yMax="1498">
      <component glyphName="a" x="0" y="0" flags="0x204"/>
      <component glyphName="tilde" x="72" y="0" flags="0x4"/>
    </TTGlyph>
    <TTGlyph name="b" xMin="136" yMin="-20" xMax="1010" yMax="1439">
      <contour>
        <pt x="136" y="1439" on="1"/>
        <pt x="348" y="1439" on="1"/>
        <pt x="348" y="962" on="1"/>
        <pt x="354" y="962" on="1"/>
        <pt x="361" y="968" on="0"/>
        <pt x="403" y="998" on="0"/>
        <pt x="470" y="1028" on="0"/>
        <pt x="559" y="1051" on="0"/>
        <pt x="615" y="1051" on="1"/>
        <pt x="691" y="1051" on="0"/>
        <pt x="834" y="1003" on="0"/>
        <pt x="944" y="885" on="0"/>
        <pt x="1010" y="684" on="0"/>
        <pt x="1010" y="531" on="1"/>
        <pt x="1010" y="393" on="0"/>
        <pt x="930" y="187" on="0"/>
        <pt x="794" y="49" on="0"/>
        <pt x="613" y="-20" on="0"/>
        <pt x="512" y="-20" on="1"/>
        <pt x="421" y="-20" on="0"/>
        <pt x="282" y="-6" on="0"/>
        <pt x="234" y="3" on="1"/>
        <pt x="178" y="13" on="0"/>
        <pt x="136" y="26" on="1"/>
      </contour>
      <contour>
        <pt x="348" y="157" on="1"/>
        <pt x="362" y="151" on="0"/>
        <pt x="421" y="135" on="0"/>
        <pt x="467" y="135" on="1"/>
        <pt x="622" y="135" on="0"/>
        <pt x="785" y="341" on="0"/>
        <pt x="785" y="531" on="1"/>
        <pt x="785" y="637" on="0"/>
        <pt x="746" y="775" on="0"/>
        <pt x="674" y="856" on="0"/>
        <pt x="571" y="888" on="0"/>
        <pt x="506" y="888" on="1"/>
        <pt x="479" y="888" on="0"/>
        <pt x="423" y="871" on="0"/>
        <pt x="400" y="860" on="1"/>
        <pt x="373" y="848" on="0"/>
        <pt x="348" y="833" on="1"/>
      </contour>
    </TTGlyph>
    <TTGlyph name="backslash" xMin="53" yMin="-232" xMax="808" yMax="1377">
      <contour>
        <pt x="374" y="484" on="1"/>
        <pt x="53" y="1309" on="1"/>
        <pt x="72" y="1332" on="0"/>
        <pt x="130" y="1357" on="0"/>
        <pt x="159" y="1365" on="1"/>
        <pt x="192" y="1373" on="0"/>
        <pt x="228" y="1377" on="1"/>
        <pt x="528" y="547" on="1"/>
        <pt x="808" y="-153" on="1"/>
        <pt x="782" y="-176" on="0"/>
        <pt x="721" y="-206" on="0"/>
        <pt x="693" y="-215" on="1"/>
        <pt x="660" y="-226" on="0"/>
        <pt x="628" y="-232" on="1"/>
      </contour>
    </TTGlyph>
    <TTGlyph name="bar" xMin="152" yMin="-166" xMax="366" yMax="1517">
      <contour>
        <pt x="152" y="1517" on="1"/>
        <pt x="366" y="1517" on="1"/>
        <pt x="366" y="-166" on="1"/>
        <pt x="152" y="-166" on="1"/>
      </contour>
    </TTGlyph>
    <TTGlyph name="braceleft" xMin="60" yMin="-270" xMax="607" yMax="1583">
      <contour>
        <pt x="192" y="127" on="1"/>
        <pt x="192" y="166" on="0"/>
        <pt x="204" y="243" on="0"/>
        <pt x="212" y="281" on="1"/>
        <pt x="220" y="320" on="0"/>
        <pt x="231" y="398" on="0"/>
        <pt x="231" y="439" on="1"/>
        <pt x="231" y="496" on="0"/>
        <pt x="203" y="559" on="0"/>
        <pt x="157" y="589" on="0"/>
        <pt x="99" y="596" on="0"/>
        <pt x="69" y="596" on="1"/>
        <pt x="60" y="638" on="0"/>
        <pt x="60" y="667" on="1"/>
        <pt x="60" y="695" on="0"/>
        <pt x="63" y="715" on="1"/>
        <pt x="65" y="726" on="0"/>
        <pt x="67" y="736" on="1"/>
        <pt x="90" y="746" on="1"/>
        <pt x="115" y="746" on="0"/>
        <pt x="166" y="752" on="0"/>
        <pt x="205" y="781" on="0"/>
        <pt x="230" y="839" on="0"/>
        <pt x="230" y="890" on="1"/>
        <pt x="230" y="926" on="0"/>
        <pt x="219" y="1001" on="0"/>
        <pt x="212" y="1038" on="1"/>
        <pt x="204" y="1075" on="0"/>
        <pt x="193" y="1155" on="0"/>
        <pt x="193" y="1197" on="1"/>
        <pt x="193" y="1286" on="0"/>
        <pt x="246" y="1422" on="0"/>
        <pt x="340" y="1518" on="0"/>
        <pt x="472" y="1574" on="0"/>
        <pt x="550" y="1583" on="1"/>
        <pt x="565" y="1569" on="0"/>
        <pt x="576" y="1551" on="1"/>
        <pt x="586" y="1535" on="0"/>
        <pt x="604" y="1488" on="0"/>
        <pt x="607" y="1456" on="1"/>
        <pt x="559" y="1448" on="0"/>
        <pt x="481" y="1412" on="0"/>
        <pt x="426" y="1353" on="0"/>
        <pt x="396" y="1268" on="0"/>
        <pt x="396" y="1211" on="1"/>
        <pt x="396" y="1182" on="0"/>
        <pt x="404" y="1121" on="0"/>
        <pt x="409" y="1089" on="1"/>
        <pt x="414" y="1055" on="0"/>
        <pt x="423" y="985" on="0"/>
        <pt x="423" y="943" on="1"/>
        <pt x="423" y="863" on="0"/>
        <pt x="389" y="767" on="0"/>
        <pt x="341" y="712" on="0"/>
        <pt x="292" y="690" on="0"/>
        <pt x="277" y="684" on="1"/>
        <pt x="285" y="657" on="1"/>
        <pt x="312" y="643" on="0"/>
        <pt x="362" y="603" on="0"/>
        <pt x="401" y="543" on="0"/>
        <pt x="424" y="459" on="0"/>
        <pt x="424" y="399" on="1"/>
        <pt x="424" y="362" on="0"/>
        <pt x="416" y="291" on="0"/>
        <pt x="411" y="256" on="1"/>
        <pt x="406" y="220" on="0"/>
        <pt x="397" y="147" on="0"/>
        <pt x="397" y="109" on="1"/>
        <pt x="397" y="50" on="0"/>
        <pt x="427" y="-39" on="0"/>
        <pt x="482" y="-100" on="0"/>
        <pt x="559" y="-138" on="0"/>
        <pt x="606" y="-146" on="1"/>
        <pt x="605" y="-176" on="0"/>
        <pt x="588" y="-222" on="0"/>
        <pt x="577" y="-238" on="1"/>
        <pt x="565" y="-256" on="0"/>
        <pt x="549" y="-270" on="1"/>
        <pt x="471" y="-261" on="0"/>
        <pt x="340" y="-204" on="0"/>
        <pt x="245" y="-106" on="0"/>
        <pt x="192" y="34" on="0"/>
      </contour>
    </TTGlyph>
    <TTGlyph name="braceright" xMin="20" yMin="-270" xMax="567" yMax="1583">
      <component glyphName="braceleft" x="627" y="0" scalex="-0.999938964844" scaley="1.0" flags="0x4"/>
    </TTGlyph>
    <TTGlyph name="bracketleft" xMin="90" yMin="-331" xMax="537" yMax="1538">
      <contour>
        <pt x="90" y="1538" on="1"/>
        <pt x="537" y="1538" on="1"/>
        <pt x="537" y="1403" on="1"/>
        <pt x="294" y="1403" on="1"/>
        <pt x="294" y="-196" on="1"/>
        <pt x="537" y="-196" on="1"/>
        <pt x="537" y="-331" on="1"/>
        <pt x="90" y="-331" on="1"/>
      </contour>
    </TTGlyph>
    <TTGlyph name="bracketright" xMin="50" yMin="-331" xMax="497" yMax="1538">
      <component glyphName="bracketleft" x="587" y="0" scalex="-0.999938964844" scaley="1.0" flags="0x4"/>
    </TTGlyph>
    <TTGlyph name="breve" xMin="-17" yMin="1180" xMax="689" yMax="1609">
      <contour>
        <pt x="336" y="1180" on="1"/>
        <pt x="258" y="1180" on="0"/>
        <pt x="129" y="1237" on="0"/>
        <pt x="35" y="1343" on="0"/>
        <pt x="-17" y="1493" on="0"/>
        <pt x="-17" y="1587" on="1"/>
        <pt x="8" y="1598" on="0"/>
        <pt x="66" y="1609" on="0"/>
        <pt x="81" y="1609" on="1"/>
        <pt x="98" y="1609" on="0"/>
        <pt x="145" y="1600" on="0"/>
        <pt x="175" y="1589" on="1"/>
        <pt x="175" y="1532" on="0"/>
        <pt x="191" y="1439" on="0"/>
        <pt x="229" y="1371" on="0"/>
        <pt x="291" y="1334" on="0"/>
        <pt x="336" y="1334" on="1"/>
        <pt x="381" y="1334" on="0"/>
        <pt x="443" y="1372" on="0"/>
        <pt x="480" y="1440" on="0"/>
        <pt x="497" y="1534" on="0"/>
        <pt x="497" y="1589" on="1"/>
        <pt x="527" y="1600" on="0"/>
        <pt x="573" y="1609" on="0"/>
        <pt x="590" y="1609" on="1"/>
        <pt x="605" y="1609" on="0"/>
        <pt x="663" y="1599" on="0"/>
        <pt x="689" y="1586" on="1"/>
        <pt x="689" y="1493" on="0"/>
        <pt x="637" y="1342" on="0"/>
        <pt x="543" y="1237" on="0"/>
        <pt x="413" y="1180" on="0"/>
      </contour>
    </TTGlyph>
    <TTGlyph name="breve.cap" xMin="-6" yMin="1488" xMax="681" yMax="1860">
      <contour>
        <pt x="338" y="1488" on="1"/>
        <pt x="272" y="1488" on="0"/>
        <pt x="148" y="1527" on="0"/>
        <pt x="52" y="1611" on="0"/>
        <pt x="-6" y="1744" on="0"/>
        <pt x="-6" y="1837" on="1"/>
        <pt x="20" y="1849" on="0"/>
        <pt x="68" y="1860" on="0"/>
        <pt x="83" y="1860" on="1"/>
        <pt x="100" y="1860" on="0"/>
        <pt x="147" y="1850" on="0"/>
        <pt x="177" y="1839" on="1"/>
        <pt x="177" y="1758" on="0"/>
        <pt x="262" y="1662" on="0"/>
        <pt x="338" y="1662" on="1"/>
        <pt x="413" y="1662" on="0"/>
        <pt x="499" y="1758" on="0"/>
        <pt x="499" y="1839" on="1"/>
        <pt x="529" y="1850" on="0"/>
        <pt x="575" y="1860" on="0"/>
        <pt x="592" y="1860" on="1"/>
        <pt x="607" y="1860" on="0"/>
        <pt x="655" y="1850" on="0"/>
        <pt x="681" y="1836" on="1"/>
        <pt x="681" y="1743" on="0"/>
        <pt x="623" y="1611" on="0"/>
        <pt x="528" y="1527" on="0"/>
        <pt x="404" y="1488" on="0"/>
      </contour>
    </TTGlyph>
    <TTGlyph name="brokenbar" xMin="152" yMin="-166" xMax="366" yMax="1517">
      <contour>
        <pt x="152" y="1517" on="1"/>
        <pt x="366" y="1517" on="1"/>
        <pt x="366" y="829" on="1"/>
        <pt x="152" y="829" on="1"/>
      </contour>
      <contour>
        <pt x="152" y="523" on="1"/>
        <pt x="366" y="523" on="1"/>
        <pt x="366" y="-166" on="1"/>
        <pt x="152" y="-166" on="1"/>
      </contour>
    </TTGlyph>
    <TTGlyph name="bullet" xMin="120" yMin="362" xMax="511" yMax="731">
      <contour>
        <pt x="316" y="362" on="1"/>
        <pt x="276" y="362" on="0"/>
        <pt x="205" y="391" on="0"/>
        <pt x="151" y="441" on="0"/>
        <pt x="120" y="508" on="0"/>
        <pt x="120" y="546" on="1"/>
        <pt x="120" y="584" on="0"/>
        <pt x="151" y="652" on="0"/>
        <pt x="205" y="702" on="0"/>
        <pt x="276" y="731" on="0"/>
        <pt x="316" y="731" on="1"/>
        <pt x="356" y="731" on="0"/>
        <pt x="427" y="702" on="0"/>
        <pt x="480" y="652" on="0"/>
        <pt x="511" y="584" on="0"/>
        <pt x="511" y="546" on="1"/>
        <pt x="511" y="508" on="0"/>
        <pt x="480" y="441" on="0"/>
        <pt x="427" y="391" on="0"/>
        <pt x="356" y="362" on="0"/>
      </contour>
    </TTGlyph>
    <TTGlyph name="c" xMin="79" yMin="-20" xMax="809" yMax="1051">
      <contour>
        <pt x="79" y="513" on="1"/>
        <pt x="79" y="645" on="0"/>
        <pt x="143" y="846" on="0"/>
        <pt x="266" y="982" on="0"/>
        <pt x="445" y="1051" on="0"/>
        <pt x="560" y="1051" on="1"/>
        <pt x="602" y="1051" on="0"/>
        <pt x="688" y="1035" on="0"/>
        <pt x="723" y="1026" on="1"/>
        <pt x="763" y="1015" on="0"/>
        <pt x="801" y="1001" on="1"/>
        <pt x="798" y="973" on="0"/>
        <pt x="792" y="943" on="1"/>
        <pt x="787" y="917" on="0"/>
        <pt x="768" y="856" on="0"/>
        <pt x="754" y="827" on="1"/>
        <pt x="727" y="838" on="0"/>
        <pt x="696" y="848" on="1"/>
        <pt x="669" y="856" on="0"/>
        <pt x="599" y="870" on="0"/>
        <pt x="560" y="870" on="1"/>
        <pt x="493" y="870" on="0"/>
        <pt x="394" y="821" on="0"/>
        <pt x="328" y="728" on="0"/>
        <pt x="296" y="596" on="0"/>
        <pt x="296" y="514" on="1"/>
        <pt x="296" y="334" on="0"/>
        <pt x="435" y="148" on="0"/>
        <pt x="570" y="148" on="1"/>
        <pt x="610" y="148" on="0"/>
        <pt x="682" y="161" on="0"/>
        <pt x="711" y="169" on="1"/>
        <pt x="744" y="179" on="0"/>
        <pt x="773" y="191" on="1"/>
        <pt x="783" y="169" on="0"/>
        <pt x="791" y="143" on="1"/>
        <pt x="798" y="120" on="0"/>
        <pt x="809" y="61" on="0"/>
        <pt x="808" y="27" on="1"/>
        <pt x="771" y="14" on="0"/>
        <pt x="731" y="3" on="1"/>
        <pt x="697" y="-6" on="0"/>
        <pt x="612" y="-20" on="0"/>
        <pt x="570" y="-20" on="1"/>
        <pt x="335" y="-20" on="0"/>
        <pt x="79" y="248" on="0"/>
      </contour>
    </TTGlyph>
    <TTGlyph name="cacute" xMin="79" yMin="-20" xMax="809" yMax="1605">
      <component glyphName="c" x="0" y="0" flags="0x204"/>
      <component glyphName="acute" x="91" y="0" flags="0x4"/>
    </TTGlyph>
    <TTGlyph name="caron" xMin="143" yMin="1183" xMax="859" yMax="1615">
      <contour>
        <pt x="143" y="1615" on="1"/>
        <pt x="342" y="1615" on="1"/>
        <pt x="502" y="1302" on="1"/>
        <pt x="511" y="1302" on="1"/>
        <pt x="657" y="1615" on="1"/>
        <pt x="859" y="1615" on="1"/>
        <pt x="634" y="1183" on="1"/>
        <pt x="366" y="1183" on="1"/>
      </contour>
    </TTGlyph>
    <TTGlyph name="caron.cap" xMin="-29" yMin="1492" xMax="698" yMax="1848">
      <contour>
        <pt x="-29" y="1848" on="1"/>
        <pt x="171" y="1848" on="1"/>
        <pt x="331" y="1631" on="1"/>
        <pt x="349" y="1631" on="1"/>
        <pt x="496" y="1848" on="1"/>
        <pt x="698" y="1848" on="1"/>
        <pt x="464" y="1492" on="1"/>
        <pt x="198" y="1492" on="1"/>
      </contour>
    </TTGlyph>
    <TTGlyph name="caronvertical" xMin="117" yMin="980" xMax="358" yMax="1433">
      <contour>
        <pt x="206" y="980" on="1"/>
        <pt x="186" y="980" on="0"/>
        <pt x="144" y="988" on="0"/>
        <pt x="127" y="1000" on="1"/>
        <pt x="117" y="1014" on="1"/>
        <pt x="124" y="1042" on="0"/>
        <pt x="130" y="1075" on="1"/>
        <pt x="135" y="1104" on="0"/>
        <pt x="144" y="1179" on="0"/>
        <pt x="144" y="1224" on="1"/>
        <pt x="144" y="1265" on="0"/>
        <pt x="133" y="1357" on="0"/>
        <pt x="118" y="1405" on="1"/>
        <pt x="119" y="1405" on="0"/>
        <pt x="143" y="1414" on="0"/>
        <pt x="178" y="1425" on="0"/>
        <pt x="222" y="1433" on="0"/>
        <pt x="244" y="1433" on="1"/>
        <pt x="269" y="1433" on="0"/>
        <pt x="322" y="1420" on="0"/>
        <pt x="348" y="1402" on="1"/>
        <pt x="353" y="1376" on="0"/>
        <pt x="358" y="1324" on="0"/>
        <pt x="358" y="1298" on="1"/>
        <pt x="358" y="1234" on="0"/>
        <pt x="332" y="1124" on="0"/>
        <pt x="316" y="1082" on="1"/>
        <pt x="298" y="1034" on="0"/>
        <pt x="274" y="992" on="1"/>
        <pt x="263" y="989" on="0"/>
        <pt x="252" y="986" on="1"/>
        <pt x="242" y="984" on="0"/>
        <pt x="217" y="980" on="0"/>
      </contour>
    </TTGlyph>
    <TTGlyph name="ccaron" xMin="79" yMin="-20" xMax="859" yMax="1615">
      <component glyphName="c" x="0" y="0" flags="0x204"/>
      <component glyphName="caron" x="0" y="0" flags="0x4"/>
    </TTGlyph>
    <TTGlyph name="ccedilla" xMin="79" yMin="-434" xMax="809" yMax="1050">
      <contour>
        <pt x="79" y="513" on="1"/>
        <pt x="79" y="645" on="0"/>
        <pt x="143" y="845" on="0"/>
        <pt x="266" y="981" on="0"/>
        <pt x="445" y="1050" on="0"/>
        <pt x="560" y="1050" on="1"/>
        <pt x="602" y="1050" on="0"/>
        <pt x="688" y="1034" on="0"/>
        <pt x="723" y="1025" on="1"/>
        <pt x="763" y="1014" on="0"/>
        <pt x="801" y="1000" on="1"/>
        <pt x="798" y="972" on="0"/>
        <pt x="792" y="942" on="1"/>
        <pt x="787" y="916" on="0"/>
        <pt x="768" y="855" on="0"/>
        <pt x="754" y="826" on="1"/>
        <pt x="727" y="837" on="0"/>
        <pt x="696" y="847" on="1"/>
        <pt x="669" y="855" on="0"/>
        <pt x="599" y="869" on="0"/>
        <pt x="560" y="869" on="1"/>
        <pt x="493" y="869" on="0"/>
        <pt x="394" y="820" on="0"/>
        <pt x="328" y="728" on="0"/>
        <pt x="296" y="596" on="0"/>
        <pt x="296" y="514" on="1"/>
        <pt x="296" y="334" on="0"/>
        <pt x="435" y="148" on="0"/>
        <pt x="570" y="148" on="1"/>
        <pt x="610" y="148" on="0"/>
        <pt x="682" y="161" on="0"/>
        <pt x="711" y="169" on="1"/>
        <pt x="744" y="179" on="0"/>
        <pt x="773" y="191" on="1"/>
        <pt x="783" y="169" on="0"/>
        <pt x="791" y="143" on="1"/>
        <pt x="798" y="120" on="0"/>
        <pt x="809" y="61" on="0"/>
        <pt x="808" y="27" on="1"/>
        <pt x="781" y="17" on="0"/>
        <pt x="749" y="8" on="1"/>
        <pt x="722" y="0" on="0"/>
        <pt x="653" y="-14" on="0"/>
        <pt x="616" y="-17" on="1"/>
        <pt x="624" y="-48" on="0"/>
        <pt x="637" y="-131" on="0"/>
        <pt x="637" y="-166" on="1"/>
        <pt x="637" y="-220" on="0"/>
        <pt x="600" y="-317" on="0"/>
        <pt x="528" y="-391" on="0"/>
        <pt x="423" y="-434" on="0"/>
        <pt x="356" y="-434" on="1"/>
        <pt x="321" y="-434" on="0"/>
        <pt x="296" y="-429" on="1"/>
        <pt x="283" y="-426" on="0"/>
        <pt x="273" y="-423" on="1"/>
        <pt x="269" y="-410" on="0"/>
        <pt x="266" y="-394" on="1"/>
        <pt x="263" y="-380" on="0"/>
        <pt x="259" y="-345" on="0"/>
        <pt x="259" y="-324" on="1"/>
        <pt x="259" y="-302" on="0"/>
        <pt x="266" y="-250" on="0"/>
        <pt x="275" y="-218" on="1"/>
        <pt x="298" y="-223" on="0"/>
        <pt x="333" y="-231" on="0"/>
        <pt x="341" y="-231" on="1"/>
        <pt x="369" y="-231" on="0"/>
        <pt x="410" y="-212" on="0"/>
        <pt x="437" y="-181" on="0"/>
        <pt x="450" y="-139" on="0"/>
        <pt x="450" y="-116" on="1"/>
        <pt x="450" y="-105" on="0"/>
        <pt x="448" y="-76" on="0"/>
        <pt x="445" y="-45" on="0"/>
        <pt x="442" y="-17" on="0"/>
        <pt x="440" y="-8" on="1"/>
        <pt x="265" y="25" on="0"/>
        <pt x="79" y="286" on="0"/>
      </contour>
    </TTGlyph>
    <TTGlyph name="ccircumflex" xMin="79" yMin="-20" xMax="858" yMax="1615">
      <component glyphName="c" x="0" y="0" flags="0x204"/>
      <component glyphName="circumflex" x="0" y="0" flags="0x4"/>
    </TTGlyph>
    <TTGlyph name="cdotaccent" xMin="79" yMin="-20" xMax="809" yMax="1476">
      <component glyphName="c" x="0" y="0" flags="0x204"/>
      <component glyphName="dotaccent" x="249" y="0" flags="0x4"/>
    </TTGlyph>
    <TTGlyph name="cedilla" xMin="-35" yMin="-434" xMax="343" yMax="32">
      <contour>
        <pt x="167" y="32" on="1"/>
        <pt x="308" y="32" on="1"/>
        <pt x="317" y="-1" on="0"/>
        <pt x="325" y="-34" on="1"/>
        <pt x="332" y="-63" on="0"/>
        <pt x="343" y="-133" on="0"/>
        <pt x="343" y="-166" on="1"/>
        <pt x="343" y="-220" on="0"/>
        <pt x="306" y="-317" on="0"/>
        <pt x="234" y="-391" on="0"/>
        <pt x="129" y="-434" on="0"/>
        <pt x="62" y="-434" on="1"/>
        <pt x="27" y="-434" on="0"/>
        <pt x="2" y="-429" on="1"/>
        <pt x="-11" y="-426" on="0"/>
        <pt x="-21" y="-423" on="1"/>
        <pt x="-25" y="-410" on="0"/>
        <pt x="-28" y="-394" on="1"/>
        <pt x="-31" y="-380" on="0"/>
        <pt x="-35" y="-345" on="0"/>
        <pt x="-35" y="-324" on="1"/>
        <pt x="-35" y="-302" on="0"/>
        <pt x="-28" y="-250" on="0"/>
        <pt x="-19" y="-218" on="1"/>
        <pt x="4" y="-223" on="0"/>
        <pt x="39" y="-231" on="0"/>
        <pt x="47" y="-231" on="1"/>
        <pt x="75" y="-231" on="0"/>
        <pt x="116" y="-212" on="0"/>
        <pt x="143" y="-181" on="0"/>
        <pt x="156" y="-139" on="0"/>
        <pt x="156" y="-116" on="1"/>
        <pt x="156" y="-96" on="0"/>
        <pt x="152" y="-49" on="0"/>
        <pt x="150" y="-29" on="1"/>
        <pt x="147" y="-6" on="0"/>
        <pt x="144" y="16" on="1"/>
      </contour>
    </TTGlyph>
    <TTGlyph name="cent" xMin="90" yMin="-210" xMax="848" yMax="1257">
      <contour>
        <pt x="90" y="513" on="1"/>
        <pt x="90" y="746" on="0"/>
        <pt x="277" y="1023" on="0"/>
        <pt x="457" y="1054" on="1"/>
        <pt x="457" y="1240" on="1"/>
        <pt x="470" y="1244" on="0"/>
        <pt x="486" y="1248" on="1"/>
        <pt x="499" y="1251" on="0"/>
        <pt x="533" y="1257" on="0"/>
        <pt x="550" y="1257" on="1"/>
        <pt x="569" y="1257" on="0"/>
        <pt x="615" y="1248" on="0"/>
        <pt x="641" y="1236" on="1"/>
        <pt x="641" y="1057" on="1"/>
        <pt x="679" y="1052" on="0"/>
        <pt x="751" y="1037" on="0"/>
        <pt x="780" y="1030" on="1"/>
        <pt x="813" y="1022" on="0"/>
        <pt x="842" y="1013" on="1"/>
        <pt x="839" y="991" on="0"/>
        <pt x="833" y="965" on="1"/>
        <pt x="828" y="943" on="0"/>
        <pt x="809" y="888" on="0"/>
        <pt x="795" y="859" on="1"/>
        <pt x="760" y="870" on="0"/>
        <pt x="721" y="880" on="1"/>
        <pt x="688" y="888" on="0"/>
        <pt x="604" y="902" on="0"/>
        <pt x="561" y="902" on="1"/>
        <pt x="494" y="902" on="0"/>
        <pt x="400" y="842" on="0"/>
        <pt x="341" y="738" on="0"/>
        <pt x="314" y="595" on="0"/>
        <pt x="314" y="513" on="1"/>
        <pt x="314" y="423" on="0"/>
        <pt x="341" y="287" on="0"/>
        <pt x="400" y="195" on="0"/>
        <pt x="494" y="148" on="0"/>
        <pt x="561" y="148" on="1"/>
        <pt x="605" y="148" on="0"/>
        <pt x="694" y="161" on="0"/>
        <pt x="730" y="169" on="1"/>
        <pt x="772" y="179" on="0"/>
        <pt x="812" y="191" on="1"/>
        <pt x="822" y="169" on="0"/>
        <pt x="830" y="143" on="1"/>
        <pt x="837" y="120" on="0"/>
        <pt x="848" y="61" on="0"/>
        <pt x="847" y="27" on="1"/>
        <pt x="815" y="18" on="0"/>
        <pt x="779" y="10" on="1"/>
        <pt x="748" y="3" on="0"/>
        <pt x="670" y="-11" on="0"/>
        <pt x="630" y="-16" on="1"/>
        <pt x="630" y="-196" on="1"/>
        <pt x="617" y="-200" on="0"/>
        <pt x="602" y="-203" on="1"/>
        <pt x="589" y="-206" on="0"/>
        <pt x="558" y="-210" on="0"/>
        <pt x="543" y="-210" on="1"/>
        <pt x="524" y="-210" on="0"/>
        <pt x="475" y="-203" on="0"/>
        <pt x="446" y="-192" on="1"/>
        <pt x="446" y="-10" on="1"/>
        <pt x="90" y="50" on="0"/>
      </contour>
    </TTGlyph>
    <TTGlyph name="circumflex" xMin="142" yMin="1163" xMax="858" yMax="1615">
      <contour>
        <pt x="377" y="1615" on="1"/>
        <pt x="635" y="1615" on="1"/>
        <pt x="858" y="1163" on="1"/>
        <pt x="684" y="1163" on="1"/>
        <pt x="504" y="1504" on="1"/>
        <pt x="316" y="1163" on="1"/>
        <pt x="142" y="1163" on="1"/>
      </contour>
    </TTGlyph>
    <TTGlyph name="circumflex.cap" xMin="-27" yMin="1491" xMax="704" yMax="1849">
      <contour>
        <pt x="211" y="1849" on="1"/>
        <pt x="476" y="1849" on="1"/>
        <pt x="704" y="1491" on="1"/>
        <pt x="499" y="1491" on="1"/>
        <pt x="338" y="1710" on="1"/>
        <pt x="337" y="1710" on="1"/>
        <pt x="296" y="1656" on="0"/>
        <pt x="211" y="1545" on="0"/>
        <pt x="170" y="1491" on="1"/>
        <pt x="-27" y="1491" on="1"/>
      </contour>
    </TTGlyph>
    <TTGlyph name="colon" xMin="68" yMin="-1" xMax="364" yMax="1017">
      <component glyphName="period" x="20" y="0" flags="0x4"/>
      <component glyphName="period" x="20" y="742" flags="0x4"/>
    </TTGlyph>
    <TTGlyph name="comma" xMin="-23" yMin="-408" xMax="337" yMax="200">
      <contour>
        <pt x="-23" y="-339" on="1"/>
        <pt x="14" y="-266" on="0"/>
        <pt x="44" y="-181" on="1"/>
        <pt x="69" y="-108" on="0"/>
        <pt x="111" y="85" on="0"/>
        <pt x="111" y="195" on="1"/>
        <pt x="116" y="196" on="0"/>
        <pt x="151" y="200" on="0"/>
        <pt x="175" y="200" on="1"/>
        <pt x="194" y="200" on="0"/>
        <pt x="239" y="195" on="0"/>
        <pt x="283" y="181" on="0"/>
        <pt x="322" y="158" on="0"/>
        <pt x="337" y="139" on="1"/>
        <pt x="337" y="86" on="0"/>
        <pt x="317" y="-16" on="0"/>
        <pt x="285" y="-113" on="0"/>
        <pt x="244" y="-202" on="0"/>
        <pt x="223" y="-240" on="1"/>
        <pt x="173" y="-330" on="0"/>
        <pt x="110" y="-408" on="1"/>
        <pt x="83" y="-406" on="0"/>
        <pt x="58" y="-400" on="1"/>
        <pt x="37" y="-395" on="0"/>
        <pt x="-9" y="-374" on="0"/>
        <pt x="-23" y="-354" on="1"/>
        <pt x="-23" y="-339" on="1"/>
      </contour>
    </TTGlyph>
    <TTGlyph name="commaaccent" xMin="44" yMin="-507" xMax="388" yMax="-106">
      <contour>
        <pt x="164" y="-106" on="1"/>
        <pt x="165" y="-106" on="0"/>
        <pt x="190" y="-106" on="0"/>
        <pt x="229" y="-109" on="0"/>
        <pt x="278" y="-118" on="0"/>
        <pt x="327" y="-135" on="0"/>
        <pt x="372" y="-162" on="0"/>
        <pt x="388" y="-182" on="1"/>
        <pt x="376" y="-266" on="0"/>
        <pt x="314" y="-386" on="0"/>
        <pt x="281" y="-427" on="1"/>
        <pt x="242" y="-475" on="0"/>
        <pt x="197" y="-507" on="1"/>
        <pt x="164" y="-505" on="0"/>
        <pt x="135" y="-499" on="1"/>
        <pt x="110" y="-494" on="0"/>
        <pt x="58" y="-473" on="0"/>
        <pt x="44" y="-453" on="1"/>
        <pt x="45" y="-437" on="1"/>
        <pt x="75" y="-398" on="0"/>
        <pt x="101" y="-348" on="1"/>
        <pt x="122" y="-305" on="0"/>
        <pt x="160" y="-183" on="0"/>
      </contour>
    </TTGlyph>
    <TTGlyph name="copyright" xMin="138" yMin="-13" xMax="1547" yMax="1374">
      <contour>
        <pt x="505" y="682" on="1"/>
        <pt x="505" y="877" on="0"/>
        <pt x="687" y="1079" on="0"/>
        <pt x="858" y="1079" on="1"/>
        <pt x="892" y="1079" on="0"/>
        <pt x="961" y="1068" on="0"/>
        <pt x="990" y="1062" on="1"/>
        <pt x="1023" y="1055" on="0"/>
        <pt x="1054" y="1046" on="1"/>
        <pt x="1053" y="1026" on="0"/>
        <pt x="1049" y="1004" on="1"/>
        <pt x="1045" y="985" on="0"/>
        <pt x="1032" y="936" on="0"/>
        <pt x="1021" y="911" on="1"/>
        <pt x="996" y="920" on="0"/>
        <pt x="969" y="927" on="1"/>
        <pt x="946" y="933" on="0"/>
        <pt x="887" y="943" on="0"/>
        <pt x="858" y="943" on="1"/>
        <pt x="817" y="943" on="0"/>
        <pt x="751" y="906" on="0"/>
        <pt x="706" y="838" on="0"/>
        <pt x="682" y="741" on="0"/>
        <pt x="682" y="682" on="1"/>
        <pt x="682" y="564" on="0"/>
        <pt x="775" y="441" on="0"/>
        <pt x="858" y="441" on="1"/>
        <pt x="888" y="441" on="0"/>
        <pt x="949" y="450" on="0"/>
        <pt x="974" y="456" on="1"/>
        <pt x="1003" y="462" on="0"/>
        <pt x="1030" y="471" on="1"/>
        <pt x="1040" y="456" on="0"/>
        <pt x="1047" y="437" on="1"/>
        <pt x="1053" y="420" on="0"/>
        <pt x="1063" y="372" on="0"/>
        <pt x="1062" y="343" on="1"/>
        <pt x="1029" y="331" on="0"/>
        <pt x="994" y="321" on="1"/>
        <pt x="964" y="313" on="0"/>
        <pt x="892" y="299" on="0"/>
        <pt x="858" y="299" on="1"/>
        <pt x="684" y="299" on="0"/>
        <pt x="505" y="488" on="0"/>
      </contour>
      <contour>
        <pt x="138" y="681" on="1"/>
        <pt x="138" y="777" on="0"/>
        <pt x="188" y="954" on="0"/>
        <pt x="280" y="1108" on="0"/>
        <pt x="409" y="1234" on="0"/>
        <pt x="565" y="1325" on="0"/>
        <pt x="745" y="1374" on="0"/>
        <pt x="842" y="1374" on="1"/>
        <pt x="939" y="1374" on="0"/>
        <pt x="1119" y="1325" on="0"/>
        <pt x="1276" y="1234" on="0"/>
        <pt x="1405" y="1108" on="0"/>
        <pt x="1497" y="954" on="0"/>
        <pt x="1547" y="777" on="0"/>
        <pt x="1547" y="681" on="1"/>
        <pt x="1547" y="585" on="0"/>
        <pt x="1497" y="408" on="0"/>
        <pt x="1405" y="253" on="0"/>
        <pt x="1276" y="127" on="0"/>
        <pt x="1119" y="36" on="0"/>
        <pt x="939" y="-13" on="0"/>
        <pt x="842" y="-13" on="1"/>
        <pt x="745" y="-13" on="0"/>
        <pt x="565" y="36" on="0"/>
        <pt x="409" y="127" on="0"/>
        <pt x="280" y="253" on="0"/>
        <pt x="188" y="408" on="0"/>
        <pt x="138" y="585" on="0"/>
      </contour>
      <contour>
        <pt x="278" y="681" on="1"/>
        <pt x="278" y="561" on="0"/>
        <pt x="366" y="351" on="0"/>
        <pt x="519" y="195" on="0"/>
        <pt x="725" y="105" on="0"/>
        <pt x="842" y="105" on="1"/>
        <pt x="920" y="105" on="0"/>
        <pt x="1065" y="146" on="0"/>
        <pt x="1190" y="221" on="0"/>
        <pt x="1293" y="326" on="0"/>
        <pt x="1367" y="454" on="0"/>
        <pt x="1407" y="601" on="0"/>
        <pt x="1407" y="681" on="1"/>
        <pt x="1407" y="800" on="0"/>
        <pt x="1318" y="1010" on="0"/>
        <pt x="1165" y="1166" on="0"/>
        <pt x="959" y="1256" on="0"/>
        <pt x="842" y="1256" on="1"/>
        <pt x="725" y="1256" on="0"/>
        <pt x="519" y="1166" on="0"/>
        <pt x="366" y="1010" on="0"/>
        <pt x="278" y="800" on="0"/>
      </contour>
    </TTGlyph>
    <TTGlyph name="currency" xMin="90" yMin="95" xMax="1224" yMax="1220">
      <contour>
        <pt x="257" y="377" on="1"/>
        <pt x="219" y="431" on="0"/>
        <pt x="180" y="576" on="0"/>
        <pt x="180" y="670" on="1"/>
        <pt x="180" y="756" on="0"/>
        <pt x="216" y="893" on="0"/>
        <pt x="251" y="946" on="1"/>
        <pt x="90" y="1105" on="1"/>
        <pt x="102" y="1126" on="0"/>
        <pt x="120" y="1146" on="1"/>
        <pt x="136" y="1163" on="0"/>
        <pt x="186" y="1203" on="0"/>
        <pt x="221" y="1220" on="1"/>
        <pt x="375" y="1063" on="1"/>
        <pt x="434" y="1097" on="0"/>
        <pt x="577" y="1129" on="0"/>
        <pt x="661" y="1129" on="1"/>
        <pt x="747" y="1129" on="0"/>
        <pt x="891" y="1100" on="0"/>
        <pt x="948" y="1068" on="1"/>
        <pt x="1097" y="1219" on="1"/>
        <pt x="1126" y="1204" on="0"/>
        <pt x="1151" y="1186" on="1"/>
        <pt x="1172" y="1170" on="0"/>
        <pt x="1213" y="1126" on="0"/>
        <pt x="1223" y="1100" on="1"/>
        <pt x="1072" y="951" on="1"/>
        <pt x="1104" y="900" on="0"/>
        <pt x="1136" y="769" on="0"/>
        <pt x="1136" y="684" on="1"/>
        <pt x="1136" y="589" on="0"/>
        <pt x="1095" y="439" on="0"/>
        <pt x="1056" y="382" on="1"/>
        <pt x="1224" y="216" on="1"/>
        <pt x="1211" y="192" on="0"/>
        <pt x="1193" y="171" on="1"/>
        <pt x="1177" y="153" on="0"/>
        <pt x="1128" y="114" on="0"/>
        <pt x="1093" y="102" on="1"/>
        <pt x="929" y="268" on="1"/>
        <pt x="874" y="238" on="0"/>
        <pt x="739" y="209" on="0"/>
        <pt x="661" y="209" on="1"/>
        <pt x="580" y="209" on="0"/>
        <pt x="442" y="236" on="0"/>
        <pt x="386" y="265" on="1"/>
        <pt x="219" y="95" on="1"/>
        <pt x="194" y="110" on="0"/>
        <pt x="170" y="128" on="1"/>
        <pt x="150" y="144" on="0"/>
        <pt x="107" y="188" on="0"/>
        <pt x="94" y="216" on="1"/>
      </contour>
      <contour>
        <pt x="661" y="370" on="1"/>
        <pt x="728" y="370" on="0"/>
        <pt x="823" y="414" on="0"/>
        <pt x="885" y="496" on="0"/>
        <pt x="914" y="612" on="0"/>
        <pt x="914" y="684" on="1"/>
        <pt x="914" y="760" on="0"/>
        <pt x="885" y="870" on="0"/>
        <pt x="823" y="940" on="0"/>
        <pt x="728" y="973" on="0"/>
        <pt x="661" y="973" on="1"/>
        <pt x="594" y="973" on="0"/>
        <pt x="497" y="931" on="0"/>
        <pt x="434" y="853" on="0"/>
        <pt x="403" y="741" on="0"/>
        <pt x="403" y="670" on="1"/>
        <pt x="403" y="514" on="0"/>
        <pt x="527" y="370" on="0"/>
      </contour>
    </TTGlyph>
    <TTGlyph name="d" xMin="79" yMin="-20" xMax="1041" yMax="1439">
      <contour>
        <pt x="79" y="493" on="1"/>
        <pt x="79" y="636" on="0"/>
        <pt x="159" y="846" on="0"/>
        <pt x="296" y="984" on="0"/>
        <pt x="476" y="1051" on="0"/>
        <pt x="577" y="1051" on="1"/>
        <pt x="615" y="1051" on="0"/>
        <pt x="675" y="1044" on="0"/>
        <pt x="696" y="1039" on="1"/>
        <pt x="721" y="1034" on="0"/>
        <pt x="740" y="1027" on="1"/>
        <pt x="740" y="1439" on="1"/>
        <pt x="953" y="1439" on="1"/>
        <pt x="953" y="165" on="1"/>
        <pt x="1041" y="63" on="1"/>
        <pt x="1041" y="0" on="1"/>
        <pt x="841" y="0" on="1"/>
        <pt x="772" y="79" on="1"/>
        <pt x="738" y="79" on="1"/>
        <pt x="733" y="74" on="0"/>
        <pt x="702" y="42" on="0"/>
        <pt x="645" y="8" on="0"/>
        <pt x="562" y="-20" on="0"/>
        <pt x="506" y="-20" on="1"/>
        <pt x="432" y="-20" on="0"/>
        <pt x="280" y="40" on="0"/>
        <pt x="157" y="166" on="0"/>
        <pt x="79" y="359" on="0"/>
      </contour>
      <contour>
        <pt x="303" y="493" on="1"/>
        <pt x="303" y="400" on="0"/>
        <pt x="342" y="268" on="0"/>
        <pt x="414" y="183" on="0"/>
        <pt x="518" y="144" on="0"/>
        <pt x="583" y="144" on="1"/>
        <pt x="608" y="144" on="0"/>
        <pt x="664" y="160" on="0"/>
        <pt x="687" y="171" on="1"/>
        <pt x="714" y="182" on="0"/>
        <pt x="740" y="198" on="1"/>
        <pt x="740" y="874" on="1"/>
        <pt x="727" y="882" on="0"/>
        <pt x="676" y="898" on="0"/>
        <pt x="631" y="898" on="1"/>
        <pt x="474" y="898" on="0"/>
        <pt x="303" y="691" on="0"/>
      </contour>
    </TTGlyph>
    <TTGlyph name="dagger" xMin="150" yMin="-332" xMax="731" yMax="1517">
      <contour>
        <pt x="354" y="849" on="1"/>
        <pt x="155" y="849" on="1"/>
        <pt x="153" y="860" on="0"/>
        <pt x="152" y="873" on="1"/>
        <pt x="151" y="884" on="0"/>
        <pt x="150" y="914" on="0"/>
        <pt x="150" y="932" on="1"/>
        <pt x="150" y="950" on="0"/>
        <pt x="152" y="991" on="0"/>
        <pt x="155" y="1014" on="1"/>
        <pt x="354" y="1014" on="1"/>
        <pt x="334" y="1517" on="1"/>
        <pt x="549" y="1517" on="1"/>
        <pt x="529" y="1014" on="1"/>
        <pt x="726" y="1014" on="1"/>
        <pt x="728" y="997" on="0"/>
        <pt x="731" y="971" on="0"/>
        <pt x="731" y="963" on="1"/>
        <pt x="731" y="940" on="0"/>
        <pt x="722" y="899" on="0"/>
        <pt x="717" y="883" on="1"/>
        <pt x="711" y="865" on="0"/>
        <pt x="703" y="849" on="1"/>
        <pt x="529" y="849" on="1"/>
        <pt x="529" y="-332" on="1"/>
        <pt x="354" y="-332" on="1"/>
      </contour>
    </TTGlyph>
    <TTGlyph name="daggerdbl" xMin="150" yMin="-334" xMax="731" yMax="1517">
      <contour>
        <pt x="155" y="169" on="1"/>
        <pt x="153" y="180" on="0"/>
        <pt x="152" y="193" on="1"/>
        <pt x="151" y="204" on="0"/>
        <pt x="150" y="234" on="0"/>
        <pt x="150" y="252" on="1"/>
        <pt x="150" y="269" on="0"/>
        <pt x="152" y="310" on="0"/>
        <pt x="155" y="334" on="1"/>
        <pt x="362" y="334" on="1"/>
        <pt x="333" y="570" on="1"/>
        <pt x="354" y="849" on="1"/>
        <pt x="155" y="849" on="1"/>
        <pt x="153" y="860" on="0"/>
        <pt x="152" y="873" on="1"/>
        <pt x="151" y="884" on="0"/>
        <pt x="150" y="914" on="0"/>
        <pt x="150" y="932" on="1"/>
        <pt x="150" y="950" on="0"/>
        <pt x="152" y="991" on="0"/>
        <pt x="155" y="1014" on="1"/>
        <pt x="354" y="1014" on="1"/>
        <pt x="334" y="1517" on="1"/>
        <pt x="549" y="1517" on="1"/>
        <pt x="529" y="1014" on="1"/>
        <pt x="726" y="1014" on="1"/>
        <pt x="728" y="997" on="0"/>
        <pt x="731" y="971" on="0"/>
        <pt x="731" y="963" on="1"/>
        <pt x="731" y="940" on="0"/>
        <pt x="722" y="899" on="0"/>
        <pt x="717" y="883" on="1"/>
        <pt x="711" y="865" on="0"/>
        <pt x="703" y="849" on="1"/>
        <pt x="529" y="849" on="1"/>
        <pt x="549" y="574" on="1"/>
        <pt x="520" y="334" on="1"/>
        <pt x="726" y="334" on="1"/>
        <pt x="728" y="317" on="0"/>
        <pt x="731" y="291" on="0"/>
        <pt x="731" y="283" on="1"/>
        <pt x="731" y="260" on="0"/>
        <pt x="722" y="219" on="0"/>
        <pt x="717" y="203" on="1"/>
        <pt x="711" y="185" on="0"/>
        <pt x="703" y="169" on="1"/>
        <pt x="517" y="169" on="1"/>
        <pt x="549" y="-334" on="1"/>
        <pt x="344" y="-334" on="1"/>
        <pt x="365" y="169" on="1"/>
        <pt x="155" y="169" on="1"/>
      </contour>
    </TTGlyph>
    <TTGlyph name="dcaron" xMin="79" yMin="-20" xMax="1314" yMax="1439">
      <contour>
        <pt x="1073" y="1014" on="1"/>
        <pt x="1080" y="1042" on="0"/>
        <pt x="1086" y="1075" on="1"/>
        <pt x="1091" y="1104" on="0"/>
        <pt x="1100" y="1179" on="0"/>
        <pt x="1100" y="1224" on="1"/>
        <pt x="1100" y="1265" on="0"/>
        <pt x="1088" y="1357" on="0"/>
        <pt x="1074" y="1405" on="1"/>
        <pt x="1075" y="1405" on="0"/>
        <pt x="1099" y="1414" on="0"/>
        <pt x="1134" y="1425" on="0"/>
        <pt x="1178" y="1433" on="0"/>
        <pt x="1200" y="1433" on="1"/>
        <pt x="1225" y="1433" on="0"/>
        <pt x="1278" y="1420" on="0"/>
        <pt x="1304" y="1402" on="1"/>
        <pt x="1309" y="1376" on="0"/>
        <pt x="1314" y="1324" on="0"/>
        <pt x="1314" y="1298" on="1"/>
        <pt x="1314" y="1234" on="0"/>
        <pt x="1288" y="1124" on="0"/>
        <pt x="1272" y="1082" on="1"/>
        <pt x="1254" y="1034" on="0"/>
        <pt x="1230" y="992" on="1"/>
        <pt x="1219" y="989" on="0"/>
        <pt x="1208" y="986" on="1"/>
        <pt x="1198" y="984" on="0"/>
        <pt x="1173" y="980" on="0"/>
        <pt x="1162" y="980" on="1"/>
        <pt x="1142" y="980" on="0"/>
        <pt x="1100" y="988" on="0"/>
        <pt x="1083" y="1000" on="1"/>
      </contour>
      <contour>
        <pt x="79" y="493" on="1"/>
        <pt x="79" y="636" on="0"/>
        <pt x="159" y="846" on="0"/>
        <pt x="296" y="984" on="0"/>
        <pt x="476" y="1051" on="0"/>
        <pt x="577" y="1051" on="1"/>
        <pt x="615" y="1051" on="0"/>
        <pt x="675" y="1044" on="0"/>
        <pt x="696" y="1039" on="1"/>
        <pt x="721" y="1034" on="0"/>
        <pt x="740" y="1027" on="1"/>
        <pt x="740" y="1439" on="1"/>
        <pt x="953" y="1439" on="1"/>
        <pt x="953" y="165" on="1"/>
        <pt x="1041" y="63" on="1"/>
        <pt x="1041" y="0" on="1"/>
        <pt x="841" y="0" on="1"/>
        <pt x="772" y="79" on="1"/>
        <pt x="738" y="79" on="1"/>
        <pt x="733" y="74" on="0"/>
        <pt x="702" y="42" on="0"/>
        <pt x="645" y="8" on="0"/>
        <pt x="562" y="-20" on="0"/>
        <pt x="506" y="-20" on="1"/>
        <pt x="432" y="-20" on="0"/>
        <pt x="280" y="40" on="0"/>
        <pt x="157" y="166" on="0"/>
        <pt x="79" y="359" on="0"/>
      </contour>
      <contour>
        <pt x="303" y="493" on="1"/>
        <pt x="303" y="400" on="0"/>
        <pt x="342" y="268" on="0"/>
        <pt x="414" y="183" on="0"/>
        <pt x="518" y="144" on="0"/>
        <pt x="583" y="144" on="1"/>
        <pt x="608" y="144" on="0"/>
        <pt x="664" y="160" on="0"/>
        <pt x="687" y="171" on="1"/>
        <pt x="714" y="182" on="0"/>
        <pt x="740" y="198" on="1"/>
        <pt x="740" y="874" on="1"/>
        <pt x="727" y="882" on="0"/>
        <pt x="676" y="898" on="0"/>
        <pt x="631" y="898" on="1"/>
        <pt x="474" y="898" on="0"/>
        <pt x="303" y="691" on="0"/>
      </contour>
    </TTGlyph>
    <TTGlyph name="dcroat" xMin="81" yMin="-7" xMax="1092" yMax="1452">
      <contour>
        <pt x="586" y="1131" on="1"/>
        <pt x="579" y="1156" on="0"/>
        <pt x="573" y="1198" on="0"/>
        <pt x="573" y="1213" on="1"/>
        <pt x="573" y="1246" on="0"/>
        <pt x="586" y="1289" on="1"/>
        <pt x="742" y="1289" on="1"/>
        <pt x="742" y="1452" on="1"/>
        <pt x="955" y="1452" on="1"/>
        <pt x="955" y="1289" on="1"/>
        <pt x="1084" y="1289" on="1"/>
        <pt x="1089" y="1269" on="0"/>
        <pt x="1092" y="1233" on="0"/>
        <pt x="1092" y="1219" on="1"/>
        <pt x="1092" y="1199" on="0"/>
        <pt x="1085" y="1154" on="0"/>
        <pt x="1077" y="1131" on="1"/>
        <pt x="955" y="1131" on="1"/>
        <pt x="955" y="178" on="1"/>
        <pt x="1043" y="76" on="1"/>
        <pt x="1043" y="13" on="1"/>
        <pt x="843" y="13" on="1"/>
        <pt x="774" y="92" on="1"/>
        <pt x="740" y="92" on="1"/>
        <pt x="735" y="87" on="0"/>
        <pt x="704" y="55" on="0"/>
        <pt x="647" y="21" on="0"/>
        <pt x="564" y="-7" on="0"/>
        <pt x="508" y="-7" on="1"/>
        <pt x="434" y="-7" on="0"/>
        <pt x="282" y="53" on="0"/>
        <pt x="159" y="179" on="0"/>
        <pt x="81" y="372" on="0"/>
        <pt x="81" y="506" on="1"/>
        <pt x="81" y="649" on="0"/>
        <pt x="161" y="854" on="0"/>
        <pt x="298" y="986" on="0"/>
        <pt x="478" y="1048" on="0"/>
        <pt x="579" y="1048" on="1"/>
        <pt x="617" y="1048" on="0"/>
        <pt x="677" y="1041" on="0"/>
        <pt x="698" y="1036" on="1"/>
        <pt x="723" y="1031" on="0"/>
        <pt x="742" y="1024" on="1"/>
        <pt x="742" y="1131" on="1"/>
      </contour>
      <contour>
        <pt x="305" y="506" on="1"/>
        <pt x="305" y="413" on="0"/>
        <pt x="344" y="281" on="0"/>
        <pt x="416" y="196" on="0"/>
        <pt x="520" y="157" on="0"/>
        <pt x="585" y="157" on="1"/>
        <pt x="610" y="157" on="0"/>
        <pt x="666" y="173" on="0"/>
        <pt x="689" y="184" on="1"/>
        <pt x="716" y="195" on="0"/>
        <pt x="742" y="211" on="1"/>
        <pt x="742" y="871" on="1"/>
        <pt x="729" y="879" on="0"/>
        <pt x="678" y="895" on="0"/>
        <pt x="633" y="895" on="1"/>
        <pt x="477" y="895" on="0"/>
        <pt x="305" y="703" on="0"/>
      </contour>
    </TTGlyph>
    <TTGlyph name="degree" xMin="62" yMin="1019" xMax="709" yMax="1662">
      <contour>
        <pt x="383" y="1158" on="1"/>
        <pt x="417" y="1158" on="0"/>
        <pt x="475" y="1181" on="0"/>
        <pt x="517" y="1227" on="0"/>
        <pt x="541" y="1295" on="0"/>
        <pt x="541" y="1340" on="1"/>
        <pt x="541" y="1384" on="0"/>
        <pt x="517" y="1453" on="0"/>
        <pt x="475" y="1500" on="0"/>
        <pt x="417" y="1524" on="0"/>
        <pt x="383" y="1524" on="1"/>
        <pt x="351" y="1524" on="0"/>
        <pt x="296" y="1500" on="0"/>
        <pt x="255" y="1453" on="0"/>
        <pt x="232" y="1384" on="0"/>
        <pt x="232" y="1340" on="1"/>
        <pt x="232" y="1295" on="0"/>
        <pt x="255" y="1227" on="0"/>
        <pt x="296" y="1181" on="0"/>
        <pt x="351" y="1158" on="0"/>
      </contour>
      <contour>
        <pt x="383" y="1019" on="1"/>
        <pt x="316" y="1019" on="0"/>
        <pt x="199" y="1059" on="0"/>
        <pt x="112" y="1140" on="0"/>
        <pt x="62" y="1260" on="0"/>
        <pt x="62" y="1340" on="1"/>
        <pt x="62" y="1419" on="0"/>
        <pt x="112" y="1540" on="0"/>
        <pt x="199" y="1621" on="0"/>
        <pt x="316" y="1662" on="0"/>
        <pt x="383" y="1662" on="1"/>
        <pt x="454" y="1662" on="0"/>
        <pt x="574" y="1621" on="0"/>
        <pt x="661" y="1540" on="0"/>
        <pt x="709" y="1419" on="0"/>
        <pt x="709" y="1340" on="1"/>
        <pt x="709" y="1259" on="0"/>
        <pt x="661" y="1139" on="0"/>
        <pt x="574" y="1059" on="0"/>
        <pt x="454" y="1019" on="0"/>
      </contour>
    </TTGlyph>
    <TTGlyph name="dieresis" xMin="152" yMin="1225" xMax="856" yMax="1476">
      <contour>
        <pt x="287" y="1225" on="1"/>
        <pt x="259" y="1225" on="0"/>
        <pt x="210" y="1245" on="0"/>
        <pt x="173" y="1279" on="0"/>
        <pt x="152" y="1324" on="0"/>
        <pt x="152" y="1350" on="1"/>
        <pt x="152" y="1377" on="0"/>
        <pt x="173" y="1423" on="0"/>
        <pt x="210" y="1457" on="0"/>
        <pt x="259" y="1476" on="0"/>
        <pt x="287" y="1476" on="1"/>
        <pt x="315" y="1476" on="0"/>
        <pt x="365" y="1457" on="0"/>
        <pt x="403" y="1423" on="0"/>
        <pt x="425" y="1377" on="0"/>
        <pt x="425" y="1350" on="1"/>
        <pt x="425" y="1324" on="0"/>
        <pt x="403" y="1279" on="0"/>
        <pt x="365" y="1245" on="0"/>
        <pt x="315" y="1225" on="0"/>
      </contour>
      <contour>
        <pt x="718" y="1225" on="1"/>
        <pt x="690" y="1225" on="0"/>
        <pt x="641" y="1245" on="0"/>
        <pt x="604" y="1279" on="0"/>
        <pt x="583" y="1324" on="0"/>
        <pt x="583" y="1350" on="1"/>
        <pt x="583" y="1377" on="0"/>
        <pt x="604" y="1423" on="0"/>
        <pt x="641" y="1457" on="0"/>
        <pt x="690" y="1476" on="0"/>
        <pt x="718" y="1476" on="1"/>
        <pt x="746" y="1476" on="0"/>
        <pt x="796" y="1457" on="0"/>
        <pt x="834" y="1423" on="0"/>
        <pt x="856" y="1377" on="0"/>
        <pt x="856" y="1350" on="1"/>
        <pt x="856" y="1324" on="0"/>
        <pt x="834" y="1279" on="0"/>
        <pt x="796" y="1245" on="0"/>
        <pt x="746" y="1225" on="0"/>
      </contour>
    </TTGlyph>
    <TTGlyph name="dieresis.cap" xMin="-109" yMin="1490" xMax="591" yMax="1742">
      <contour>
        <pt x="26" y="1490" on="1"/>
        <pt x="-2" y="1490" on="0"/>
        <pt x="-51" y="1510" on="0"/>
        <pt x="-88" y="1544" on="0"/>
        <pt x="-109" y="1590" on="0"/>
        <pt x="-109" y="1616" on="1"/>
        <pt x="-109" y="1642" on="0"/>
        <pt x="-88" y="1688" on="0"/>
        <pt x="-51" y="1722" on="0"/>
        <pt x="-2" y="1742" on="0"/>
        <pt x="26" y="1742" on="1"/>
        <pt x="54" y="1742" on="0"/>
        <pt x="105" y="1722" on="0"/>
        <pt x="142" y="1688" on="0"/>
        <pt x="164" y="1642" on="0"/>
        <pt x="164" y="1616" on="1"/>
        <pt x="164" y="1590" on="0"/>
        <pt x="142" y="1544" on="0"/>
        <pt x="105" y="1510" on="0"/>
        <pt x="54" y="1490" on="0"/>
      </contour>
      <contour>
        <pt x="454" y="1490" on="1"/>
        <pt x="426" y="1490" on="0"/>
        <pt x="376" y="1510" on="0"/>
        <pt x="339" y="1544" on="0"/>
        <pt x="318" y="1590" on="0"/>
        <pt x="318" y="1616" on="1"/>
        <pt x="318" y="1642" on="0"/>
        <pt x="339" y="1688" on="0"/>
        <pt x="376" y="1722" on="0"/>
        <pt x="426" y="1742" on="0"/>
        <pt x="454" y="1742" on="1"/>
        <pt x="482" y="1742" on="0"/>
        <pt x="532" y="1722" on="0"/>
        <pt x="569" y="1688" on="0"/>
        <pt x="591" y="1642" on="0"/>
        <pt x="591" y="1616" on="1"/>
        <pt x="591" y="1590" on="0"/>
        <pt x="569" y="1544" on="0"/>
        <pt x="532" y="1510" on="0"/>
        <pt x="482" y="1490" on="0"/>
      </contour>
    </TTGlyph>
    <TTGlyph name="divide" xMin="203" yMin="12" xMax="1313" yMax="1201">
      <contour>
        <pt x="203" y="685" on="1"/>
        <pt x="1313" y="685" on="1"/>
        <pt x="1313" y="510" on="1"/>
        <pt x="203" y="510" on="1"/>
      </contour>
      <contour>
        <pt x="613" y="151" on="1"/>
        <pt x="613" y="179" on="0"/>
        <pt x="636" y="229" on="0"/>
        <pt x="676" y="267" on="0"/>
        <pt x="730" y="288" on="0"/>
        <pt x="761" y="288" on="1"/>
        <pt x="792" y="288" on="0"/>
        <pt x="846" y="267" on="0"/>
        <pt x="886" y="229" on="0"/>
        <pt x="909" y="179" on="0"/>
        <pt x="909" y="151" on="1"/>
        <pt x="909" y="122" on="0"/>
        <pt x="886" y="71" on="0"/>
        <pt x="846" y="34" on="0"/>
        <pt x="792" y="12" on="0"/>
        <pt x="761" y="12" on="1"/>
        <pt x="730" y="12" on="0"/>
        <pt x="676" y="34" on="0"/>
        <pt x="636" y="71" on="0"/>
        <pt x="613" y="122" on="0"/>
      </contour>
      <contour>
        <pt x="613" y="1064" on="1"/>
        <pt x="613" y="1092" on="0"/>
        <pt x="636" y="1142" on="0"/>
        <pt x="676" y="1180" on="0"/>
        <pt x="730" y="1201" on="0"/>
        <pt x="761" y="1201" on="1"/>
        <pt x="792" y="1201" on="0"/>
        <pt x="846" y="1180" on="0"/>
        <pt x="886" y="1142" on="0"/>
        <pt x="909" y="1092" on="0"/>
        <pt x="909" y="1064" on="1"/>
        <pt x="909" y="1035" on="0"/>
        <pt x="886" y="984" on="0"/>
        <pt x="846" y="947" on="0"/>
        <pt x="792" y="925" on="0"/>
        <pt x="761" y="925" on="1"/>
        <pt x="730" y="925" on="0"/>
        <pt x="676" y="947" on="0"/>
        <pt x="636" y="984" on="0"/>
        <pt x="613" y="1035" on="0"/>
      </contour>
    </TTGlyph>
    <TTGlyph name="dollar" xMin="120" yMin="-219" xMax="980" yMax="1572">
      <contour>
        <pt x="133" y="49" on="1"/>
        <pt x="135" y="72" on="0"/>
        <pt x="140" y="101" on="1"/>
        <pt x="145" y="125" on="0"/>
        <pt x="162" y="192" on="0"/>
        <pt x="179" y="231" on="1"/>
        <pt x="225" y="213" on="0"/>
        <pt x="276" y="199" on="1"/>
        <pt x="320" y="187" on="0"/>
        <pt x="428" y="167" on="0"/>
        <pt x="483" y="167" on="1"/>
        <pt x="636" y="167" on="0"/>
        <pt x="767" y="262" on="0"/>
        <pt x="767" y="356" on="1"/>
        <pt x="767" y="409" on="0"/>
        <pt x="741" y="481" on="0"/>
        <pt x="682" y="533" on="0"/>
        <pt x="587" y="570" on="0"/>
        <pt x="519" y="588" on="1"/>
        <pt x="404" y="618" on="0"/>
        <pt x="250" y="695" on="0"/>
        <pt x="158" y="791" on="0"/>
        <pt x="120" y="905" on="0"/>
        <pt x="120" y="973" on="1"/>
        <pt x="120" y="1068" on="0"/>
        <pt x="170" y="1212" on="0"/>
        <pt x="265" y="1311" on="0"/>
        <pt x="404" y="1369" on="0"/>
        <pt x="494" y="1379" on="1"/>
        <pt x="494" y="1555" on="1"/>
        <pt x="507" y="1559" on="0"/>
        <pt x="523" y="1563" on="1"/>
        <pt x="536" y="1566" on="0"/>
        <pt x="570" y="1572" on="0"/>
        <pt x="587" y="1572" on="1"/>
        <pt x="607" y="1572" on="0"/>
        <pt x="652" y="1563" on="0"/>
        <pt x="678" y="1551" on="1"/>
        <pt x="678" y="1380" on="1"/>
        <pt x="742" y="1373" on="0"/>
        <pt x="833" y="1348" on="0"/>
        <pt x="863" y="1335" on="1"/>
        <pt x="897" y="1320" on="0"/>
        <pt x="921" y="1302" on="1"/>
        <pt x="918" y="1279" on="0"/>
        <pt x="909" y="1252" on="1"/>
        <pt x="901" y="1229" on="0"/>
        <pt x="873" y="1167" on="0"/>
        <pt x="848" y="1131" on="1"/>
        <pt x="825" y="1151" on="0"/>
        <pt x="788" y="1167" on="1"/>
        <pt x="756" y="1181" on="0"/>
        <pt x="658" y="1204" on="0"/>
        <pt x="589" y="1204" on="1"/>
        <pt x="461" y="1204" on="0"/>
        <pt x="327" y="1109" on="0"/>
        <pt x="327" y="1010" on="1"/>
        <pt x="327" y="955" on="0"/>
        <pt x="353" y="882" on="0"/>
        <pt x="414" y="831" on="0"/>
        <pt x="516" y="793" on="0"/>
        <pt x="591" y="773" on="1"/>
        <pt x="701" y="744" on="0"/>
        <pt x="850" y="674" on="0"/>
        <pt x="941" y="584" on="0"/>
        <pt x="980" y="466" on="0"/>
        <pt x="980" y="389" on="1"/>
        <pt x="980" y="302" on="0"/>
        <pt x="946" y="166" on="0"/>
        <pt x="869" y="65" on="0"/>
        <pt x="747" y="1" on="0"/>
        <pt x="659" y="-14" on="1"/>
        <pt x="659" y="-206" on="1"/>
        <pt x="645" y="-210" on="0"/>
        <pt x="631" y="-213" on="1"/>
        <pt x="619" y="-215" on="0"/>
        <pt x="588" y="-219" on="0"/>
        <pt x="573" y="-219" on="1"/>
        <pt x="553" y="-219" on="0"/>
        <pt x="504" y="-213" on="0"/>
        <pt x="475" y="-202" on="1"/>
        <pt x="475" y="-26" on="1"/>
        <pt x="396" y="-24" on="0"/>
        <pt x="271" y="-1" on="0"/>
        <pt x="226" y="13" on="1"/>
        <pt x="174" y="29" on="0"/>
      </contour>
    </TTGlyph>
    <TTGlyph name="dotaccent" xMin="122" yMin="1225" xMax="395" yMax="1476">
      <contour>
        <pt x="258" y="1225" on="1"/>
        <pt x="230" y="1225" on="0"/>
        <pt x="181" y="1245" on="0"/>
        <pt x="144" y="1279" on="0"/>
        <pt x="122" y="1324" on="0"/>
        <pt x="122" y="1350" on="1"/>
        <pt x="122" y="1377" on="0"/>
        <pt x="144" y="1423" on="0"/>
        <pt x="181" y="1457" on="0"/>
        <pt x="230" y="1476" on="0"/>
        <pt x="258" y="1476" on="1"/>
        <pt x="286" y="1476" on="0"/>
        <pt x="336" y="1457" on="0"/>
        <pt x="373" y="1423" on="0"/>
        <pt x="395" y="1377" on="0"/>
        <pt x="395" y="1350" on="1"/>
        <pt x="395" y="1324" on="0"/>
        <pt x="373" y="1279" on="0"/>
        <pt x="336" y="1245" on="0"/>
        <pt x="286" y="1225" on="0"/>
      </contour>
    </TTGlyph>
    <TTGlyph name="dotaccent.cap" xMin="103" yMin="1492" xMax="377" yMax="1744">
      <contour>
        <pt x="239" y="1492" on="1"/>
        <pt x="211" y="1492" on="0"/>
        <pt x="162" y="1512" on="0"/>
        <pt x="125" y="1546" on="0"/>
        <pt x="103" y="1592" on="0"/>
        <pt x="103" y="1618" on="1"/>
        <pt x="103" y="1644" on="0"/>
        <pt x="125" y="1690" on="0"/>
        <pt x="162" y="1724" on="0"/>
        <pt x="211" y="1744" on="0"/>
        <pt x="239" y="1744" on="1"/>
        <pt x="267" y="1744" on="0"/>
        <pt x="317" y="1724" on="0"/>
        <pt x="355" y="1690" on="0"/>
        <pt x="377" y="1644" on="0"/>
        <pt x="377" y="1618" on="1"/>
        <pt x="377" y="1592" on="0"/>
        <pt x="355" y="1546" on="0"/>
        <pt x="317" y="1512" on="0"/>
        <pt x="267" y="1492" on="0"/>
      </contour>
    </TTGlyph>
    <TTGlyph name="dotlessi" xMin="141" yMin="0" xMax="408" yMax="1022">
      <contour>
        <pt x="141" y="1022" on="1"/>
        <pt x="349" y="1022" on="1"/>
        <pt x="349" y="0" on="1"/>
        <pt x="250" y="0" on="0"/>
        <pt x="141" y="80" on="0"/>
        <pt x="141" y="172" on="1"/>
      </contour>
      <contour>
        <pt x="408" y="126" on="1"/>
        <pt x="408" y="0" on="1"/>
        <pt x="351" y="0" on="1"/>
        <pt x="251" y="131" on="1"/>
        <pt x="349" y="168" on="1"/>
      </contour>
    </TTGlyph>
    <TTGlyph name="dotlessj" xMin="14" yMin="-410" xMax="367" yMax="1020">
      <contour>
        <pt x="151" y="1020" on="1"/>
        <pt x="367" y="1020" on="1"/>
        <pt x="367" y="-98" on="1"/>
        <pt x="367" y="-161" on="0"/>
        <pt x="335" y="-260" on="0"/>
        <pt x="264" y="-337" on="0"/>
        <pt x="151" y="-392" on="0"/>
        <pt x="70" y="-410" on="1"/>
        <pt x="51" y="-381" on="0"/>
        <pt x="30" y="-319" on="0"/>
        <pt x="24" y="-293" on="1"/>
        <pt x="17" y="-263" on="0"/>
        <pt x="14" y="-235" on="1"/>
        <pt x="51" y="-228" on="0"/>
        <pt x="103" y="-206" on="0"/>
        <pt x="136" y="-170" on="0"/>
        <pt x="151" y="-113" on="0"/>
        <pt x="151" y="-70" on="1"/>
      </contour>
    </TTGlyph>
    <TTGlyph name="e" xMin="77" yMin="-20" xMax="965" yMax="1050">
      <contour>
        <pt x="77" y="501" on="1"/>
        <pt x="77" y="645" on="0"/>
        <pt x="147" y="853" on="0"/>
        <pt x="273" y="987" on="0"/>
        <pt x="448" y="1050" on="0"/>
        <pt x="553" y="1050" on="1"/>
        <pt x="650" y="1050" on="0"/>
        <pt x="803" y="985" on="0"/>
        <pt x="909" y="867" on="0"/>
        <pt x="965" y="703" on="0"/>
        <pt x="965" y="604" on="1"/>
        <pt x="965" y="570" on="0"/>
        <pt x="959" y="512" on="0"/>
        <pt x="955" y="491" on="1"/>
        <pt x="951" y="466" on="0"/>
        <pt x="946" y="446" on="1"/>
        <pt x="290" y="449" on="1"/>
        <pt x="291" y="360" on="0"/>
        <pt x="327" y="243" on="0"/>
        <pt x="398" y="175" on="0"/>
        <pt x="506" y="148" on="0"/>
        <pt x="580" y="148" on="1"/>
        <pt x="643" y="148" on="0"/>
        <pt x="743" y="164" on="0"/>
        <pt x="778" y="175" on="1"/>
        <pt x="818" y="187" on="0"/>
        <pt x="850" y="203" on="1"/>
        <pt x="865" y="168" on="0"/>
        <pt x="882" y="108" on="0"/>
        <pt x="886" y="86" on="1"/>
        <pt x="890" y="60" on="0"/>
        <pt x="892" y="40" on="1"/>
        <pt x="859" y="23" on="0"/>
        <pt x="812" y="10" on="1"/>
        <pt x="772" y="-1" on="0"/>
        <pt x="656" y="-20" on="0"/>
        <pt x="580" y="-20" on="1"/>
        <pt x="460" y="-20" on="0"/>
        <pt x="273" y="34" on="0"/>
        <pt x="144" y="157" on="0"/>
        <pt x="77" y="356" on="0"/>
      </contour>
      <contour>
        <pt x="751" y="595" on="1"/>
        <pt x="751" y="629" on="1"/>
        <pt x="751" y="692" on="0"/>
        <pt x="720" y="789" on="0"/>
        <pt x="666" y="855" on="0"/>
        <pt x="592" y="889" on="0"/>
        <pt x="549" y="889" on="1"/>
        <pt x="486" y="889" on="0"/>
        <pt x="390" y="856" on="0"/>
        <pt x="325" y="785" on="0"/>
        <pt x="293" y="673" on="0"/>
        <pt x="293" y="595" on="1"/>
      </contour>
    </TTGlyph>
    <TTGlyph name="eacute" xMin="77" yMin="-20" xMax="965" yMax="1605">
      <component glyphName="e" x="0" y="0" flags="0x204"/>
      <component glyphName="acute" x="109" y="0" flags="0x4"/>
    </TTGlyph>
    <TTGlyph name="ebreve" xMin="77" yMin="-20" xMax="965" yMax="1609">
      <component glyphName="e" x="0" y="0" flags="0x204"/>
      <component glyphName="breve" x="188" y="0" flags="0x4"/>
    </TTGlyph>
    <TTGlyph name="ecaron" xMin="77" yMin="-20" xMax="965" yMax="1615">
      <component glyphName="e" x="0" y="0" flags="0x204"/>
      <component glyphName="caron" x="18" y="0" flags="0x4"/>
    </TTGlyph>
    <TTGlyph name="ecircumflex" xMin="77" yMin="-20" xMax="965" yMax="1615">
      <component glyphName="e" x="0" y="0" flags="0x204"/>
      <component glyphName="circumflex" x="18" y="0" flags="0x4"/>
    </TTGlyph>
    <TTGlyph name="edieresis" xMin="77" yMin="-20" xMax="965" yMax="1476">
      <component glyphName="e" x="0" y="0" flags="0x204"/>
      <component glyphName="dieresis" x="18" y="0" flags="0x4"/>
    </TTGlyph>
    <TTGlyph name="edotaccent" xMin="77" yMin="-20" xMax="965" yMax="1476">
      <component glyphName="e" x="0" y="0" flags="0x204"/>
      <component glyphName="dotaccent" x="267" y="0" flags="0x4"/>
    </TTGlyph>
    <TTGlyph name="egrave" xMin="77" yMin="-20" xMax="965" yMax="1605">
      <component glyphName="e" x="0" y="0" flags="0x204"/>
      <component glyphName="grave" x="399" y="0" flags="0x4"/>
    </TTGlyph>
    <TTGlyph name="eight" xMin="130" yMin="-20" xMax="1050" yMax="1370">
      <contour>
        <pt x="130" y="367" on="1"/>
        <pt x="130" y="425" on="0"/>
        <pt x="167" y="534" on="0"/>
        <pt x="231" y="625" on="0"/>
        <pt x="319" y="692" on="0"/>
        <pt x="370" y="708" on="1"/>
        <pt x="280" y="745" on="0"/>
        <pt x="176" y="899" on="0"/>
        <pt x="176" y="1012" on="1"/>
        <pt x="176" y="1093" on="0"/>
        <pt x="233" y="1226" on="0"/>
        <pt x="341" y="1319" on="0"/>
        <pt x="495" y="1370" on="0"/>
        <pt x="592" y="1370" on="1"/>
        <pt x="683" y="1370" on="0"/>
        <pt x="835" y="1319" on="0"/>
        <pt x="944" y="1226" on="0"/>
        <pt x="1004" y="1093" on="0"/>
        <pt x="1004" y="1012" on="1"/>
        <pt x="1004" y="959" on="0"/>
        <pt x="976" y="865" on="0"/>
        <pt x="925" y="786" on="0"/>
        <pt x="851" y="727" on="0"/>
        <pt x="806" y="710" on="1"/>
        <pt x="858" y="694" on="0"/>
        <pt x="947" y="631" on="0"/>
        <pt x="1013" y="543" on="0"/>
        <pt x="1050" y="431" on="0"/>
        <pt x="1050" y="367" on="1"/>
        <pt x="1050" y="277" on="0"/>
        <pt x="979" y="134" on="0"/>
        <pt x="856" y="34" on="0"/>
        <pt x="689" y="-20" on="0"/>
        <pt x="592" y="-20" on="1"/>
        <pt x="490" y="-20" on="0"/>
        <pt x="321" y="35" on="0"/>
        <pt x="198" y="136" on="0"/>
        <pt x="130" y="279" on="0"/>
      </contour>
      <contour>
        <pt x="363" y="369" on="1"/>
        <pt x="363" y="315" on="0"/>
        <pt x="401" y="229" on="0"/>
        <pt x="464" y="167" on="0"/>
        <pt x="547" y="134" on="0"/>
        <pt x="592" y="134" on="1"/>
        <pt x="634" y="134" on="0"/>
        <pt x="714" y="167" on="0"/>
        <pt x="778" y="229" on="0"/>
        <pt x="817" y="315" on="0"/>
        <pt x="817" y="369" on="1"/>
        <pt x="817" y="405" on="0"/>
        <pt x="789" y="494" on="0"/>
        <pt x="733" y="572" on="0"/>
        <pt x="649" y="625" on="0"/>
        <pt x="592" y="625" on="1"/>
        <pt x="529" y="625" on="0"/>
        <pt x="442" y="572" on="0"/>
        <pt x="388" y="494" on="0"/>
        <pt x="363" y="405" on="0"/>
      </contour>
      <contour>
        <pt x="592" y="782" on="1"/>
        <pt x="628" y="782" on="0"/>
        <pt x="696" y="816" on="0"/>
        <pt x="749" y="875" on="0"/>
        <pt x="780" y="956" on="0"/>
        <pt x="780" y="1003" on="1"/>
        <pt x="780" y="1046" on="0"/>
        <pt x="749" y="1123" on="0"/>
        <pt x="696" y="1182" on="0"/>
        <pt x="628" y="1216" on="0"/>
        <pt x="592" y="1216" on="1"/>
        <pt x="550" y="1216" on="0"/>
        <pt x="479" y="1183" on="0"/>
        <pt x="429" y="1125" on="0"/>
        <pt x="401" y="1048" on="0"/>
        <pt x="401" y="1003" on="1"/>
        <pt x="401" y="958" on="0"/>
        <pt x="428" y="878" on="0"/>
        <pt x="478" y="818" on="0"/>
        <pt x="549" y="782" on="0"/>
      </contour>
    </TTGlyph>
</ttFont>
